<svg width="381" height="346" viewBox="0 0 381 346" fill="none" xmlns="http://www.w3.org/2000/svg">
<path d="M381 20V326C381 337.046 372.046 346 361 346H20.0326C8.97417 346 0.014606 337.026 0.0326041 325.967L0.491573 43.9674C0.50953 32.9345 9.45856 24 20.4915 24H228.029C234.561 24 240.682 20.8101 244.423 15.4556L249.252 8.54438C252.994 3.18992 259.114 0 265.647 0H361C372.046 0 381 8.9543 381 20Z" fill="#FFBBA5"/>
<circle cx="31.5" cy="51.5" r="5.5" fill="black"/>
<circle cx="46.5" cy="51.5" r="5" stroke="black"/>
<path d="M29.234 255V223.71H40.616C42.716 223.71 44.564 224.102 46.16 224.886C47.784 225.642 49.044 226.762 49.94 228.246C50.836 229.702 51.284 231.452 51.284 233.496C51.284 235.512 50.822 237.248 49.898 238.704C49.002 240.16 47.756 241.28 46.16 242.064C44.564 242.848 42.716 243.24 40.616 243.24H34.19V255H29.234ZM34.19 238.83H40.742C41.862 238.83 42.842 238.606 43.682 238.158C44.522 237.71 45.18 237.094 45.656 236.31C46.132 235.498 46.37 234.546 46.37 233.454C46.37 232.362 46.132 231.424 45.656 230.64C45.18 229.828 44.522 229.212 43.682 228.792C42.842 228.344 41.862 228.12 40.742 228.12H34.19V238.83ZM71.5903 255.504C69.3223 255.504 67.2083 255.098 65.2483 254.286C63.3163 253.474 61.6083 252.34 60.1243 250.884C58.6683 249.428 57.5203 247.72 56.6803 245.76C55.8683 243.8 55.4623 241.658 55.4623 239.334C55.4623 237.01 55.8683 234.868 56.6803 232.908C57.5203 230.92 58.6683 229.212 60.1243 227.784C61.5803 226.328 63.2883 225.208 65.2483 224.424C67.2083 223.612 69.3223 223.206 71.5903 223.206C73.8863 223.206 76.0003 223.612 77.9323 224.424C79.8923 225.208 81.6003 226.328 83.0563 227.784C84.5403 229.24 85.6883 230.948 86.5003 232.908C87.3123 234.868 87.7183 237.01 87.7183 239.334C87.7183 241.658 87.2983 243.8 86.4583 245.76C85.6463 247.72 84.5123 249.428 83.0563 250.884C81.6003 252.34 79.8923 253.474 77.9323 254.286C75.9723 255.098 73.8583 255.504 71.5903 255.504ZM71.5903 250.968C73.2143 250.968 74.6983 250.674 76.0423 250.086C77.4143 249.498 78.6043 248.686 79.6123 247.65C80.6203 246.586 81.4043 245.354 81.9643 243.954C82.5243 242.526 82.8043 240.986 82.8043 239.334C82.8043 237.682 82.5243 236.156 81.9643 234.756C81.4043 233.356 80.6203 232.124 79.6123 231.06C78.6043 229.996 77.4143 229.17 76.0423 228.582C74.6983 227.994 73.2143 227.7 71.5903 227.7C69.9663 227.7 68.4683 227.994 67.0963 228.582C65.7523 229.17 64.5763 229.996 63.5683 231.06C62.5603 232.124 61.7763 233.356 61.2163 234.756C60.6843 236.156 60.4183 237.682 60.4183 239.334C60.4183 240.986 60.6843 242.526 61.2163 243.954C61.7763 245.354 62.5603 246.586 63.5683 247.65C64.5763 248.686 65.7663 249.498 67.1383 250.086C68.5103 250.674 69.9943 250.968 71.5903 250.968ZM104.977 255.504C102.653 255.504 100.581 255.014 98.7614 254.034C96.9694 253.054 95.5554 251.71 94.5194 250.002C93.5114 248.294 93.0074 246.348 93.0074 244.164V223.71H97.9634V243.954C97.9634 245.326 98.2574 246.544 98.8454 247.608C99.4614 248.672 100.287 249.498 101.323 250.086C102.387 250.674 103.605 250.968 104.977 250.968C106.377 250.968 107.595 250.674 108.631 250.086C109.695 249.498 110.521 248.672 111.109 247.608C111.725 246.544 112.033 245.326 112.033 243.954V223.71H116.947V244.164C116.947 246.348 116.443 248.294 115.435 250.002C114.427 251.71 113.013 253.054 111.193 254.034C109.401 255.014 107.329 255.504 104.977 255.504ZM123.16 255V223.71H134.542C136.642 223.71 138.49 224.102 140.086 224.886C141.682 225.642 142.928 226.762 143.824 228.246C144.748 229.702 145.21 231.452 145.21 233.496C145.21 235.652 144.664 237.5 143.572 239.04C142.508 240.58 141.066 241.7 139.246 242.4L146.47 255H140.842L133.156 241.35L136.39 243.24H128.116V255H123.16ZM128.116 238.83H134.626C135.774 238.83 136.768 238.606 137.608 238.158C138.448 237.71 139.092 237.094 139.54 236.31C140.016 235.498 140.254 234.546 140.254 233.454C140.254 232.362 140.016 231.424 139.54 230.64C139.092 229.828 138.448 229.212 137.608 228.792C136.768 228.344 135.774 228.12 134.626 228.12H128.116V238.83ZM165.844 255.504C163.576 255.504 161.462 255.098 159.502 254.286C157.57 253.474 155.862 252.34 154.378 250.884C152.922 249.428 151.774 247.72 150.934 245.76C150.122 243.8 149.716 241.658 149.716 239.334C149.716 237.01 150.122 234.868 150.934 232.908C151.774 230.92 152.922 229.212 154.378 227.784C155.834 226.328 157.542 225.208 159.502 224.424C161.462 223.612 163.576 223.206 165.844 223.206C168.14 223.206 170.254 223.612 172.186 224.424C174.146 225.208 175.854 226.328 177.31 227.784C178.794 229.24 179.942 230.948 180.754 232.908C181.566 234.868 181.972 237.01 181.972 239.334C181.972 241.658 181.552 243.8 180.712 245.76C179.9 247.72 178.766 249.428 177.31 250.884C175.854 252.34 174.146 253.474 172.186 254.286C170.226 255.098 168.112 255.504 165.844 255.504ZM165.844 250.968C167.468 250.968 168.952 250.674 170.296 250.086C171.668 249.498 172.858 248.686 173.866 247.65C174.874 246.586 175.658 245.354 176.218 243.954C176.778 242.526 177.058 240.986 177.058 239.334C177.058 237.682 176.778 236.156 176.218 234.756C175.658 233.356 174.874 232.124 173.866 231.06C172.858 229.996 171.668 229.17 170.296 228.582C168.952 227.994 167.468 227.7 165.844 227.7C164.22 227.7 162.722 227.994 161.35 228.582C160.006 229.17 158.83 229.996 157.822 231.06C156.814 232.124 156.03 233.356 155.47 234.756C154.938 236.156 154.672 237.682 154.672 239.334C154.672 240.986 154.938 242.526 155.47 243.954C156.03 245.354 156.814 246.586 157.822 247.65C158.83 248.686 160.02 249.498 161.392 250.086C162.764 250.674 164.248 250.968 165.844 250.968ZM173.698 258.78L163.45 242.484H168.742L179.032 258.78H173.698ZM199.231 255.504C196.907 255.504 194.835 255.014 193.015 254.034C191.223 253.054 189.809 251.71 188.773 250.002C187.765 248.294 187.261 246.348 187.261 244.164V223.71H192.217V243.954C192.217 245.326 192.511 246.544 193.099 247.608C193.715 248.672 194.541 249.498 195.577 250.086C196.641 250.674 197.859 250.968 199.231 250.968C200.631 250.968 201.849 250.674 202.885 250.086C203.949 249.498 204.775 248.672 205.363 247.608C205.979 246.544 206.287 245.326 206.287 243.954V223.71H211.201V244.164C211.201 246.348 210.697 248.294 209.689 250.002C208.681 251.71 207.267 253.054 205.447 254.034C203.655 255.014 201.583 255.504 199.231 255.504ZM232.618 255.504C230.35 255.504 228.236 255.098 226.276 254.286C224.344 253.474 222.636 252.34 221.152 250.884C219.696 249.428 218.548 247.72 217.708 245.76C216.896 243.8 216.49 241.658 216.49 239.334C216.49 237.01 216.896 234.868 217.708 232.908C218.548 230.92 219.696 229.212 221.152 227.784C222.608 226.328 224.316 225.208 226.276 224.424C228.236 223.612 230.35 223.206 232.618 223.206C234.914 223.206 237.028 223.612 238.96 224.424C240.92 225.208 242.628 226.328 244.084 227.784C245.568 229.24 246.716 230.948 247.528 232.908C248.34 234.868 248.746 237.01 248.746 239.334C248.746 241.658 248.326 243.8 247.486 245.76C246.674 247.72 245.54 249.428 244.084 250.884C242.628 252.34 240.92 253.474 238.96 254.286C237 255.098 234.886 255.504 232.618 255.504ZM232.618 250.968C234.242 250.968 235.726 250.674 237.07 250.086C238.442 249.498 239.632 248.686 240.64 247.65C241.648 246.586 242.432 245.354 242.992 243.954C243.552 242.526 243.832 240.986 243.832 239.334C243.832 237.682 243.552 236.156 242.992 234.756C242.432 233.356 241.648 232.124 240.64 231.06C239.632 229.996 238.442 229.17 237.07 228.582C235.726 227.994 234.242 227.7 232.618 227.7C230.994 227.7 229.496 227.994 228.124 228.582C226.78 229.17 225.604 229.996 224.596 231.06C223.588 232.124 222.804 233.356 222.244 234.756C221.712 236.156 221.446 237.682 221.446 239.334C221.446 240.986 221.712 242.526 222.244 243.954C222.804 245.354 223.588 246.586 224.596 247.65C225.604 248.686 226.794 249.498 228.166 250.086C229.538 250.674 231.022 250.968 232.618 250.968ZM254.287 255V223.71H259.243V255H254.287ZM26.462 302L37.466 270.71H43.598L54.602 302H49.31L46.916 294.986H34.19L31.754 302H26.462ZM35.618 290.576H45.404L39.86 274.196H41.246L35.618 290.576ZM58.3141 302V270.71H68.5621C71.8101 270.71 74.6241 271.368 77.0041 272.684C79.4121 273.972 81.2741 275.792 82.5901 278.144C83.9061 280.496 84.5641 283.226 84.5641 286.334C84.5641 289.414 83.9061 292.144 82.5901 294.524C81.2741 296.876 79.4121 298.71 77.0041 300.026C74.6241 301.342 71.8101 302 68.5621 302H58.3141ZM63.2701 297.59H68.6461C70.8581 297.59 72.7761 297.128 74.4001 296.204C76.0521 295.28 77.3261 293.978 78.2221 292.298C79.1181 290.618 79.5661 288.63 79.5661 286.334C79.5661 284.038 79.1041 282.064 78.1801 280.412C77.2841 278.732 76.0241 277.43 74.4001 276.506C72.7761 275.582 70.8581 275.12 68.6461 275.12H63.2701V297.59ZM104.649 302.504C102.381 302.504 100.267 302.098 98.3069 301.286C96.3749 300.474 94.6669 299.34 93.1829 297.884C91.7269 296.428 90.5789 294.72 89.7389 292.76C88.9269 290.8 88.5209 288.658 88.5209 286.334C88.5209 284.01 88.9269 281.868 89.7389 279.908C90.5789 277.92 91.7269 276.212 93.1829 274.784C94.6389 273.328 96.3469 272.208 98.3069 271.424C100.267 270.612 102.381 270.206 104.649 270.206C106.945 270.206 109.059 270.612 110.991 271.424C112.951 272.208 114.659 273.328 116.115 274.784C117.599 276.24 118.747 277.948 119.559 279.908C120.371 281.868 120.777 284.01 120.777 286.334C120.777 288.658 120.357 290.8 119.517 292.76C118.705 294.72 117.571 296.428 116.115 297.884C114.659 299.34 112.951 300.474 110.991 301.286C109.031 302.098 106.917 302.504 104.649 302.504ZM104.649 297.968C106.273 297.968 107.757 297.674 109.101 297.086C110.473 296.498 111.663 295.686 112.671 294.65C113.679 293.586 114.463 292.354 115.023 290.954C115.583 289.526 115.863 287.986 115.863 286.334C115.863 284.682 115.583 283.156 115.023 281.756C114.463 280.356 113.679 279.124 112.671 278.06C111.663 276.996 110.473 276.17 109.101 275.582C107.757 274.994 106.273 274.7 104.649 274.7C103.025 274.7 101.527 274.994 100.155 275.582C98.8109 276.17 97.6349 276.996 96.6269 278.06C95.6189 279.124 94.8349 280.356 94.2749 281.756C93.7429 283.156 93.4769 284.682 93.4769 286.334C93.4769 287.986 93.7429 289.526 94.2749 290.954C94.8349 292.354 95.6189 293.586 96.6269 294.65C97.6349 295.686 98.8249 296.498 100.197 297.086C101.569 297.674 103.053 297.968 104.649 297.968ZM126.318 302V270.71H137.7C139.8 270.71 141.648 271.102 143.244 271.886C144.868 272.642 146.128 273.762 147.024 275.246C147.92 276.702 148.368 278.452 148.368 280.496C148.368 282.512 147.906 284.248 146.982 285.704C146.086 287.16 144.84 288.28 143.244 289.064C141.648 289.848 139.8 290.24 137.7 290.24H131.274V302H126.318ZM131.274 285.83H137.826C138.946 285.83 139.926 285.606 140.766 285.158C141.606 284.71 142.264 284.094 142.74 283.31C143.216 282.498 143.454 281.546 143.454 280.454C143.454 279.362 143.216 278.424 142.74 277.64C142.264 276.828 141.606 276.212 140.766 275.792C139.926 275.344 138.946 275.12 137.826 275.12H131.274V285.83ZM159.014 302V275.12H150.698V270.71H172.118V275.12H163.928V302H159.014ZM175.824 302V270.71H196.446V275.12H180.78V284.108H195.606V288.518H180.78V297.59H196.446V302H175.824ZM201.048 302V270.71H212.43C214.53 270.71 216.378 271.102 217.974 271.886C219.57 272.642 220.816 273.762 221.712 275.246C222.636 276.702 223.098 278.452 223.098 280.496C223.098 282.652 222.552 284.5 221.46 286.04C220.396 287.58 218.954 288.7 217.134 289.4L224.358 302H218.73L211.044 288.35L214.278 290.24H206.004V302H201.048ZM206.004 285.83H212.514C213.662 285.83 214.656 285.606 215.496 285.158C216.336 284.71 216.98 284.094 217.428 283.31C217.904 282.498 218.142 281.546 218.142 280.454C218.142 279.362 217.904 278.424 217.428 277.64C216.98 276.828 216.336 276.212 215.496 275.792C214.656 275.344 213.662 275.12 212.514 275.12H206.004V285.83ZM240.869 292.676V291.962C240.869 290.73 241.065 289.638 241.457 288.686C241.877 287.734 242.395 286.88 243.011 286.124C243.655 285.34 244.313 284.626 244.985 283.982C245.937 283.086 246.777 282.218 247.505 281.378C248.261 280.538 248.639 279.558 248.639 278.438C248.639 277.738 248.471 277.108 248.135 276.548C247.799 275.96 247.295 275.498 246.623 275.162C245.979 274.798 245.181 274.616 244.229 274.616C242.913 274.616 241.779 275.022 240.827 275.834C239.903 276.618 239.315 277.682 239.063 279.026L234.653 277.976C234.905 276.436 235.465 275.092 236.333 273.944C237.229 272.768 238.349 271.858 239.693 271.214C241.065 270.542 242.605 270.206 244.313 270.206C246.245 270.206 247.897 270.598 249.269 271.382C250.669 272.138 251.733 273.132 252.461 274.364C253.189 275.596 253.553 276.926 253.553 278.354C253.553 279.502 253.315 280.538 252.839 281.462C252.391 282.358 251.803 283.184 251.075 283.94C250.375 284.696 249.647 285.438 248.891 286.166C247.995 287.034 247.197 287.944 246.497 288.896C245.825 289.82 245.489 290.912 245.489 292.172V292.676H240.869ZM240.869 302V296.54H245.699V302H240.869Z" fill="black"/>
</svg>
