<svg width="40" height="40" viewBox="0 0 40 40" fill="none" xmlns="http://www.w3.org/2000/svg">
<mask id="mask0_722_341" style="mask-type:alpha" maskUnits="userSpaceOnUse" x="0" y="0" width="40" height="40">
<rect width="40" height="40" fill="#D9D9D9"/>
</mask>
<g mask="url(#mask0_722_341)">
<path d="M19.9918 30.7819C19.3935 30.7819 18.8843 30.5689 18.4642 30.1429C18.0441 29.7169 17.834 29.2047 17.834 28.6065C17.834 28.0082 18.047 27.499 18.473 27.0789C18.8991 26.6588 19.4112 26.4487 20.0094 26.4487C20.6077 26.4487 21.1169 26.6617 21.537 27.0878C21.9572 27.5138 22.1672 28.0259 22.1672 28.6242C22.1672 29.2224 21.9542 29.7316 21.5282 30.1518C21.1022 30.5719 20.59 30.7819 19.9918 30.7819ZM19.9918 22.1666C19.3935 22.1666 18.8843 21.9536 18.4642 21.5276C18.0441 21.1015 17.834 20.5894 17.834 19.9911C17.834 19.3929 18.047 18.8837 18.473 18.4636C18.8991 18.0434 19.4112 17.8334 20.0094 17.8334C20.6077 17.8334 21.1169 18.0464 21.537 18.4724C21.9572 18.8984 22.1672 19.4106 22.1672 20.0088C22.1672 20.6071 21.9542 21.1163 21.5282 21.5364C21.1022 21.9565 20.59 22.1666 19.9918 22.1666ZM19.9918 13.5512C19.3935 13.5512 18.8843 13.3382 18.4642 12.9122C18.0441 12.4862 17.834 11.974 17.834 11.3758C17.834 10.7775 18.047 10.2683 18.473 9.84819C18.8991 9.42807 19.4112 9.21802 20.0094 9.21802C20.6077 9.21802 21.1169 9.43103 21.537 9.85706C21.9572 10.2831 22.1672 10.7952 22.1672 11.3935C22.1672 11.9917 21.9542 12.5009 21.5282 12.921C21.1022 13.3412 20.59 13.5512 19.9918 13.5512Z" fill="#1C1B1F"/>
</g>
</svg>
