<svg width="27" height="26" viewBox="0 0 27 26" fill="none" xmlns="http://www.w3.org/2000/svg">
<path d="M20.995 11.5309V16.3231C20.995 16.6346 20.9824 16.9341 20.9449 17.2217C20.6571 20.4564 18.6676 22.0618 15.0015 22.0618H14.501C14.1882 22.0618 13.8879 22.2056 13.7002 22.4452L12.1987 24.3621C11.5355 25.2127 10.4594 25.2127 9.79628 24.3621L8.29478 22.4452C8.19463 22.3335 8.07222 22.2421 7.93471 22.1763C7.79721 22.1104 7.64738 22.0715 7.49398 22.0618H6.99348C3.002 22.0618 1 21.1153 1 16.3231V11.5309C1 8.02062 2.68919 6.11571 6.05505 5.84016C6.35535 5.80422 6.66816 5.79224 6.99348 5.79224H15.0015C18.993 5.79224 20.995 7.70912 20.995 11.5309Z" stroke="#6A6A6A" stroke-width="1.7" stroke-miterlimit="10" stroke-linecap="round" stroke-linejoin="round"/>
<path d="M26 6.73867V11.5309C26 15.0532 24.3108 16.9461 20.945 17.2216C20.9825 16.9341 20.995 16.6346 20.995 16.3231V11.5309C20.995 7.7091 18.993 5.79221 15.0015 5.79221H6.99355C6.66823 5.79221 6.35541 5.80419 6.05511 5.84013C6.3429 2.61737 8.33239 1 11.9985 1H20.0065C23.998 1 26 2.91688 26 6.73867Z" stroke="#6A6A6A" stroke-width="1.7" stroke-miterlimit="10" stroke-linecap="round" stroke-linejoin="round"/>
<path d="M15.3833 14.4781H15.3958M11.0039 14.4781H11.0164M6.62451 14.4781H6.63702" stroke="#6A6A6A" stroke-width="1.7" stroke-linecap="round" stroke-linejoin="round"/>
</svg>