<svg width="24" height="26" viewBox="0 0 24 26" fill="none" xmlns="http://www.w3.org/2000/svg">
<path d="M19.3333 8.2C19.3333 6.29044 18.5607 4.45909 17.1855 3.10883C15.8102 1.75857 13.9449 1 12 1C10.0551 1 8.18982 1.75857 6.81455 3.10883C5.43928 4.45909 4.66667 6.29044 4.66667 8.2C4.66667 16.6 1 19 1 19H23C23 19 19.3333 16.6 19.3333 8.2Z" stroke="black" stroke-width="1.85" stroke-linecap="round" stroke-linejoin="round"/>
<path d="M14 24C13.7968 24.3042 13.505 24.5566 13.154 24.7321C12.803 24.9076 12.4051 25 12 25C11.5949 25 11.197 24.9076 10.846 24.7321C10.495 24.5566 10.2032 24.3042 10 24" stroke="black" stroke-width="1.85" stroke-linecap="round" stroke-linejoin="round"/>
</svg>
