<svg width="21" height="26" viewBox="0 0 21 26" fill="none" xmlns="http://www.w3.org/2000/svg">
<path d="M12.875 1H3.375C2.74511 1 2.14102 1.25286 1.69562 1.70294C1.25022 2.15303 1 2.76348 1 3.4V22.6C1 23.2365 1.25022 23.847 1.69562 24.2971C2.14102 24.7471 2.74511 25 3.375 25H17.625C18.2549 25 18.859 24.7471 19.3044 24.2971C19.7498 23.847 20 23.2365 20 22.6V8.2L12.875 1Z" stroke="black" stroke-width="1.85" stroke-linecap="round" stroke-linejoin="round"/>
<path d="M13 1V9H20" stroke="black" stroke-width="1.85" stroke-linecap="round" stroke-linejoin="round"/>
<path d="M15 14H6" stroke="black" stroke-width="1.85" stroke-linecap="round" stroke-linejoin="round"/>
<path d="M15 19H6" stroke="black" stroke-width="1.85" stroke-linecap="round" stroke-linejoin="round"/>
<path d="M9 10H7.5H6" stroke="black" stroke-width="1.85" stroke-linecap="round" stroke-linejoin="round"/>
</svg>
