<svg width="22" height="19" viewBox="0 0 22 19" fill="none" xmlns="http://www.w3.org/2000/svg">
<path d="M21 9.5H1" stroke="#6A6A6A" stroke-width="1.6" stroke-linecap="round" stroke-linejoin="round"/>
<path d="M4.45 2.323L1 9.50008V15.7501C1 16.3026 1.21071 16.8325 1.58579 17.2232C1.96086 17.6139 2.46957 17.8334 3 17.8334H19C19.5304 17.8334 20.0391 17.6139 20.4142 17.2232C20.7893 16.8325 21 16.3026 21 15.7501V9.50008L17.55 2.323C17.3844 1.9759 17.1292 1.6838 16.813 1.47954C16.4967 1.27528 16.1321 1.16695 15.76 1.16675H6.24C5.86792 1.16695 5.50326 1.27528 5.18704 1.47954C4.87083 1.6838 4.61558 1.9759 4.45 2.323Z" stroke="#6A6A6A" stroke-width="1.6" stroke-linecap="round" stroke-linejoin="round"/>
<path d="M5 13.6667H5.01118" stroke="#6A6A6A" stroke-width="1.6" stroke-linecap="round" stroke-linejoin="round"/>
<path d="M9 13.6667H9.01118" stroke="#6A6A6A" stroke-width="1.6" stroke-linecap="round" stroke-linejoin="round"/>
</svg>
