<svg width="20" height="20" viewBox="0 0 20 20" fill="none" xmlns="http://www.w3.org/2000/svg">
<path d="M18.6465 9.43851C18.6499 10.7584 18.3416 12.0604 17.7465 13.2385C17.0409 14.6503 15.9562 15.8377 14.6139 16.6678C13.2716 17.4979 11.7247 17.9379 10.1465 17.9385C8.82662 17.9419 7.5246 17.6336 6.34648 17.0385L0.646484 18.9385L2.54648 13.2385C1.95142 12.0604 1.64304 10.7584 1.64648 9.43851C1.6471 7.86026 2.0871 6.31336 2.9172 4.97106C3.74731 3.62875 4.93474 2.54407 6.34648 1.83851C7.5246 1.24344 8.82662 0.935064 10.1465 0.938505H10.6465C12.7308 1.0535 14.6995 1.93327 16.1756 3.40936C17.6517 4.88546 18.5315 6.85416 18.6465 8.93851V9.43851Z" stroke="#6B6B6B" stroke-linecap="round" stroke-linejoin="round"/>
</svg>
