<svg width="22" height="22" viewBox="0 0 22 22" fill="none" xmlns="http://www.w3.org/2000/svg">
<path d="M20.7004 15.96L17.5704 8.65C16.5104 6.17 14.5604 6.07 13.2504 8.43L11.3604 11.84C10.4004 13.57 8.61043 13.72 7.37043 12.17L7.15043 11.89C5.86043 10.27 4.04043 10.47 3.11043 12.32L1.39043 15.77C0.180434 18.17 1.93043 21 4.61043 21H17.3704C19.9704 21 21.7204 18.35 20.7004 15.96ZM5.99043 7C6.78608 7 7.54914 6.68393 8.11175 6.12132C8.67436 5.55871 8.99043 4.79565 8.99043 4C8.99043 3.20435 8.67436 2.44129 8.11175 1.87868C7.54914 1.31607 6.78608 1 5.99043 1C5.19478 1 4.43172 1.31607 3.86911 1.87868C3.3065 2.44129 2.99043 3.20435 2.99043 4C2.99043 4.79565 3.3065 5.55871 3.86911 6.12132C4.43172 6.68393 5.19478 7 5.99043 7Z" stroke="#9EA1A7" stroke-linecap="round" stroke-linejoin="round"/>
</svg>
