<svg width="24" height="25" viewBox="0 0 24 25" fill="none" xmlns="http://www.w3.org/2000/svg">
<path d="M13.2341 1.27566L20.4452 4.48557C22.523 5.40443 22.523 6.92363 20.4452 7.84249L13.2341 11.0524C12.4152 11.4199 11.0708 11.4199 10.2519 11.0524L3.04076 7.84249C0.962978 6.92363 0.962978 5.40443 3.04076 4.48557L10.2519 1.27566C11.0708 0.908113 12.4152 0.908113 13.2341 1.27566Z" stroke="#296EFF" stroke-width="1.5" stroke-linecap="round" stroke-linejoin="round"/>
<path d="M1 11.1748C1 12.2039 1.77 13.3923 2.71111 13.8089L11.01 17.5089C11.6456 17.7906 12.3667 17.7906 12.99 17.5089L21.2889 13.8089C22.23 13.3923 23 12.2039 23 11.1748" stroke="#296EFF" stroke-width="1.5" stroke-linecap="round" stroke-linejoin="round"/>
<path d="M1 17.3008C1 18.4402 1.67222 19.4693 2.71111 19.9349L11.01 23.6348C11.6456 23.9166 12.3667 23.9166 12.99 23.6348L21.2889 19.9349C22.3278 19.4693 23 18.4402 23 17.3008" stroke="#296EFF" stroke-width="1.5" stroke-linecap="round" stroke-linejoin="round"/>
</svg>
