<svg width="40" height="40" viewBox="0 0 40 40" fill="none" xmlns="http://www.w3.org/2000/svg">
<path d="M20 39C30.4934 39 39 30.4934 39 20C39 9.50659 30.4934 1 20 1C9.50659 1 1 9.50659 1 20C1 30.4934 9.50659 39 20 39Z" stroke="black" stroke-width="2" stroke-linecap="round" stroke-linejoin="round"/>
<path d="M20.0004 27.5999C24.1978 27.5999 27.6004 24.1973 27.6004 19.9999C27.6004 15.8025 24.1978 12.3999 20.0004 12.3999C15.803 12.3999 12.4004 15.8025 12.4004 19.9999C12.4004 24.1973 15.803 27.5999 20.0004 27.5999Z" stroke="black" stroke-width="2" stroke-linecap="round" stroke-linejoin="round"/>
<path d="M6.56738 6.56689L14.6234 14.6229" stroke="black" stroke-width="2" stroke-linecap="round" stroke-linejoin="round"/>
<path d="M25.3779 25.377L33.4339 33.433" stroke="black" stroke-width="2" stroke-linecap="round" stroke-linejoin="round"/>
<path d="M25.3779 14.6229L33.4339 6.56689" stroke="black" stroke-width="2" stroke-linecap="round" stroke-linejoin="round"/>
<path d="M25.3779 14.623L32.0849 7.91602" stroke="black" stroke-width="2" stroke-linecap="round" stroke-linejoin="round"/>
<path d="M6.56738 33.433L14.6234 25.377" stroke="black" stroke-width="2" stroke-linecap="round" stroke-linejoin="round"/>
</svg>
