<svg width="25" height="25" viewBox="0 0 25 25" fill="none" xmlns="http://www.w3.org/2000/svg">
<path d="M12.25 23.5C18.4632 23.5 23.5 18.4632 23.5 12.25C23.5 6.0368 18.4632 1 12.25 1C6.0368 1 1 6.0368 1 12.25C1 18.4632 6.0368 23.5 12.25 23.5Z" stroke="black" stroke-width="1.85" stroke-linecap="round" stroke-linejoin="round"/>
<path d="M8.97656 8.87515C9.24105 8.12328 9.76311 7.48927 10.4503 7.08543C11.1374 6.68158 11.9453 6.53396 12.7309 6.6687C13.5165 6.80345 14.229 7.21187 14.7423 7.82162C15.2556 8.43138 15.5365 9.20311 15.5353 10.0002C15.5353 12.2502 12.1603 13.3752 12.1603 13.3752" stroke="black" stroke-width="1.85" stroke-linecap="round" stroke-linejoin="round"/>
<path d="M12.25 17.875H12.2613" stroke="black" stroke-width="1.85" stroke-linecap="round" stroke-linejoin="round"/>
</svg>
