<svg width="22" height="20" viewBox="0 0 22 20" fill="none" xmlns="http://www.w3.org/2000/svg">
<path d="M19.8264 2.68702C19.3157 2.17603 18.7093 1.77067 18.0418 1.4941C17.3743 1.21754 16.6589 1.0752 15.9364 1.0752C15.214 1.0752 14.4986 1.21754 13.8311 1.4941C13.1636 1.77067 12.5572 2.17603 12.0464 2.68702L10.9864 3.74702L9.92645 2.68702C8.89475 1.65533 7.49548 1.07573 6.03645 1.07573C4.57741 1.07573 3.17814 1.65533 2.14645 2.68702C1.11475 3.71871 0.535156 5.11799 0.535156 6.57702C0.535156 8.03605 1.11475 9.43533 2.14645 10.467L3.20645 11.527L10.9864 19.307L18.7664 11.527L19.8264 10.467C20.3374 9.95627 20.7428 9.34983 21.0194 8.68238C21.2959 8.01492 21.4383 7.29951 21.4383 6.57702C21.4383 5.85453 21.2959 5.13912 21.0194 4.47167C20.7428 3.80421 20.3374 3.19778 19.8264 2.68702Z" stroke="#6B6B6B" stroke-linecap="round" stroke-linejoin="round"/>
</svg>
