<svg width="12" height="13" viewBox="0 0 12 13" fill="none" xmlns="http://www.w3.org/2000/svg">
<path d="M5 6.91521C5.21574 7.22582 5.49099 7.48283 5.80707 7.66881C6.12315 7.85479 6.47268 7.96538 6.83194 7.99309C7.1912 8.0208 7.5518 7.96497 7.88926 7.8294C8.22673 7.69383 8.53318 7.48169 8.78782 7.20736L10.2949 5.58431C10.7525 5.07413 11.0056 4.39083 10.9999 3.68156C10.9942 2.9723 10.73 2.29384 10.2643 1.7923C9.7986 1.29075 9.1686 1.00627 8.51001 1.0001C7.85142 0.993939 7.21693 1.26659 6.7432 1.75935L5.87913 2.68448" stroke="black" stroke-width="0.8" stroke-linecap="round" stroke-linejoin="round"/>
<path d="M7 6.08479C6.78426 5.77418 6.50901 5.51717 6.19293 5.33119C5.87685 5.14521 5.52732 5.03462 5.16806 5.00691C4.8088 4.9792 4.4482 5.03503 4.11074 5.1706C3.77327 5.30617 3.46683 5.51831 3.21218 5.79264L1.7051 7.41569C1.24755 7.92587 0.994372 8.60918 1.00009 9.31844C1.00582 10.0277 1.26998 10.7062 1.73569 11.2077C2.2014 11.7092 2.8314 11.9937 3.48999 11.9999C4.14858 12.0061 4.78307 11.7334 5.2568 11.2407L6.11584 10.3155" stroke="black" stroke-width="0.8" stroke-linecap="round" stroke-linejoin="round"/>
</svg>
