<svg xmlns:xlink="http://www.w3.org/1999/xlink" xmlns="http://www.w3.org/2000/svg" id="Layer_1" data-name="Layer 1" width="300" height="300" viewBox="0 0 1000 1000">
                <defs>
                    <style>
                        .cls-1 {
                            fill: #a8542a;
                        }

                        .cls-2 {
                            fill: #fc7f3a;
                        }

                        .cls-3 {
                            fill: #fff;
                        }

                        .cls-4 {
                            fill: #fc7272;
                        }

                        .cls-5 {
                            fill: #458dc9;
                        }

                        .cls-6 {
                            fill: #389b48;
                        }

                        .cls-7 {
                            fill: #ffc41f;
                        }

                            stroke: #000;
                            stroke-miterlimit: 10;
                            stroke-width: 1.0897px;
                        }
                    </style>
                </defs>
                <path class="cls-1" d="M905.6881,543.9445H834.0989a69.3119,69.3119,0,0,1-69.3118-69.3118V281.3273H975V474.6327A69.3119,69.3119,0,0,1,905.6881,543.9445Z" fill="#A8542A"></path>
                <path d="M905.6881,542.31H837.5132a85.1468,85.1468,0,0,1-15.9855-1.16A67.677,67.677,0,0,1,766.43,475.742c-.0738-4.7044-.0087-9.4141-.0087-14.1188V281.3273l-1.6345,1.6345H966.4356c2.7068,0,5.5141.2152,8.2148,0,.1149-.0092.2341,0,.35,0l-1.6345-1.6345V465.8764c0,2.9155.006,5.8311,0,8.7465A67.5672,67.5672,0,0,1,905.6881,542.31a1.6355,1.6355,0,0,0,0,3.2691,70.9852,70.9852,0,0,0,69.5677-56.98,94.1349,94.1349,0,0,0,1.3787-18.4289V281.3273A1.6582,1.6582,0,0,0,975,279.6927H773.3515c-2.735,0-5.4805-.07-8.2148,0-.1164.003-.2332,0-.35,0a1.6584,1.6584,0,0,0-1.6346,1.6346v174.771q0,9.0136,0,18.0274A70.9548,70.9548,0,0,0,834.18,545.5791c10.3766.02,20.7535,0,31.13,0h40.378A1.6355,1.6355,0,0,0,905.6881,542.31Z"></path>
                <path class="cls-2" d="M839.3782,543.9445H767.789a69.3119,69.3119,0,0,1-69.3119-69.3118V281.3273H908.69V474.6327A69.3119,69.3119,0,0,1,839.3782,543.9445Z" fill="#FC7F3A"></path>
                <path d="M839.3782,542.31h-68.175a85.1458,85.1458,0,0,1-15.9854-1.16A67.6768,67.6768,0,0,1,700.12,475.742c-.0739-4.7044-.0087-9.4141-.0087-14.1188V281.3273l-1.6346,1.6345H900.1257c2.7067,0,5.514.2152,8.2147,0,.115-.0092.2341,0,.35,0l-1.6345-1.6345V465.8764c0,2.9155.006,5.8311,0,8.7465A67.5672,67.5672,0,0,1,839.3782,542.31a1.6355,1.6355,0,0,0,0,3.2691,70.9852,70.9852,0,0,0,69.5676-56.98,94.135,94.135,0,0,0,1.3788-18.4289V281.3273a1.6583,1.6583,0,0,0-1.6346-1.6346H707.0415c-2.735,0-5.48-.07-8.2148,0-.1163.003-.2332,0-.35,0a1.6583,1.6583,0,0,0-1.6345,1.6346v174.771q0,9.0136,0,18.0274A70.9546,70.9546,0,0,0,767.87,545.5791c10.3766.02,20.7534,0,31.13,0h40.3781A1.6355,1.6355,0,0,0,839.3782,542.31Z"></path>
                <path d="M696.2977,851.5118c-.0338-5.2356-1.81-10.6228-7.2588-12.3053-3.8078-1.1758-8.0915-.4344-11.81.7324a26.6108,26.6108,0,0,0-2.8648,1.06l1.2006.923c1.018-3.9076-1.2483-8.1366-4.1157-10.6286a18.6523,18.6523,0,0,0-21.5605-2.4371,18.3151,18.3151,0,0,0-4.5668,3.5529l1.366.7952a18.1217,18.1217,0,0,0,1.1132-7.0811,15.4445,15.4445,0,0,0-6.6159-12.2995c-3.6505-2.5956-8.134-3.8248-12.5033-4.5084v1.5762c5.8125-1.6765,11.8011-3.8457,16.5872-7.6563,2.7682-2.2039,5.2124-5.2644,5.3519-8.9441.3108-8.194-9.6134-12.8788-16.0819-14.9365a65.8384,65.8384,0,0,0-20.7854-2.7594l.5779,1.3951c8.1671-6.6444,16.381-13.7963,22.5457-22.41,2.589-3.6175,5.9491-8.8138,4.7471-13.53-.9385-3.6825-4.78-4.94-8.1906-5.0425-5.5931-.1682-11.2334,1.8632-16.2415,4.1576a86.0029,86.0029,0,0,0-22.5414,15.51l1.366.7952c4.2629-13.3161,8.0144-27.2062,8.7108-41.2411a49.1486,49.1486,0,0,0-.6962-12.2959,15.8838,15.8838,0,0,0-3.1846-7.31c-3.175-3.6446-7.8019-2.4323-11.1614.247-5.7618,4.5952-9.2388,12.0136-11.8365,18.7169-4.4478,11.4772-6.6041,23.8155-7.5912,36.0436q-.2267,2.8083-.3645,5.6225l1.6054-.2172c-1.2716-8.1726-2.9753-16.299-4.882-24.344-1.6661-7.03-3.5455-14.0185-5.8143-20.88a103.4926,103.4926,0,0,0-7.9629-18.8626c-2.3448-4.1126-5.4218-8.7-9.9262-10.6607a9.724,9.724,0,0,0-11.4449,3.0259c-3.4569,4.3523-3.7994,10.6282-3.6565,15.9482a106.6168,106.6168,0,0,0,3.2044,21.4666,239.977,239.977,0,0,0,9.8211,31.4833c.0689.178.1378.356.2081.5334l1.2006-.9229a59.1912,59.1912,0,0,0-8.1475-4.7218c-4.3248-2.0962-9.5176-4.2308-14.4206-3.3582-5.8529,1.0416-7.452,7.1859-7.2445,12.3751a21.0661,21.0661,0,0,0,7.897,15.1859,30.0292,30.0292,0,0,0,9.2992,5.4413v-1.5762a43.2657,43.2657,0,0,0-16.6818,5.754c-3.1544,1.9972-6.0683,4.881-6.6725,8.72-.6532,4.15.659,9.0692,4.2483,11.5278a10.6448,10.6448,0,0,0,6.7917,1.7568c1.0365-.1049,1.0474-1.74,0-1.6345a9.3347,9.3347,0,0,1-4.9253-.92c-3.6544-1.8107-4.9838-6.2215-4.5646-10.07.7891-7.2454,10.0986-10.5345,16.0418-12.1925a49.3426,49.3426,0,0,1,6.1969-1.3645c.8683-.1251.6784-1.3422,0-1.5762-7.1831-2.4776-14.1721-8.6691-15.6894-16.3875-.9081-4.62-.44-11.9276,5.0987-13.3271,4.3537-1.1,9.3282.952,13.2035,2.7731a58.9706,58.9706,0,0,1,8.7441,5.0068.8248.8248,0,0,0,1.2006-.923,239.374,239.374,0,0,1-8.3956-25.5824,142.7568,142.7568,0,0,1-4.34-21.3728c-.6491-5.8013-1.06-12.256,1.0659-17.8208,1.46-3.8221,5.0189-7.0433,9.3618-6.3411s7.504,4.8389,9.7268,8.2875a83.1193,83.1193,0,0,1,8.0247,17.3745c2.3927,6.7469,4.3476,13.647,6.08,20.59,2.278,9.13,3.92,18.3436,5.7046,27.5712.0289.15.0487.3017.0721.4523.1477.9494,1.5614.6568,1.6054-.2173.6281-12.4808,2.4181-25.0317,6.3547-36.9266,2.4022-7.2586,5.6264-14.9889,11.045-20.557a12.7025,12.7025,0,0,1,5.5312-3.6775,4.81,4.81,0,0,1,4.3617.8337,10.9838,10.9838,0,0,1,3.2312,5.7587,38.8988,38.8988,0,0,1,1.1257,10.8986c-.1626,12.63-3.2732,25.2428-6.8343,37.287q-.9148,3.0942-1.9024,6.1659a.8237.8237,0,0,0,1.366.7951,87.4321,87.4321,0,0,1,19.289-13.8286c4.9987-2.5877,10.5545-4.8685,16.2257-5.3049,2.8848-.2219,7.0923-.0381,8.4728,3.0333,1.6778,3.7329-1.3727,8.6166-3.3427,11.5944a71.3774,71.3774,0,0,1-8.6385,10.3528,173.1919,173.1919,0,0,1-14.6372,13.1566c-.5643.4591-.0855,1.404.5779,1.3952a67.1451,67.1451,0,0,1,17.7006,1.9391A35.3545,35.3545,0,0,1,643.792,785.65c2.3983,1.7862,4.7236,4.2972,5.1409,7.3825.432,3.1942-1.4434,6.0185-3.6961,8.0884-4.6367,4.26-11.0567,6.4826-16.99,8.194-.717.2068-.8372,1.4452,0,1.5762,6.2116.9718,13.2355,3.2,16.38,9.1435a15.4958,15.4958,0,0,1,1.138,10.4453,14.3921,14.3921,0,0,1-.654,2.2895c-.3035.7634.8446,1.3817,1.366.7951a17.249,17.249,0,0,1,11.225-5.5129c6.2614-.4389,14.5919,3.3924,16.1809,9.992a7.7556,7.7556,0,0,1,.1051,3.4434.8282.8282,0,0,0,1.2006.9229c.0392-.0175.0786-.0378.1192-.0516-.2613.0886.168-.0685.2719-.1089.4687-.1823.94-.3565,1.4165-.5174a29.9421,29.9421,0,0,1,4.656-1.183c3.6054-.6,7.9046-.4451,10.516,2.4747,2.04,2.281,2.4759,5.547,2.4949,8.4878a.8177.8177,0,0,0,1.6345,0Z"></path>
                <path d="M558.9666,810.3205a44.12,44.12,0,0,1,2.1975-5.6143c1.4953-3.2185,3.3493-6.6539,6.176-8.9008,2.5249-2.0069,6.5217-2.3343,8.42.7534,1.8624,3.0287.8369,7.33-.08,10.498a42.3227,42.3227,0,0,1-2.9519,7.5376c-.2888.5624.2089,1.4919.9229,1.2006,3.9712-1.62,9.1236-2.4864,13.1891-.8262,1.8488.755,3.3247,1.9624,2.2093,3.9788a13.95,13.95,0,0,1-4.028,4.0847,31.8652,31.8652,0,0,1-3.2826,2.1659.8263.8263,0,0,0,0,1.4114,11.1386,11.1386,0,0,1,2.8352,2.71,5.6911,5.6911,0,0,1,.1407,7.0686c-.6022.8654.8141,1.6833,1.4114.825,3.0575-4.3938.5107-9.37-3.5623-12.0152V826.61c2.9165-1.6549,6.4115-3.9527,7.9871-7.0041a3.758,3.758,0,0,0-1.0645-5.0362c-2.6782-1.9964-6.3761-2.3-9.59-1.953a24.886,24.886,0,0,0-6.68,1.6025l.9229,1.2006a45.1112,45.1112,0,0,0,2.9084-7.2332c1.1213-3.62,2.1516-8.116.5-11.7357a6.9334,6.9334,0,0,0-9.1795-3.1931c-3.5506,1.6128-5.9177,5.3658-7.6618,8.69a46.77,46.77,0,0,0-3.3163,7.9383c-.3093,1.0079,1.2679,1.4388,1.5762.4345Z"></path>
                <path class="cls-3" d="M299.591,270.9149c18.9014-4.7014,38.935.9443,51.8415,10.8173l89.0995,68.1584,86.5521,33.2665c-4.7113,6.5362-9.9858,16.6011-14.5324,28.314-2.9072,7.4894-4.677,37.0274-6.1537,43.3339L418.03,428.664a97.2882,97.2882,0,0,1-26.16-12.1116l-82.44-77.8372-46.8169-57.0975Z" fill="#FFFFFF"></path>
                <path d="M300.0255,272.491A61.2158,61.2158,0,0,1,350.61,283.1456c3.1,2.3558,6.1849,4.7313,9.2772,7.0969l21.721,16.6159,26.09,19.9578,22.1166,16.9185,6.9417,5.31a31.4358,31.4358,0,0,0,2.9228,2.2358,20.5967,20.5967,0,0,0,3.0593,1.2012l8.4721,3.2562,27.4815,10.5626,29.531,11.35,17.587,6.76.8395.3226-.9768-2.4011a108.276,108.276,0,0,0-9.6571,16.9356c-2.3425,4.9606-4.9109,10.1-6.0729,15.4953-2.0018,9.2956-2.6468,18.9186-3.6465,28.3583a94.9234,94.9234,0,0,1-1.4744,11.2492l2.0107-1.1417-19.9668-5.9066-39.157-11.5834-27.7-8.1942a104.4777,104.4777,0,0,1-18.7255-7.359,54.2879,54.2879,0,0,1-8.1909-4.7843c-.09-.0694-.21-.1516-.3121-.2365-.63-.5252-1.2047-1.1373-1.8007-1.7l-20.4159-19.2762L340.4181,365.726l-24.2829-22.9273c-1.7586-1.66-3.5541-3.29-5.2794-4.9847a40.8157,40.8157,0,0,1-2.7931-3.3322L285.5865,307.07l-20.676-25.2163-1.1413-1.3919-.7213,2.7319,32.4272-9.3857,4.55-1.3171c2.017-.5838,1.1591-3.7393-.869-3.1523l-32.4272,9.3857-4.55,1.3171a1.6575,1.6575,0,0,0-.7213,2.732l15.425,18.8121,25.0263,30.522a102.8282,102.8282,0,0,0,8.6463,9.9168l20.8768,19.7112,30.19,28.5042,24.0451,22.7027c1.6267,1.5359,3.2168,3.1267,4.8877,4.6149a12.8577,12.8577,0,0,0,1.6866,1.1814q4,2.55,8.2354,4.7031a101.42,101.42,0,0,0,17.12,6.7985q10.0894,2.9912,20.1822,5.97l39.3,11.6258,27.4835,8.13,1.4009.4144a1.6517,1.6517,0,0,0,2.0107-1.1416,85.365,85.365,0,0,0,1.3464-9.8345c.5289-4.8559,1.0076-9.7172,1.5568-14.5709.5142-4.5443,1.047-9.1,1.8953-13.5961.9407-4.9865,2.97-9.551,5.0647-14.1592a112.4764,112.4764,0,0,1,10.6581-19.0967,1.6537,1.6537,0,0,0-.9768-2.4012l-12.52-4.8121-28.1658-10.8255-29.2653-11.2482c-5.3927-2.0727-10.7752-4.1744-16.1788-6.2184-.131-.0495-.2653-.0955-.3938-.1513.004.0017.4148.3229.2833.0936-.1726-.3009-.7882-.6029-1.0583-.81l-5.3855-4.12L414.51,327.9418l-25.9474-19.8489-23.3533-17.8647-12.4847-9.55A65.0369,65.0369,0,0,0,313.0664,267.6a60.77,60.77,0,0,0-13.91,1.7386C297.1138,269.8378,297.9789,272.9911,300.0255,272.491Z"></path>
                <path d="M506.4394,454.8024c-3.3847-1.3138-3.3521-10.1783-.5039-22.3431l16.6725,4.8826C516.2541,449.0215,509.9574,456.1681,506.4394,454.8024Z"></path>
                <path d="M506.8739,453.2263c.4424.1855-.3839-.3352-.0457-.0555a1.3683,1.3683,0,0,1-.24-.2425c-.1507-.2116.2112.3236-.0524-.0683a3.5439,3.5439,0,0,1-.5832-1.3152,15.6572,15.6572,0,0,1-.47-4.4051,64.2834,64.2834,0,0,1,2.03-14.2459l-2.0107,1.1416,16.6724,4.8827-.9768-2.4012a69.1916,69.1916,0,0,1-8.61,12.9778,16.4509,16.4509,0,0,1-3.536,3.1988,4.018,4.018,0,0,1-1.3554.6037c-.0476.0134-.4342.0641-.2.0423s-.1394-.0041-.1855-.0056c-.4358-.0141.3463.0657-.0745.0007a2.0131,2.0131,0,0,1-.361-.1083c-1.9841-.7108-2.8383,2.4468-.869,3.1523,3.1561,1.1306,6.3822-1.88,8.3316-3.9572,3.9269-4.1834,6.9461-9.2451,9.6828-14.2545a1.6556,1.6556,0,0,0-.9768-2.4011L506.37,430.8831a1.6523,1.6523,0,0,0-2.0107,1.1416c-1.2216,5.2622-2.3248,10.7853-2.13,16.2164.1091,3.0393.6206,6.8145,3.7755,8.1375a1.6457,1.6457,0,0,0,2.0107-1.1417A1.6747,1.6747,0,0,0,506.8739,453.2263Z"></path>
                <path class="cls-4" d="M512.5517,411.4711c4.5466-11.7129,9.8211-21.7778,14.5324-28.314l12.46,4.7891,20.496,7.8776-18.89,46.9484-18.5419-5.43-16.6725-4.8826A159.7761,159.7761,0,0,1,512.5517,411.4711Z" fill="#FC7272"></path>
                <path d="M514.1278,411.9057c3.7846-9.7122,8.2723-19.4217,14.3677-27.9236l-1.8459.7511,27.0113,10.3818,5.945,2.2849-1.1417-2.0106-6.3733,15.8395L541.922,436.5015l-2.3483,5.8362,2.0107-1.1416-27.71-8.1154-7.5038-2.1976,1.1416,2.0107a160.5159,160.5159,0,0,1,6.6161-20.9881c.7592-1.9636-2.4-2.8139-3.1523-.8691a160.5207,160.5207,0,0,0-6.6161,20.9881,1.6678,1.6678,0,0,0,1.1416,2.0107l28.084,8.2247,7.13,2.0883a1.6792,1.6792,0,0,0,2.0107-1.1417l6.3733-15.8395,10.1689-25.2727,2.3483-5.8362a1.6648,1.6648,0,0,0-1.1416-2.0107l-25.2391-9.7006-7.7171-2.9661a1.66,1.66,0,0,0-1.8459.7512c-6.2617,8.7337-10.8106,18.73-14.6973,28.7045C510.2113,412.9979,513.3711,413.8477,514.1278,411.9057Z"></path>
                <path d="M237.98,466.9893l1.1151,10.6794a14.07,14.07,0,0,0,11.1532,12.3189l28.5248,5.88,106.7255-37.2952a14.92,14.92,0,0,0,9.557-17.6863l-.5955-2.3943-10.9715-9.8153"></path>
                <path d="M236.3456,466.9893l1.0627,10.1778c.6013,5.7582,3.7873,10.9331,9.2012,13.3352,2.5922,1.15,5.5105,1.5368,8.2718,2.106l13.0632,2.6929,9.7619,2.0122a4.1358,4.1358,0,0,0,2.5172-.2246l12.5528-4.3866,22.2868-7.7881,26.3127-9.195,24.2588-8.4772,16.4923-5.7632c1.1733-.41,2.3478-.817,3.52-1.23a16.918,16.918,0,0,0,9.6246-8.142,16.5691,16.5691,0,0,0,1.7461-9.4668,28.5222,28.5222,0,0,0-.7134-3.5049,3.728,3.728,0,0,0-.7883-1.8883c-2.5944-2.6624-5.6056-5.0149-8.3759-7.4933l-2.4956-2.2326c-1.5638-1.399-3.8835.9054-2.3116,2.3116l7.3913,6.6124a26.4538,26.4538,0,0,0,3.4123,3.0527c.5085.3086-.3514-.2614-.2449-.5406-.0914.24.2558,1.0283.32,1.2862a18.3876,18.3876,0,0,1,.6315,3.446A13.4292,13.4292,0,0,1,385.0531,457c-.7529.2711-1.511.5281-2.2664.792l-14.266,4.9853-22.5921,7.8948-25.7,8.9807-23.2741,8.1332-15.4032,5.3826a20.2325,20.2325,0,0,0-3.0484,1.0653c-.4834.267,1.3216.22.2557-.0351-1.1325-.2712-2.2872-.4714-3.4277-.7065l-23.0681-4.7553c-.812-.1673-1.6347-.3133-2.4351-.5309a12.45,12.45,0,0,1-7.1876-5.2531c-2.25-3.5152-2.1885-7.9457-2.6084-11.9666l-.4173-3.9972c-.2163-2.0714-3.4878-2.0936-3.2691,0Z"></path>
                <path class="cls-4" d="M367.9578,788.3757l6.0829,77.6089L480.5872,857.98s-.4553-30.3251-40.35-30.5917A14.3111,14.3111,0,0,1,426.01,814.035c-.615-9.4427-1.1675-18.582-1.1675-18.582" fill="#FC7272"></path>
                <path d="M366.3233,788.3757l2.0628,26.3192,3.2658,41.6668.7543,9.6229a1.6565,1.6565,0,0,0,1.6345,1.6345l10.6229-.7981,25.3823-1.907,30.8258-2.3161,26.555-1.9951c4.323-.3248,8.66-.571,12.977-.975.061-.0057.1224-.0092.1835-.0138a1.6654,1.6654,0,0,0,1.6346-1.6345c-.1062-6.4459-3.0458-13.106-6.952-18.0944a34.8773,34.8773,0,0,0-15.3906-10.9068,51.5193,51.5193,0,0,0-12.5487-2.83c-4.7419-.5168-9.7407.2523-13.944-2.4407a12.6994,12.6994,0,0,1-4.7339-5.5554c-1.266-2.888-1.1419-6.1631-1.3385-9.2486q-.4284-6.7245-.837-13.45c-.1265-2.09-3.3964-2.1048-3.2691,0q.3364,5.5626.6895,11.1244c.34,5.3811.0628,11.0668,3.34,15.6567a16.2107,16.2107,0,0,0,11.9524,6.7437c2.4748.1947,4.96.1247,7.4371.3665a52.5359,52.5359,0,0,1,6.782,1.1058c6.5465,1.52,12.7849,4.4663,17.4832,9.3579a29.582,29.582,0,0,1,6.7988,11.5726,32.4617,32.4617,0,0,1,1.1333,5.005c-.0777-.5312.0237.2067.0491.4587.02.2028.039.4058.0529.6092.0119.175.024.3505.0269.526l1.6345-1.6346-10.6228.7981L444.582,859.05l-30.8258,2.316-26.5549,1.9952-8.8245.663a31.5376,31.5376,0,0,0-4.1526.312,1.3968,1.3968,0,0,1-.1835.0138l1.6346,1.6345-2.0629-26.3193-3.2658-41.6667-.7542-9.6229c-.1633-2.0836-3.4338-2.1012-3.2691,0Z"></path>
                <path class="cls-3" d="M428.1928,820.6006c2.6913,3.1411,9.5365,7.1789,13.9712,7.2085,2.1948.0146,4.2663.1229,6.2346.3053L427.14,858.3868l-53.4876,5.3838-.7918-7.6155a4.4573,4.4573,0,0,1,4.1147-4.9069l23.31-1.6706a18.09,18.09,0,0,0,13.702-7.9251Z" fill="#FFFFFF"></path>
                <path d="M427.037,821.7564a25.4466,25.4466,0,0,0,9.17,6.2246,17.3851,17.3851,0,0,0,5.2448,1.4249c2.3057.2024,4.6352.1359,6.9469.343l-1.4113-2.46-18.6085,26.4991-2.65,3.7733,1.4113-.8095-18.0678,1.8186L380.27,861.47l-6.6171.666,1.6345,1.6346c-.2516-2.42-.5217-4.8388-.7549-7.2606-.1364-1.4172.2215-2.8306,1.6738-3.4318a5.3742,5.3742,0,0,1,1.7044-.2624l16.7675-1.2018c1.828-.131,3.6567-.2547,5.4842-.3931a20.2546,20.2546,0,0,0,11.6125-4.6737,25.8038,25.8038,0,0,0,4.6378-5.5722l4.3635-6.4665,8.828-13.0829c1.18-1.7486-1.6509-3.3865-2.8227-1.65l-7.59,11.2478-4.87,7.2179a36.922,36.922,0,0,1-3.1146,4.3223,16.6537,16.6537,0,0,1-11.0442,5.3881c-1.9.1439-3.8007.2724-5.701.4086L377.76,849.5575a8.2434,8.2434,0,0,0-3.2033.6979,6.1492,6.1492,0,0,0-3.3287,5.91c.1815,2.5379.5275,5.0737.7907,7.6048.0841.8089.6834,1.73,1.6346,1.6345l13.72-1.381,25.7158-2.5884c4.6581-.4688,9.42-.6938,14.0478-1.4139,1.0326-.1607,1.4149-.8095,1.95-1.5714l2.017-2.8723,6.7162-9.5641c3.9127-5.5718,8.0508-11.0445,11.7638-16.752.0715-.11.1511-.2153.2265-.3226.7774-1.107-.2937-2.3594-1.4114-2.4595-2.1735-.1948-4.3392-.2046-6.5149-.3123a13.286,13.286,0,0,1-4.4174-1.1771,22.5918,22.5918,0,0,1-8.1177-5.5457C427.9569,817.8616,425.6523,820.1812,427.037,821.7564Z"></path>
                <path class="cls-3" d="M465.0505,832.4087a32.0093,32.0093,0,0,1,18.5271,26.7985l-52.6206-.7649,10.0709-1.94,15.7869-22.0143A6.6082,6.6082,0,0,1,465.0505,832.4087Z" fill="#FFFFFF"></path>
                <path d="M464.2256,833.82a31.2649,31.2649,0,0,1,13.69,12.3856,32.0377,32.0377,0,0,1,3.85,11.0515c.0134.0841.0247.1685.0367.2528.034.24-.05-.4057-.0037-.0215.0168.141.034.2819.049.423.0242.2262.0458.4527.0624.68.015.2049.03.4105.0332.6161l1.6346-1.6345-17.83-.2592-28.274-.411-6.5167-.0947.4345,3.2107,8.9283-1.72a2.8992,2.8992,0,0,0,2.23-1.1252c.5-.68.9842-1.3724,1.4761-2.0584l12.4264-17.3281c.5619-.7836,1.1012-1.5911,1.6892-2.3556a5.06,5.06,0,0,1,6.0843-1.611c1.9049.85,3.57-1.9663,1.65-2.8228a8.4179,8.4179,0,0,0-10.5252,2.74c-.9209,1.2536-1.8136,2.5289-2.72,3.793l-10.2974,14.3594-2.7163,3.7878.9768-.7512-10.0708,1.94c-1.85.3564-1.3615,3.1846.4345,3.2107l17.83.2591,28.274.411,6.5167.0948a1.6541,1.6541,0,0,0,1.6345-1.6346c-.1334-7.7307-4.1025-15.718-9.4021-21.1539a35.3388,35.3388,0,0,0-9.9345-7.056C463.99,830.0845,462.33,832.9025,464.2256,833.82Z"></path>
                <polygon class="cls-3" points="427.14 858.387 430.957 858.442 426.498 859.301 427.14 858.387" fill="#FFFFFF"></polygon>
                <path d="M427.14,860.0214l3.34.0485.4767.007-.4345-3.2107-3.8961.7506-.5627.1084,1.8459,2.4012.6422-.9146a1.6349,1.6349,0,0,0-1.8459-2.4011,1.8428,1.8428,0,0,0-.9768.7511l-.6423.9146a1.5852,1.5852,0,0,0-.2231.825,1.6194,1.6194,0,0,0,.3509.99,1.6726,1.6726,0,0,0,1.7181.5857l3.8961-.7506.5627-.1084a1.6322,1.6322,0,0,0,.9769-.7512,1.6841,1.6841,0,0,0,.1939-1.0422,1.6352,1.6352,0,0,0-1.6053-1.4173l-3.34-.0486-.4767-.0069a1.6346,1.6346,0,0,0,0,3.2691Z"></path>
                <path class="cls-3" d="M398.9241,866.1105a4.06,4.06,0,0,1,4.2219,3.89l.1571,3.8405,81.9191-6.269s-.1282-9.3507-3.0766-15.5747l-108.6516,7.68.6254,16.4563,21.0839-1.6563-.17-4.1452A4.06,4.06,0,0,1,398.9241,866.1105Z" fill="#FFFFFF"></path>
                <path d="M398.9241,867.7451c3.2176-.0015,2.6546,3.9,2.7445,6.0962a1.6518,1.6518,0,0,0,1.6345,1.6346l27.8342-2.13,44.0134-3.3682,10.0715-.7708a1.6659,1.6659,0,0,0,1.6346-1.6345,41.1286,41.1286,0,0,0-3.3-16.4,1.5862,1.5862,0,0,0-1.4114-.81l-10.8568.7675-25.9351,1.8332L414.001,855.18l-27.1095,1.9163c-4.3989.3109-8.8133.5377-13.2056.9334-.0638.0058-.128.0091-.1919.0136a1.6611,1.6611,0,0,0-1.6345,1.6345l.6254,16.4563a1.6512,1.6512,0,0,0,1.6345,1.6346l21.0839-1.6564a1.6618,1.6618,0,0,0,1.6346-1.6345c-.0858-2.0967-1.0836-6.4745,2.0862-6.7327,2.0823-.17,2.1-3.44,0-3.2691a5.8,5.8,0,0,0-5.525,5.69c-.0254,1.4321.1111,2.8806.17,4.3118l1.6345-1.6346L374.1194,874.5l1.6346,1.6345-.6254-16.4563-1.6346,1.6346,10.8568-.7675,25.9351-1.8332,31.3527-2.2163,27.11-1.9163,8.9711-.6341a30.8753,30.8753,0,0,0,4.2345-.2993,1.3892,1.3892,0,0,1,.1919-.0136l-1.4114-.81c2.0728,4.4843,2.7775,9.8362,2.8535,14.75l1.6345-1.6345-27.8342,2.13-44.0134,3.3682-10.0715.7708,1.6346,1.6345c-.0567-1.3857-.0423-2.7927-.1842-4.1726a5.7741,5.7741,0,0,0-5.8294-5.1927A1.6355,1.6355,0,0,0,398.9241,867.7451Z"></path>
                <path d="M450.718,852.5878c-5.9525.2316-11.6214,4.1292-14.74,9.03a25.3907,25.3907,0,0,0-3.4017,9.135,1.68,1.68,0,0,0,1.1416,2.0107,1.6488,1.6488,0,0,0,2.0107-1.1417c.8554-4.74,2.78-9.1008,6.4233-12.1641a14.5367,14.5367,0,0,1,1.9563-1.3743,18.7778,18.7778,0,0,1,2.1031-1.078c-.3925.1722.1261-.05.22-.0865q.2409-.0941.4842-.1814.4548-.163.9178-.3021.78-.2341,1.58-.3965c.23-.0464.4616-.0849.6932-.124.5182-.0875-.3756.029.1439-.019.1558-.0144.3113-.0332.4678-.0393,2.0968-.0816,2.1074-3.3511,0-3.2691Z"></path>
                <path class="cls-4" d="M231.9364,732.9427l-45.315,63.2985,86.6775,62.476s19.1766-23.4962-11.1767-49.3867a14.311,14.311,0,0,1-2.2886-19.3772c5.6092-7.621,11.0709-14.97,11.0709-14.97" fill="#FC7272"></path>
                <path d="M230.525,732.1177l-15.3675,21.4662-24.3288,33.9838-5.6187,7.8485a1.6661,1.6661,0,0,0,.5864,2.2364l8.6419,6.2289,20.6489,14.8835L240.1646,836.84l21.6029,15.5711,7.1789,5.1745c1.1158.8042,2.2075,1.711,3.3782,2.4349.0518.032.1.072.1493.1076a1.6319,1.6319,0,0,0,1.9808-.2555c4.4885-5.52,6.6443-13.3146,6.4414-20.3245a37.0041,37.0041,0,0,0-7.2491-20.2437,66.1229,66.1229,0,0,0-10.369-11.13,13.0236,13.0236,0,0,1-4.5659-10.4618,12.5562,12.5562,0,0,1,2.0216-6.1906c1.6253-2.5249,3.5647-4.8879,5.35-7.3024q3.1116-4.209,6.2325-8.4113c1.2557-1.69-1.5806-3.3214-2.8228-1.65q-2.4777,3.3341-4.9475,6.674-2.4032,3.2475-4.8,6.5a22.5485,22.5485,0,0,0-3.4646,5.9273,16.0671,16.0671,0,0,0,.6554,11.8913c1.9962,4.3843,6.24,7.0657,9.4611,10.4755,5.3856,5.7015,9.6979,12.6288,10.9264,20.479a29.4454,29.4454,0,0,1-1.6891,14.96,30.0133,30.0133,0,0,1-2.4387,4.9212c-.2895.47-.5916.9325-.9138,1.3806a4.032,4.032,0,0,0-.28.38c-.0767.14.3317-.4188.1414-.1847l1.9808-.2556-8.6419-6.229-20.649-14.8835-25.0774-18.0754-21.6029-15.5711-7.1789-5.1744a36.3453,36.3453,0,0,0-3.3782-2.435,1.6152,1.6152,0,0,1-.1493-.1076l.5864,2.2364L203.4,775.6l24.3288-33.9838,5.6186-7.8485c1.2268-1.7135-1.6074-3.3477-2.8227-1.65Z"></path>
                <path class="cls-3" d="M257.2764,796.3823c.0368,4.1363,2.6746,11.633,6.0487,14.511,1.67,1.4244,3.1852,2.841,4.5738,4.2479l-35.7567,9.4754L187.75,794.2973l4.2975-6.3367a4.4573,4.4573,0,0,1,6.3077-1.1051l18.9109,13.73a18.09,18.09,0,0,0,15.5866,2.7584Z" fill="#FFFFFF"></path>
                <path d="M255.6418,796.3823a25.8433,25.8433,0,0,0,2.9239,10.6482,17.6077,17.6077,0,0,0,3.0046,4.4524c1.6311,1.6876,3.514,3.1435,5.1728,4.8141l.7213-2.732-31.3,8.2943-4.457,1.1811,1.2595.1648-14.9954-10.2417-23.9048-16.3267-5.4919-3.7508.5864,2.2363c1.3427-1.98,2.6589-3.98,4.0292-5.9411a2.9647,2.9647,0,0,1,3.5511-1.3624,6.9456,6.9456,0,0,1,1.4638.9383l13.3328,9.68c1.5756,1.144,3.1476,2.2932,4.727,3.432a19.9022,19.9022,0,0,0,12.1219,3.7955,27.5766,27.5766,0,0,0,6.8448-1.2991l7.6514-2.1808,14.8275-4.2262a1.636,1.636,0,0,0-.8691-3.1524l-12.81,3.6513L235.5,800.889a43.7131,43.7131,0,0,1-5.1017,1.3312,16.85,16.85,0,0,1-12.4834-3.1739c-1.5794-1.1388-3.1514-2.288-4.7271-3.432l-13.4115-9.7371c-3.0183-2.1914-6.8935-1.8985-9.1466,1.2673-1.4766,2.0747-2.8621,4.22-4.2915,6.3279a1.6642,1.6642,0,0,0,.5864,2.2363l11.3871,7.7773L219.563,818l8.2724,5.65a33.0714,33.0714,0,0,0,3.4767,2.3745,2.8813,2.8813,0,0,0,2.2062-.0813l3.4329-.91,11.3342-3.0035c6.5495-1.7356,13.16-3.3234,19.667-5.2117.1261-.0366.2541-.0673.3811-.101a1.65,1.65,0,0,0,.7212-2.7319c-1.5345-1.5454-3.1807-2.9478-4.7754-4.426a13.62,13.62,0,0,1-2.7347-3.8688,22.1872,22.1872,0,0,1-2.6337-9.3083C258.8666,794.2816,255.5973,794.2743,255.6418,796.3823Z"></path>
                <path class="cls-3" d="M277.8751,829.1484a32.0091,32.0091,0,0,1-3.0787,32.4335l-39.77-34.4655,8.955,5,26.2533-6.6795A6.6084,6.6084,0,0,1,277.8751,829.1484Z" fill="#FFFFFF"></path>
                <path d="M276.4637,829.9734a30.5761,30.5761,0,0,1-1.4016,28.27c-.3654.6235-.7516,1.2357-1.1678,1.8266-.1147.1629-.2564.32-.3575.4915-.1157.196.3106-.39.1038-.1356h2.3116l-13.4755-11.6782-21.3691-18.519-4.9252-4.2683-1.9808,2.5672,7.939,4.4324a3.2607,3.2607,0,0,0,2.459.6853c.8752-.1887,1.7414-.4431,2.609-.6638l20.6683-5.2585c.8955-.2279,1.7886-.4737,2.6884-.684a5.1025,5.1025,0,0,1,5.8984,2.9342c.918,1.8924,3.738.2368,2.8228-1.65a8.3717,8.3717,0,0,0-9.59-4.4365c-1.54.3641-3.0689.7808-4.6021,1.1709l-17.03,4.3328L243.547,830.54l1.26.1648-8.9549-5c-1.5642-.8733-3.43,1.3115-1.9808,2.5672L247.3464,839.95l21.369,18.519,4.9252,4.2683a1.6534,1.6534,0,0,0,2.3116,0c4.9344-6.0785,7.1372-14.7834,6.5061-22.4731a36.5443,36.5443,0,0,0-3.1718-11.9412C278.4313,826.4056,275.6135,828.0665,276.4637,829.9734Z"></path>
                <polygon class="cls-3" points="232.142 824.617 235.027 827.116 231.062 824.903 232.142 824.617" fill="#FFFFFF"></polygon>
                <path d="M230.9864,825.7724l2.525,2.1883.3594.3115,1.9808-2.5672-3.47-1.9371-.4951-.2764-.39,2.9875,1.08-.2862a1.6857,1.6857,0,0,0,.9768-.7512,1.6348,1.6348,0,0,0-1.8459-2.4012l-1.08.2863a1.6446,1.6446,0,0,0-.3905,2.9875l3.47,1.9372.495.2764a1.6429,1.6429,0,0,0,2.1086-.421,1.6223,1.6223,0,0,0-.1278-2.1462l-2.525-2.1883-.3594-.3115a1.7367,1.7367,0,0,0-1.1558-.4788,1.6633,1.6633,0,0,0-1.1558.4788,1.6445,1.6445,0,0,0-.4788,1.1558A1.6218,1.6218,0,0,0,230.9864,825.7724Z"></path>
                <path class="cls-3" d="M205.58,812.3589a4.06,4.06,0,0,1,.7256,5.695l-2.3526,3.04,66.7163,47.9477s5.9224-7.2371,7.6739-13.8978l-88.0791-64.08-10.117,12.9941,17.1987,12.3078,2.5391-3.2809A4.06,4.06,0,0,1,205.58,812.3589Z" fill="#FFFFFF"></path>
                <path d="M204.4238,813.5147c2.5524,2.1551-.1777,4.5505-1.627,6.4231a1.6739,1.6739,0,0,0,.3309,2.5672l22.6686,16.2915,35.8452,25.7613,8.2024,5.8949a1.6322,1.6322,0,0,0,1.9808-.2556c3.4791-4.2672,6.6343-9.2794,8.0942-14.619a1.692,1.692,0,0,0-.7511-1.846l-8.8012-6.403-21.0244-15.2959-25.4163-18.491L201.95,797.5537l-7.2725-5.2909c-1.1338-.8249-2.2428-1.7539-3.4327-2.4974-.054-.0337-.1041-.0757-.1556-.1132a1.63,1.63,0,0,0-1.9808.2556l-10.117,12.9941a1.6733,1.6733,0,0,0,.3308,2.5672L196.52,817.7768a1.6306,1.6306,0,0,0,1.9808-.2555c1.478-1.91,3.4114-5.7634,6.2534-3.751,1.72,1.2181,3.3551-1.6154,1.65-2.8227a5.7366,5.7366,0,0,0-7.6818.9889c-.8838,1.0552-1.6907,2.1845-2.5332,3.2732l1.9808-.2556-17.1987-12.3078.3308,2.5672,10.117-12.9941-1.9808.2556,8.8012,6.403,21.0244,15.2959,25.4163,18.491,21.9764,15.9885,7.2725,5.291a38.7952,38.7952,0,0,0,3.4327,2.4973,1.7721,1.7721,0,0,1,.1556.1132l-.7512-1.8459a33.1119,33.1119,0,0,1-4.3288,9.0554q-1.0161,1.58-2.1338,3.0908-.1753.2369-.3532.4718-.1.132-.201.2633.1646-.2127.0125-.0177a2.5483,2.5483,0,0,1-.2492.3129l1.9808-.2555-22.6687-16.2916L212.98,825.5771l-8.2024-5.8949.3308,2.5672c.8266-1.068,1.6691-2.1254,2.48-3.2051a5.7375,5.7375,0,0,0-.8534-7.8412C205.1373,809.8538,202.8135,812.1551,204.4238,813.5147Z"></path>
                <path d="M254.02,835.4551a17.884,17.884,0,0,0-7.9569-3.3275c-6.6675-1.0953-12.849,1.4344-17.953,5.6424-1.6245,1.3393.7,3.64,2.3116,2.3116,4.2522-3.5057,9.6855-5.7822,15.2543-4.7162a16.4011,16.4011,0,0,1,4.5117,1.527,15.18,15.18,0,0,1,1.3174.7594c.1855.1207.908.6607.2033.1149a1.6917,1.6917,0,0,0,2.3116,0,1.6437,1.6437,0,0,0,0-2.3116Z"></path>
                <path class="cls-5" d="M375.4112,433.1636l26.7012,87.8585A137.876,137.876,0,0,1,376.413,649.0186L269.86,778.1233l-60.67-52.0148s95.8652-145.31,123.2858-173.2192l-58.25-111.622,14.325-55.22" fill="#458DC9"></path>
                <path d="M373.8351,433.5981l6.99,23,12.8727,42.3568c2.3417,7.7051,4.7192,15.4,7.0238,23.1166a136.2872,136.2872,0,0,1-25.9013,126.32q-6.4659,7.8362-12.9335,15.6709l-24.88,30.1455L308.0389,729.308l-25.1812,30.5107-13.5187,16.38-.6345.7689h2.3116l-20.5314-17.6024L217.9,731.4293l-7.5544-6.4766.2556,1.9808q4.8312-7.3225,9.7084-14.6146,12.06-18.0786,24.2591-36.0636,15.6147-23.0174,31.5108-45.8424c10.3138-14.7725,20.7309-29.4785,31.4633-43.9509,7.6415-10.3043,15.3186-20.7424,23.9994-30.2094q1.0272-1.12,2.0892-2.2075a1.6819,1.6819,0,0,0,.2556-1.9808L314.215,514.3672,282.85,454.2632l-7.2124-13.8208.1648,1.26,12.5622-48.4249,1.7628-6.7953c.5286-2.0379-2.6236-2.9072-3.1523-.8691l-9.85,37.9693c-1.4418,5.5582-3.0154,11.1-4.33,16.69-.4581,1.9486,1.0978,3.8866,1.9773,5.5722l18.06,34.6074,24.114,46.2087,9.2166,17.6614,3.083,5.9078a26.5775,26.5775,0,0,0,1.6061,3.0778,3.5079,3.5079,0,0,1,.2123.4068l.2556-1.9808c-8.3859,8.5572-15.581,18.3846-22.7646,27.9408-10.6178,14.1246-20.8738,28.5215-31.025,42.9837q-16.1445,23.0009-31.9194,46.2583-12.93,19.0058-25.6991,38.1207-4.1018,6.1383-8.1862,12.2882c-1.2435,1.8728-2.7192,3.7276-3.7838,5.7111-.0461.0859-.1095.1657-.1633.2472a1.6424,1.6424,0,0,0,.2556,1.9808l20.5314,17.6024L261.15,772.8025l7.5544,6.4766a1.6551,1.6551,0,0,0,2.3116,0l9.5783-11.6056,23.3489-28.2907,28.9183-35.0388,26.6823-32.33,16.2522-19.692a149.1658,149.1658,0,0,0,23.9367-39.4352,140.0394,140.0394,0,0,0,8.4251-72.4245c-1.68-11.3284-5.1558-22.1338-8.472-33.0456l-12.5624-41.3357L377.5012,434.42l-.5138-1.6908c-.61-2.0073-3.7664-1.1517-3.1523.8691Z"></path>
                <path class="cls-5" d="M252.2449,401.5848l-13.0846,32.45c-5.9418,22.0514-2.0936,57.5724,16.8835,88.7885l80.737,109.1038c-1.3918,39.1012,18.4518,166.3754,18.4518,166.3754L443.97,795.543l-5.4559-156.6365a149.2459,149.2459,0,0,0-36.1413-92.2839l-59.5425-69.032a49.6506,49.6506,0,0,1-11.8858-36.5061l3.071-37.2722" fill="#458DC9"></path>
                <path d="M250.6688,401.15l-6.0263,14.9453c-2.3115,5.7323-4.8718,11.424-6.9535,17.2445A52.1683,52.1683,0,0,0,235.5,445.0849a101.4258,101.4258,0,0,0-.3392,17.1268,132.4,132.4,0,0,0,8.3541,38.5277,138.2863,138.2863,0,0,0,9.1294,19.5264,40.7856,40.7856,0,0,0,2.5866,4.1917l5.8247,7.8712,24.1372,32.6178,28.8945,39.0465,19.38,26.1891a17.3531,17.3531,0,0,0,1.6994,2.2966c.4927.4675-.2156.09-.033-.1884-.2153.3282-.0376,1.4972-.0435,1.8887q-.0159,1.0731-.0143,2.1463c.0054,7.0038.4153,14.0079.9165,20.9914,1.3207,18.4012,3.4077,36.7492,5.6529,55.0574q3.317,27.0459,7.2169,54.0167,2.2067,15.4411,4.5641,30.8605.1145.7429.23,1.4856a1.6364,1.6364,0,0,0,1.5762,1.2l29.9482-.9313,47.7726-1.4855,11.0168-.3426a1.6564,1.6564,0,0,0,1.6345-1.6345l-.6389-18.343-1.493-42.8636-1.7052-48.9557L440.47,648.1314c-.4-11.4733-.9767-22.8444-3.2718-34.1515a151.8611,151.8611,0,0,0-33.7641-68.6227q-9.9272-11.53-19.8753-23.0429L352.9525,486.83l-8.3312-9.6591a49.1014,49.1014,0,0,1-11.8691-26.2019c-.7838-6.5729.1019-13.2207.6425-19.7819l1.88-22.8214.3752-4.5535c.1727-2.0967-3.0973-2.0853-3.2691,0l-2.9692,36.0358a52.7552,52.7552,0,0,0,6.49,30.7608,76.1283,76.1283,0,0,0,8.91,11.7745l27.0226,31.3292,26.6663,30.9163c3.6192,4.1959,7.1887,8.4177,10.4375,12.9159a147.9683,147.9683,0,0,1,19.3043,36.54c5.6786,15.8092,8.1965,32.1623,8.7789,48.8848l1.0966,31.4811,1.6691,47.9211,1.6038,46.046.9016,25.8853.0432,1.24,1.6346-1.6346-29.9483.9313-47.7726,1.4856-11.0167.3425,1.5761,1.2c-1.1207-7.19-2.1856-14.3886-3.2385-21.5886q-3.6612-25.035-6.921-50.1269c-2.4366-18.8995-4.7052-37.83-6.4087-56.8114-.7074-7.8835-1.3229-15.78-1.6659-23.6885-.1387-3.1988-.2325-6.4007-.2291-9.6027.0016-1.5523.4742-3.79-.3057-5.1536a67.86,67.86,0,0,0-4.621-6.2447l-9.7464-13.1708-27.4976-37.1588-26.89-36.3381-8.6382-11.6733c-1.272-1.7189-2.6473-3.3935-3.7444-5.2317-13.3288-22.3314-20.9265-49.6534-18.16-75.7413a48.04,48.04,0,0,1,2.1308-11.2064c.805-2.2071,1.7622-4.37,2.6407-6.549l8.5585-21.2252,1.7491-4.3376c.7865-1.9506-2.3743-2.7987-3.1523-.8691Z"></path>
                <path d="M443.1236,769.6036l-9.0872.19-21.6917.4528-26.2338.5477-22.7992.4759c-3.6767.0768-7.3852.0189-11.0574.2309-.0543.0031-.1093.0022-.1638.0034-2.1007.0438-2.108,3.3131,0,3.2691l9.0872-.19,21.6917-.4529,26.2338-.5476,22.7992-.476c3.6767-.0768,7.3852-.0189,11.0574-.2308.0544-.0032.1093-.0023.1638-.0035,2.1007-.0438,2.108-3.3131,0-3.2691Z"></path>
                <path d="M286.4362,758.2837,264.95,740.5592l-34.19-28.204-7.7717-6.4111c-1.6109-1.3289-3.9364.9713-2.3116,2.3116L242.1631,725.98l34.19,28.204,7.7717,6.411c1.6109,1.329,3.9364-.9712,2.3116-2.3116Z"></path>
                <path class="cls-3" d="M297.7189,274.3911,244.034,287.7443c-8.7417,2.1743-12.41,6.9251-12.9708,20.6875,0,0-6.0344,117.7521,9.1438,175.8479,84.25-38.5176,154.2532-45.7879,154.2532-45.7879L337.0334,326.7406" fill="#FFFFFF"></path>
                <path d="M297.2844,272.815l-14.2067,3.5336L256.84,282.8747c-4.7949,1.1927-9.6695,2.2191-14.4126,3.61-4.4777,1.3132-8.3279,3.9038-10.349,8.223-2.0154,4.307-2.4362,9.1609-2.6561,13.85q-.2328,4.9626-.4087,9.9273-.4034,11.3515-.5887,22.71-.2646,15.6859-.1356,31.3755c.1054,11.9759.3967,23.9515.9512,35.9154.5645,12.1825,1.3928,24.3586,2.6884,36.4865a307.9744,307.9744,0,0,0,5.0388,32.7643q.7625,3.5052,1.6631,6.9783a1.66,1.66,0,0,0,2.4011.9768q23.1189-10.5573,47.0968-19.0664,20.42-7.2558,41.3329-13.0139,16.5279-4.5462,33.3119-8.0858c7.4716-1.5648,14.9791-2.971,22.5229-4.1418q1.8408-.2858,3.6848-.55.7619-.1091,1.5244-.2137c.1374-.0189.7392-.1.4867-.0663-.2462.033.336-.0444.4721-.0622.9566-.1253,1.9147-.2359,2.8725-.3512.041-.005.0821-.009.1232-.0132a1.659,1.659,0,0,0,1.4113-2.46L390.1744,426.58,376.4329,399.84l-16.5716-32.2478-14.37-27.9637c-2.3051-4.4856-4.4114-9.1644-6.95-13.5244-.0352-.0606-.0645-.1256-.0966-.188-.9619-1.8718-3.7836-.22-2.8227,1.65l5.6971,11.0865,13.7415,26.7407,16.5716,32.2479,14.37,27.9637,4.69,9.1272a45.3964,45.3964,0,0,0,2.26,4.3972,1.9578,1.9578,0,0,1,.0966.188l1.4114-2.4595c-2.6579.2767-5.3072.6643-7.95,1.057-7.0857,1.0531-14.1384,2.33-21.16,3.7491q-16.1691,3.2681-32.1145,7.5384-20.6442,5.4949-40.8544,12.4769-23.8211,8.22-46.8889,18.439-3.0634,1.3575-6.1109,2.7507l2.4011.9768a242.8793,242.8793,0,0,1-5.63-30.6714c-1.4938-11.7827-2.4672-23.629-3.162-35.4838-.7043-12.0183-1.1107-24.0534-1.3165-36.09q-.2795-16.3382-.0879-32.68.1367-12.6291.5238-25.2539c.1423-4.6047.3069-9.2091.5189-13.8113.279-6.0592.3687-13.9528,5.7506-17.925a19.61,19.61,0,0,1,7.1324-2.8688l7.344-1.8267,25.1812-6.2634,19.108-4.7527,1.0074-.2506c2.0405-.5075,1.1761-3.661-.869-3.1523Z"></path>
                <path class="cls-6" d="M235.2018,458.2728,381.743,413.7445l-22.9652-44.69L230.85,407.9268C231.6379,425.19,232.99,442.6108,235.2018,458.2728Z" fill="#389B48"></path>
                <path d="M235.6363,459.849l14.6631-4.4556,34.9526-10.6208L327.5,431.935l36.7135-11.1559c5.8983-1.7922,11.8645-3.4412,17.7158-5.3831.0819-.0272.1654-.05.2479-.0754a1.6587,1.6587,0,0,0,.9769-2.4011l-7.7784-15.1366L363.04,373.7761l-2.85-5.5466a1.65,1.65,0,0,0-1.8459-.7512l-12.7586,3.8769-30.6266,9.3062L278.1689,391.84l-32.0108,9.7268c-5.1689,1.5706-10.41,2.9971-15.5311,4.7193-.07.0235-.1411.0429-.2115.0643a1.6643,1.6643,0,0,0-1.2,1.5761c.78,16.9751,2.0443,33.9469,4.41,50.7806a1.6464,1.6464,0,0,0,2.0107,1.1416,1.676,1.676,0,0,0,1.1416-2.0107c-2.3246-16.54-3.5271-33.2331-4.2933-49.9115l-1.2,1.5762,12.7586-3.8768L274.67,396.32l36.7893-11.1788,32.0107-9.7269,10.4915-3.188a45.2241,45.2241,0,0,0,5.04-1.5313,1.8909,1.8909,0,0,1,.2114-.0643l-1.8459-.7511,7.7784,15.1366,12.3365,24.0067,2.85,5.5467.9769-2.4012-14.6631,4.4556-34.9527,10.6208-42.2483,12.8376L252.731,451.2382c-5.8984,1.7923-11.8645,3.4412-17.7159,5.3832-.0818.0271-.1653.05-.2479.0753C232.76,457.3067,233.6155,460.463,235.6363,459.849Z"></path>
                <path class="cls-4" d="M528.04,438.9329l8.769,2.8346a18.4238,18.4238,0,0,0,16.1894-2.4073l.1341-.0934h0a14.3567,14.3567,0,0,1,15.6532,2.0154l2.5994,2.2344c5.0117,6.26,11.1,6.4129,14.6645,1.2624,3.17,2.9043,13.3365.3932,15.8441-5.2853,12.9411,3.1663,14.1273-6.4732,14.1273-6.4732,17.6946,2.9011,12.862-11.0928,12.862-11.0928L608.95,392.5222a22.846,22.846,0,0,0-23.3023-4.9967l-25.68,8.2942-12.3228-4.76" fill="#FC7272"></path>
                <path d="M527.6058,440.5091l7.7336,2.5a21.1078,21.1078,0,0,0,13.6654.191c2.4968-.875,4.5428-2.6143,7.0864-3.3071a12.8889,12.8889,0,0,1,7.8294.3691,16.1644,16.1644,0,0,1,4.9166,3.2135c1.6181,1.3908,2.93,3.0755,4.651,4.3489a10.2383,10.2383,0,0,0,7.5106,2.1456,9.805,9.805,0,0,0,6.4625-4.366l-2.5671.3308c2.5945,2.244,6.5379,1.931,9.6212,1.0367,3.5346-1.0252,7.1872-3.2013,8.79-6.6528l-1.8459.7512c4.5477,1.0766,9.9427,1.2,13.4472-2.4075a10.0345,10.0345,0,0,0,2.7492-5.6419l-2.0691,1.5761c4.9088.7778,11.8322,1.0256,14.4945-4.1906a11.8246,11.8246,0,0,0,.4867-8.5562c-.5361-1.7926-2.1-3.4413-3.13-4.9614l-8.434-12.4413-7.4392-10.974c-.4359-.643-.8376-1.34-1.3317-1.9413a18.0774,18.0774,0,0,0-5.16-3.8647,24.5011,24.5011,0,0,0-18.3572-2.1879c-1.2359.3413-2.4567.7781-3.6771,1.1723l-13.7305,4.4347-6.6973,2.1632-2.1013.6786a3.1812,3.1812,0,0,0-.958.31c.1933-.1866,1.1047.2552.6527-.07a4.4649,4.4649,0,0,0-.94-.363l-2.98-1.1511-6.9242-2.6748-1.2816-.4951c-1.9638-.7586-2.8141,2.4009-.869,3.1523l10.89,4.2069a3.8176,3.8176,0,0,0,2.7376.4128c1.4158-.4174,2.814-.9089,4.2185-1.3625l14.1558-4.5721a94.2523,94.2523,0,0,1,9.8915-3.0519,21.3279,21.3279,0,0,1,11.5755.9539c2.41.888,5.4135,2.47,7.0122,4.35a30.9142,30.9142,0,0,1,1.85,2.7282l3.5,5.1633c4.7157,6.9564,9.2439,14.0919,14.1692,20.9018.277.383.1821.52.1007.0056.0344.2174.1331.4409.1875.6548a13.8674,13.8674,0,0,1,.2881,1.4774c-.0664-.47.0286.3477.04.5184.0242.37.0326.742.0211,1.113a6.0179,6.0179,0,0,1-1.1356,3.495,7.17,7.17,0,0,1-5.1961,2.1206,23.4326,23.4326,0,0,1-5.0591-.3061,1.6739,1.6739,0,0,0-2.0691,1.5762c.0753-.5886.0637-.34-.0235-.0018-.0825.32-.1732.6323-.2776.9458-.03.09-.0658.1783-.1.2669-.1289.3363.119-.2484-.0291.0662-.1173.2492-.24.4949-.3774.7337a5.4837,5.4837,0,0,1-.866,1.1949c-2.5748,2.7669-6.87,2.5234-10.385,1.6914a1.6613,1.6613,0,0,0-1.8459.7512c-1.2209,2.6291-3.8687,4.235-6.5577,5.0668-1.9023.5885-5.1743,1.2238-6.7192-.1124a1.667,1.667,0,0,0-2.5672.3308,6.1491,6.1491,0,0,1-4.9393,2.8544c-2.3547-.0134-4.4365-1.505-6.0064-3.1343-2.6345-2.7343-5.4111-5.338-9.08-6.629a16.0342,16.0342,0,0,0-7.9063-.6255,15.6177,15.6177,0,0,0-3.69,1.1135c-1.0579.46-1.9629,1.1787-2.9924,1.704a17.3129,17.3129,0,0,1-13.3869.7582l-8.1623-2.6386c-2.0065-.6486-2.8659,2.5069-.8691,3.1524Z"></path>
                <path class="cls-7" d="M261.6258,557.5122c-.8221-.5543-1.6619-1.0889-2.51-1.6145a93.6231,93.6231,0,0,0,8.34-41.8543c-.9835-25.5972-13.0932-51.306-33.1209-67.5068-19.1646-15.5027-44.6314-24.3489-69.3948-20.9083-13.9655,1.94-26.9551,5.9907-39.03,13.4806-11.5506,7.1646-20.53,16.795-28.1542,27.8794-10.639,15.4662-15.7093,34.6573-15.0993,53.5365a102.5748,102.5748,0,0,0-11.1355,5.26,87.7362,87.7362,0,0,0-22.6357,18.1869,88.659,88.659,0,0,0-15.5892,23.9232,107.4924,107.4924,0,0,0-5.6807,16.3242,106.3125,106.3125,0,0,0-2.3878,17.2876c-1.533,19.5086,4.7657,40.6624,15.9213,56.6474,12.392,17.7567,29.9157,30.0435,50.4639,36.5307a69.0823,69.0823,0,0,0,12.5659,2.6882,99.3257,99.3257,0,0,0,19.009.8862,94.2987,94.2987,0,0,0,18.15-3.1113,87.911,87.911,0,0,0,9.9742,9.9941,98.4332,98.4332,0,0,0,34.0839,18.67c23.8546,7.7775,50.0105,3.6389,71.81-7.97,21.3225-11.355,36.24-31.9717,43.3978-54.67,7.5485-23.9359,3.3408-50.2975-8.6077-71.99C284.7724,576.0686,273.9064,565.79,261.6258,557.5122ZM247.54,660.2762a70.5172,70.5172,0,0,1-7.5092,8.25,70.0127,70.0127,0,0,1-9.6868,6.2125,71.2728,71.2728,0,0,1-11.174,3.49,70.132,70.132,0,0,1-11.4666.4089,70.5344,70.5344,0,0,1-10.9224-2.5188,70.9809,70.9809,0,0,1-9.8666-5.1733,70.5189,70.5189,0,0,1-8.2876-7.5555,70.5326,70.5326,0,0,1-7.147-11.5115c-2.4436-4.9408-9.86-9.6478-15.1268-10.6227a27.0084,27.0084,0,0,0-18.77,3.2788c-.5163.2855-1.038.5582-1.5591.8323a71.5626,71.5626,0,0,1-11.249,3.5314,70.0166,70.0166,0,0,1-11.4928.4111,70.541,70.541,0,0,1-10.8712-2.5028,70.8532,70.8532,0,0,1-9.9028-5.1854,70.5111,70.5111,0,0,1-8.25-7.5094,69.9984,69.9984,0,0,1-6.2131-9.688A71.271,71.271,0,0,1,74.56,613.2752a69.9958,69.9958,0,0,1-.4122-11.502,70.5225,70.5225,0,0,1,2.5027-10.8711,70.8628,70.8628,0,0,1,5.1855-9.9031,70.5332,70.5332,0,0,1,7.5092-8.25,70.0173,70.0173,0,0,1,9.6789-6.2082,71.6117,71.6117,0,0,1,11.33-3.5214c.3022-.0373.6036-.0787.9066-.113,8.0168-.9068,14.404-3.8611,19.09-10.5669a23.887,23.887,0,0,0,3.4764-21.26c-.6742-2.0643-1.2293-4.16-1.7-6.2765a70.0037,70.0037,0,0,1-.4186-11.556,70.5216,70.5216,0,0,1,2.5029-10.8712,70.851,70.851,0,0,1,5.1852-9.9027,70.52,70.52,0,0,1,7.5094-8.25,69.9951,69.9951,0,0,1,9.688-6.2131,71.2876,71.2876,0,0,1,11.1488-3.4858,69.9954,69.9954,0,0,1,11.502-.4122,70.5385,70.5385,0,0,1,10.871,2.5028,70.865,70.865,0,0,1,9.9029,5.1854,70.51,70.51,0,0,1,8.25,7.5093,70.01,70.01,0,0,1,6.2128,9.6875,71.3983,71.3983,0,0,1,3.4831,11.1354,70.2043,70.2043,0,0,1,.4181,11.4675A70.6155,70.6155,0,0,1,215.87,532.53a71.08,71.08,0,0,1-5.1847,9.8965,71.1831,71.1831,0,0,1-6.133,6.9294c-.5314.4686-1.0481.97-1.55,1.4922-.1948.1819-.3859.367-.5829.5469a18.1881,18.1881,0,0,0-4.2257,6.3675,19.1952,19.1952,0,0,0-1.5446,4.6525c-.085.4591-.1575.9228-.2231,1.3883a24.1783,24.1783,0,0,0-.3881,4.9393,22.4713,22.4713,0,0,0,.3319,3.0632,21.0514,21.0514,0,0,0,3.5472,9.362,20.0265,20.0265,0,0,0,4.1178,4.8691c.2034.17.4128.3344.6212.5a20.255,20.255,0,0,0,9.8007,5.1653,20.6882,20.6882,0,0,0,4.5407.7512,71.1931,71.1931,0,0,1,7.96,2.0163,71.0964,71.0964,0,0,1,9.8987,5.18,70.6021,70.6021,0,0,1,8.2911,7.5514,70.2114,70.2114,0,0,1,6.1887,9.6632,71.3958,71.3958,0,0,1,3.48,11.136,70.011,70.011,0,0,1,.4122,11.5014,70.5368,70.5368,0,0,1-2.5028,10.8713A70.8656,70.8656,0,0,1,247.54,660.2762Z" fill="#FFC41F"></path>
                <path d="M262.4508,556.1008c-.8274-.5527-1.665-1.0883-2.51-1.6145l.5864,2.2364a94.9228,94.9228,0,0,0,4.5246-66.5108,93.0218,93.0218,0,0,0-36.2313-49.8135c-17.9663-12.3232-40.3175-19.1524-62.146-16.6251a104.9051,104.9051,0,0,0-32.8306,9.1519A87.8691,87.8691,0,0,0,107.3409,452.36a98.721,98.721,0,0,0-18.5022,27.3127,93.8163,93.8163,0,0,0-7.7119,32.4257c-.16,2.8065-.1877,5.6169-.1046,8.4265l1.2-1.5762a92.7187,92.7187,0,0,0-24.7437,14.4955,94.4235,94.4235,0,0,0-34.0894,75.8718A91.9372,91.9372,0,0,0,40.1469,659.56a96.64,96.64,0,0,0,37.8093,31.5417,86.6661,86.6661,0,0,0,25.945,7.8712,113.6591,113.6591,0,0,0,15.5342,1.0763,86.6319,86.6319,0,0,0,15.0479-1.6356c2.4516-.4672,4.88-1.038,7.2888-1.69l-1.59-.42a93.08,93.08,0,0,0,25.5536,20.81,97.8045,97.8045,0,0,0,30.2966,11.02c21.5473,3.75,44.1959-.9794,63.2139-11.5419,16.9834-9.4326,30.08-24.9283,38.1115-42.483a89.31,89.31,0,0,0,5.5414-61.9641,96.7459,96.7459,0,0,0-12.8039-29.2367,94.3948,94.3948,0,0,0-21.31-22.2509q-3.0962-2.3764-6.3344-4.5565c-1.747-1.1823-3.3846,1.6488-1.65,2.8227A102.269,102.269,0,0,1,283.05,578.8258a87.5923,87.5923,0,0,1,14.5733,27.0986,93.8491,93.8491,0,0,1,5.1255,30.596,85.1783,85.1783,0,0,1-5.7391,30.0212c-6.63,17.42-18.1675,33.3133-33.7393,43.756a94.829,94.829,0,0,1-59.1434,15.59,89.249,89.249,0,0,1-30.3268-8.34A92.1264,92.1264,0,0,1,148.0784,699.98c-1.9534-1.9095-3.8093-3.9132-5.585-5.9886a1.6181,1.6181,0,0,0-1.59-.42,89.1789,89.1789,0,0,1-56.1444-3.0591,94.3076,94.3076,0,0,1-38.2015-27.8791A89.5048,89.5048,0,0,1,27.095,615.97a97.4586,97.4586,0,0,1,1.1719-26.9029,90.1087,90.1087,0,0,1,48.1092-63.964q3.3015-1.6252,6.7152-3.0019a1.6956,1.6956,0,0,0,1.2-1.5761,92.5922,92.5922,0,0,1,4.6107-32,89.9115,89.9115,0,0,1,15.6147-27.9275A88.99,88.99,0,0,1,127.87,439.8285a94.872,94.872,0,0,1,30.7737-11.5052,85.2029,85.2029,0,0,1,32.0657-.4124,94.1779,94.1779,0,0,1,29.3116,10.8318,90.5048,90.5048,0,0,1,40.9327,108.07q-1.4263,4.2065-3.2489,8.26a1.6824,1.6824,0,0,0,.5864,2.2364c.8445.5261,1.6821,1.0617,2.51,1.6144C262.5552,560.0954,264.1937,557.265,262.4508,556.1008Z"></path>
                <path d="M246.3843,659.12a72.7674,72.7674,0,0,1-5.2751,6.06,35.5954,35.5954,0,0,1-6.2323,4.9894,36.076,36.076,0,0,1-7.1556,3.8373,67.8907,67.8907,0,0,1-8.0712,2.4339,37.8957,37.8957,0,0,1-8.1176.6345,36.6254,36.6254,0,0,1-8.4506-.9528,37.02,37.02,0,0,1-7.8084-2.4641,59.754,59.754,0,0,1-7.1394-3.8782,42.0978,42.0978,0,0,1-6.153-5.2984,35.5822,35.5822,0,0,1-4.941-6.1628c-2.5405-3.8924-4.1722-8.4505-7.57-11.71a27.7008,27.7008,0,0,0-11.17-6.5654,26.8362,26.8362,0,0,0-14.0432.0054,33.1063,33.1063,0,0,0-7.106,2.86,41.4774,41.4774,0,0,1-7.3383,2.95,36.5621,36.5621,0,0,1-8.382,1.72,43.27,43.27,0,0,1-8.4044.0481,56.78,56.78,0,0,1-7.9488-1.7333A37.6108,37.6108,0,0,1,97.36,642.56a36.2115,36.2115,0,0,1-6.6335-4.5016,39.5647,39.5647,0,0,1-5.6119-5.509,62.1827,62.1827,0,0,1-4.5428-6.9321,35.7156,35.7156,0,0,1-2.9909-7.3544,36.63,36.63,0,0,1-1.7022-8.3354,43.2415,43.2415,0,0,1-.0485-8.4109,56.7732,56.7732,0,0,1,1.7332-7.9487,37.5866,37.5866,0,0,1,3.3333-7.7178,36.2325,36.2325,0,0,1,4.5017-6.6335,39.5435,39.5435,0,0,1,5.5081-5.6113,61.9775,61.9775,0,0,1,6.7264-4.4239,36.1636,36.1636,0,0,1,7.6442-3.13,54.0268,54.0268,0,0,1,7.9253-1.7667,31.741,31.741,0,0,0,6.1279-1.5141,26.5611,26.5611,0,0,0,16.75-19.58,24.5623,24.5623,0,0,0,.4009-7.29,42.8637,42.8637,0,0,0-1.7559-7.4792,43.88,43.88,0,0,1-1.1016-16.8081,69.0711,69.0711,0,0,1,1.89-7.9127,38.951,38.951,0,0,1,3.6209-7.5995,35.6311,35.6311,0,0,1,4.5612-6.2488,36.6128,36.6128,0,0,1,5.8907-5.5878,69.8768,69.8768,0,0,1,6.8187-4.2935,37.13,37.13,0,0,1,7.6935-2.8267,36.395,36.395,0,0,1,8.4285-1.3875,37.109,37.109,0,0,1,8.3514.27,69.1,69.1,0,0,1,7.9126,1.89,38.3963,38.3963,0,0,1,7.3965,3.5069A36.0692,36.0692,0,0,1,202.64,486.1a36.6376,36.6376,0,0,1,5.5878,5.8906,69.9,69.9,0,0,1,4.2933,6.8183,37.1329,37.1329,0,0,1,2.824,7.6849,43.5921,43.5921,0,0,1,1.1641,16.5215A69.1708,69.1708,0,0,1,214.57,531.2a38.4192,38.4192,0,0,1-3.5086,7.3964,36.5478,36.5478,0,0,1-4.793,6.5839c-1.76,1.962-3.7151,3.7022-5.5489,5.5876-3.4975,3.5959-5.3145,8.6709-6.0186,13.5387a26.3038,26.3038,0,0,0,2.1092,14.7578,27.8892,27.8892,0,0,0,9.8315,11.09,19.9966,19.9966,0,0,0,6.5764,2.9584c2.7137.6293,5.4728.8848,8.18,1.5225a36.86,36.86,0,0,1,7.7053,2.5952,41.5755,41.5755,0,0,1,7.3042,4.13,61.8332,61.8332,0,0,1,5.863,5.2221,35.8422,35.8422,0,0,1,4.881,6.3419,36.255,36.255,0,0,1,3.7661,7.4341,52.045,52.045,0,0,1,2.2685,7.8692,46.1975,46.1975,0,0,1,.4822,8.3924,36.7933,36.7933,0,0,1-1.1582,8.3844,35.7541,35.7541,0,0,1-2.4461,7.3052,72.9713,72.9713,0,0,1-3.9354,7.1406c-1.1171,1.79,1.71,3.4329,2.8227,1.65a72.8459,72.8459,0,0,0,4.1353-7.5618,47.1466,47.1466,0,0,0,3.8466-16.4384,69.0144,69.0144,0,0,0-.4277-8.6227,40.104,40.104,0,0,0-2.1308-8.1051,38.05,38.05,0,0,0-3.4355-7.5353,46.4576,46.4576,0,0,0-4.7906-6.956,56.4638,56.4638,0,0,0-6.0376-5.6957,38.9388,38.9388,0,0,0-6.8657-4.5153,39.9781,39.9781,0,0,0-7.7062-3.3344q-2.09-.5979-4.214-1.0683c-1.3993-.3093-2.7792-.4136-4.1865-.64a21.9765,21.9765,0,0,1-7.4294-2.4133,24.3388,24.3388,0,0,1-10.25-11.1827,23.9884,23.9884,0,0,1-.9433-15.46,22.42,22.42,0,0,1,3.2772-7.0041c1.484-2.09,3.6147-3.6966,5.3738-5.5463a40.8284,40.8284,0,0,0,5.4217-6.5637,71.2453,71.2453,0,0,0,3.9375-7.3975,39.4341,39.4341,0,0,0,2.4976-7.9669,38.7853,38.7853,0,0,0,1.0659-8.3663,57.4558,57.4558,0,0,0-.49-8.5943,46.2849,46.2849,0,0,0-2.3057-8.29,38.4261,38.4261,0,0,0-3.6941-7.6682,39.4773,39.4773,0,0,0-4.7907-6.67,70.3953,70.3953,0,0,0-5.8892-5.4636,39.1333,39.1333,0,0,0-6.9246-4.4409,39.9,39.9,0,0,0-7.9-3.287,68.5861,68.5861,0,0,0-8.1848-1.7428,41.5765,41.5765,0,0,0-8.82.0031,38.4339,38.4339,0,0,0-8.3095,1.5488,39.5541,39.5541,0,0,0-7.8238,2.9142,70.2051,70.2051,0,0,0-7.02,4.4049,38.5958,38.5958,0,0,0-6.1038,5.602,39.4211,39.4211,0,0,0-5.0562,6.5992,70.919,70.919,0,0,0-3.7915,7.479,40.3135,40.3135,0,0,0-2.21,8.0229,38.7238,38.7238,0,0,0-.7683,8.443,40.9825,40.9825,0,0,0,.8048,8.7811c.6289,2.6424,1.6249,5.2029,2.1471,7.866a20.8352,20.8352,0,0,1,.0468,7.678,24.2792,24.2792,0,0,1-6.6734,12.7058,22.8335,22.8335,0,0,1-10.928,5.9159c-2.4263.5885-4.917.7406-7.3368,1.3458a71.739,71.739,0,0,0-8.15,2.5618A38.4708,38.4708,0,0,0,92.653,568.41a38.248,38.248,0,0,0-6.3846,5.0543,70.9084,70.9084,0,0,0-5.4506,6.2023,40.4863,40.4863,0,0,0-4.1261,7.2281,47.3372,47.3372,0,0,0-4.23,16.3191,69.8645,69.8645,0,0,0,.3093,8.6275,39.2237,39.2237,0,0,0,1.94,8.182,38.7781,38.7781,0,0,0,3.3859,7.8418,58.0278,58.0278,0,0,0,4.7511,7.0714,44.6688,44.6688,0,0,0,5.7364,5.58,38.6355,38.6355,0,0,0,6.717,4.6438,40.3747,40.3747,0,0,0,7.5666,3.4967,70.59,70.59,0,0,0,8.1417,1.9312,39.8008,39.8008,0,0,0,8.7466.3567,38.9258,38.9258,0,0,0,8.6622-1.2715,61.1657,61.1657,0,0,0,8.041-2.73c2.4026-1.0376,4.5653-2.4449,7.0745-3.27a23.6836,23.6836,0,0,1,14.3684-.3319,23.4141,23.4141,0,0,1,10.819,7.2586c1.46,1.8175,2.3249,4.0881,3.4856,6.098a70.5708,70.5708,0,0,0,4.4648,6.794,48.2859,48.2859,0,0,0,12.4136,10.6478,45.4968,45.4968,0,0,0,7.7086,3.6951,60.0241,60.0241,0,0,0,8.1672,1.998,47.5632,47.5632,0,0,0,16.9238-.5785,71.28,71.28,0,0,0,8.24-2.6787,39.0207,39.0207,0,0,0,7.1709-4.09,37.5623,37.5623,0,0,0,6.1253-4.9932,72.613,72.613,0,0,0,5.2751-6.06C249.9753,659.7924,247.6778,657.4628,246.3843,659.12Z"></path>
                <path d="M214.3344,545.7968a1.6355,1.6355,0,0,0,0-3.2691,1.6355,1.6355,0,0,0,0,3.2691Z"></path>
                <path class="cls-7" d="M252.8293,570.6991l20.8-6.5035,52.9136-16.5441,64.7993-20.26,70.9887-22.1955,71.3932-22.3219,56.6-17.6967,13.1976,42.21,2.899,9.2719a25.2958,25.2958,0,0,0,12.0276,14.4041c5.3278,2.79,12.9425,3.764,18.69,1.68,5.9673-2.1634,11.6226-6.114,14.4041-12.0277a25.4779,25.4779,0,0,0,1.68-18.69l-16.0966-51.4824,19.6255-6.1361,6.95-2.1731,9.3183,29.8031,2.3883,7.6386A25.2956,25.2956,0,0,0,687.4366,494.08c5.3277,2.79,12.9424,3.764,18.69,1.68,5.9673-2.1634,11.6227-6.114,14.4041-12.0277a25.4784,25.4784,0,0,0,1.68-18.69l-11.6995-37.4189q2.9364-.92,5.8661-1.8592c.2768-.0891.5551-.1735.8326-.26a25.2953,25.2953,0,0,0,14.404-12.0276c2.79-5.3278,3.7641-12.9425,1.68-18.69-2.1633-5.9673-6.1139-11.6226-12.0276-14.404a25.4781,25.4781,0,0,0-18.69-1.68l-13.2181,4.1328-15.6006,4.8777c-.4374.12-.869.2508-1.2881.4028L653.5563,394.03l-52.9137,16.5441-.2621.082c-.4374.12-.869.2508-1.2882.4027l-63.249,19.7756-70.9887,22.1955-71.3932,22.322-66.5721,20.8145-56.4555,17.6515-40.443,12.645" fill="#FFC41F"></path>
                <path d="M253.2638,572.2752l121.837-38.0938L513.217,490.9977l77.5421-24.2445-2.0107-1.1416L601.496,506.383c1.81,5.7876,3.0874,12.184,6.5115,17.2861a26.2585,26.2585,0,0,0,11.3272,9.6046,26.6132,26.6132,0,0,0,28.4845-4.9367,25.3063,25.3063,0,0,0,7.5937-14.1287c1.2462-6.51-.4734-12.1684-2.402-18.3369l-14.3081-45.7621-1.1416,2.0107,26.5757-8.3092-2.0107-1.1416,10.811,34.5772c1.4159,4.5285,3.0624,8.5994,6.1957,12.24a25.5907,25.5907,0,0,0,10.946,7.49,26.3576,26.3576,0,0,0,25.0147-4.2152c7.7334-5.9294,11.2352-16.3936,9.2764-25.8848-1.361-6.5947-3.9733-13.1123-5.9825-19.5386l-6.3-20.1486L710.9461,429.2c7.6806-2.4084,14.6683-4.7358,19.782-11.3577a26.5,26.5,0,0,0,4.9132-20.605,26.8952,26.8952,0,0,0-11.58-17.1925,28.0776,28.0776,0,0,0-11.5223-3.87c-4.6434-.5274-8.8286.4608-13.2287,1.8366L587.6372,412.9279l-115.063,35.9759L357.8387,484.7772l-114.1744,35.698-14.108,4.4111c-2.0013.6257-1.147,3.7826.869,3.1523l109.7374-34.3108,109.8959-34.36L560.715,424.77l108.4069-33.8947,26.3364-8.2344c4.5275-1.4156,9.1238-3.3249,13.9255-3.3686a24.6976,24.6976,0,0,1,13.0272,3.5962c14.2572,8.9222,13.1141,30.39-.821,38.85-3.5174,2.1356-7.6172,3.1083-11.5129,4.33a1.6582,1.6582,0,0,0-1.1417,2.0107l9.6,30.7026c1.58,5.0521,3.4861,9.9567,3.0259,15.3453a22.6058,22.6058,0,0,1-28.7678,20.2866,22.4283,22.4283,0,0,1-10.833-6.6365c-3.286-3.5874-4.7451-7.78-6.1691-12.3343L665.2785,441.8a1.658,1.658,0,0,0-2.0107-1.1416l-26.5757,8.3092a1.6581,1.6581,0,0,0-1.1416,2.0107l11.3272,36.2283c1.8013,5.7611,4.145,11.6067,5.3522,17.5223a24.1614,24.1614,0,0,1-3.1721,17.1311c-5.5251,8.859-17.08,12.2781-26.7367,9.0733a22.782,22.782,0,0,1-11.9129-9.5639c-2.962-4.7163-4.1128-10.5878-5.76-15.8555l-12.7477-40.7714a1.6581,1.6581,0,0,0-2.0107-1.1417l-138.0659,43.168-137.9989,43.147-61.43,19.207c-2.0013.6257-1.1469,3.7827.8691,3.1523Z"></path>
                <path class="cls-4" d="M584.9681,403.881l18.1955,9.6155a5.1991,5.1991,0,0,1,2.0675,7.2064h0a5.1991,5.1991,0,0,1-5.9351,2.3865l-19.4746-5.6067s-13.7426,15.3126-31.7226,6.05" fill="#FC7272"></path>
                <path d="M584.1432,405.2924l17.5519,9.2754c1.4082.7442,2.5852,1.74,2.6024,3.4913a3.6113,3.6113,0,0,1-4.6624,3.4267c-3.1509-.8315-6.271-1.8055-9.4025-2.707l-9.9767-2.8723a1.6211,1.6211,0,0,0-1.59.42,26.4689,26.4689,0,0,1-19.0015,8.5469,24.1474,24.1474,0,0,1-10.74-2.7523c-1.8726-.9483-3.5294,1.871-1.65,2.8227a26.9175,26.9175,0,0,0,19.4108,2.2637,32.2527,32.2527,0,0,0,12.2465-6.6411,21.26,21.26,0,0,0,2.0461-1.9283l-1.59.42c6.469,1.8625,12.9117,3.8988,19.4265,5.5929a6.8316,6.8316,0,0,0,5.7475-12.2158,27.983,27.983,0,0,0-2.8606-1.56l-5.7113-3.0181L585.7931,402.47c-1.8588-.9823-3.5127,1.8384-1.65,2.8228Z"></path>
                <path class="cls-5" d="M340.28,449.0616l4.5109,15.3846q.6243,2.1291,1.3894,4.2132l8.1914,22.3112" fill="#458DC9"></path>
                <path d="M338.7033,449.4961c1.5452,5.27,3.0567,10.5507,4.6372,15.81,1.9058,6.3412,4.471,12.5252,6.7514,18.7365l2.7032,7.3626c.7191,1.9586,3.88,1.1122,3.1523-.8691l-6.2684-17.0735c-1.8934-5.1571-3.5713-10.3339-5.1172-15.6061l-2.7061-9.2294c-.5907-2.0146-3.7465-1.1572-3.1524.869Z"></path>
                <path class="cls-3" d="M258.495,367.9427l-98.7861,46.6491L192.64,481.7441c-8.059,1.086-19.5653,4.5851-31.8115,9.9936-6.7674,2.9887-29.7876,23.4619-35.02,26.6222l-42.046-96.4186c-13.6651-28.7143,8.05-54.4869,29.7393-70.2659l14.7388-9.235,85.8267-46.0788a131.4214,131.4214,0,0,1,30.4432-11.7465l40.4316-10.0567" fill="#FFFFFF"></path>
                <path d="M257.67,366.5314l-9.8154,4.635-23.5753,11.1328L195.75,395.7712l-24.6761,11.6526-8.1412,3.8445c-1.2815.6051-2.6366,1.1407-3.8757,1.83-.0555.0308-.116.0548-.1735.0819a1.6642,1.6642,0,0,0-.5864,2.2364l11.1081,22.6513,17.7638,36.2235,4.0593,8.2775.9768-2.4011a99.1389,99.1389,0,0,0-19.067,4.9418c-3.8279,1.3388-7.6,2.8308-11.3265,4.4292a30.7826,30.7826,0,0,0-4.8551,2.5368c-8.0315,5.2629-15.3247,11.7276-22.7613,17.7773a86.8671,86.8671,0,0,1-9.2118,7.0954l2.2364.5864L118.85,498.34l-17.21-39.4665L87.4408,426.314c-.8137-1.8658-1.6013-3.7458-2.4533-5.5945a40.9973,40.9973,0,0,1-.2418-33.7247c4.5564-10.5963,12.4108-19.533,21.0087-27.065a76.4826,76.4826,0,0,1,9.5508-7.456l8.37-5.2442c2.3047-1.444,4.5685-2.9362,6.964-4.2223l10.5018-5.6383,36.5452-19.62,32.1875-17.2809c2.35-1.2615,4.6889-2.5475,7.0606-3.7677a134.3466,134.3466,0,0,1,29.1434-10.79l35.9832-8.95,3.3164-.8249c2.04-.5075,1.1761-3.661-.8691-3.1523l-33.2763,8.2768c-5.967,1.4842-11.9358,2.9149-17.765,4.8982a142.9306,142.9306,0,0,0-21.547,9.5032L184.92,310.156l-38.5017,20.6709-13.9279,7.4776c-1.7208.9239-3.49,1.7915-5.1717,2.7853-4.8431,2.8619-9.614,5.924-14.3355,8.9823a88.5637,88.5637,0,0,0-10.9854,8.8328,97.1535,97.1535,0,0,0-12.132,13.1184c-6.8739,9.03-11.8875,19.854-11.9957,31.3715a43.6275,43.6275,0,0,0,3.6769,17.589c.4237.9876.8823,1.9616,1.3121,2.9472l11.5024,26.3767,17.7053,40.6015,11.7474,26.9387.583,1.3369a1.6473,1.6473,0,0,0,2.2364.5864,76.363,76.363,0,0,0,7.9-6.0061c3.917-3.163,7.7971-6.3715,11.7195-9.5278,3.5867-2.8861,7.1886-5.7754,10.9712-8.4033,4.2862-2.9778,9.1378-4.7669,14.0145-6.5742a104.42,104.42,0,0,1,21.8359-5.94c1.1264-.1552,1.3828-1.5734.9768-2.4012l-11.108-22.6513L165.18,422.0443l-4.0592-8.2775-.5864,2.2364,9.8154-4.6351,23.5753-11.1328,28.5288-13.472L247.13,375.1107l8.1413-3.8445c1.2815-.6051,2.6366-1.1406,3.8757-1.83.0555-.0308.116-.0547.1734-.0819,1.9012-.8977.2438-3.717-1.65-2.8227Z"></path>
                <path d="M125.8864,518.0818c-1.5269-3.4576,5.3474-10.0888,16.7573-16.98l9.1524,15.3975C137.9853,520.8467,127.495,521.7237,125.8864,518.0818Z"></path>
                <path d="M127.4626,517.6473c-.047-.1156-.2049-.7213-.145-.3958a1.258,1.258,0,0,1-.0065-.2992c.0226-.3062-.0293.08.0033-.1154a3.937,3.937,0,0,1,.4985-1.3492,16.3535,16.3535,0,0,1,3.0965-3.7865,69.509,69.509,0,0,1,12.5593-9.1883l-2.2364-.5864,9.1525,15.3975.9768-2.4012a77.0625,77.0625,0,0,1-16.62,3.6938,18.7914,18.7914,0,0,1-5.1784-.1066,5.4477,5.4477,0,0,1-1.624-.547c-.3249-.1835-.2259-.12-.3891-.2964-.0935-.1013-.2-.232-.0543-.0491a1.854,1.854,0,0,1-.1979-.3607c-.9044-1.8983-3.7239-.2415-2.8228,1.65,1.5277,3.2065,6.3542,3.201,9.3252,3.0425,6.2646-.3341,12.4723-2.01,18.4305-3.8741a1.6542,1.6542,0,0,0,.9768-2.4012l-9.1524-15.3975a1.6582,1.6582,0,0,0-2.2364-.5864c-4.9,2.9727-9.874,6.2277-13.8854,10.3635-1.9527,2.0131-4.8744,5.3856-3.623,8.4628a1.6891,1.6891,0,0,0,2.0107,1.1416A1.6441,1.6441,0,0,0,127.4626,517.6473Z"></path>
                <path class="cls-4" d="M160.8285,491.7377c12.2462-5.4085,23.7525-8.9076,31.8115-9.9936l5.45,11.1545,8.0311,16.4387-26.2414,12.2576-19.6093,9.16-8.4739-14.2556-9.1524-15.3975A162.8418,162.8418,0,0,1,160.8285,491.7377Z" fill="#FC7272"></path>
                <path d="M161.6535,493.149c9.9714-4.3879,20.5739-8.3348,31.4211-9.8287l-1.8459-.7512,10.9651,22.4443,2.5155,5.1489.5864-2.2364-19.935,9.3118-15.6587,7.3144-10.257,4.7912,2.2364.5864-14.06-23.6527-3.5667-6-.5864,2.2364a164.38,164.38,0,0,1,18.1848-9.3639c1.9194-.8507.2581-3.6685-1.65-2.8227a164.38,164.38,0,0,0-18.1848,9.3638,1.66,1.66,0,0,0-.5864,2.2364q6.9483,11.69,13.8967,23.3788l3.73,6.2743a1.6789,1.6789,0,0,0,2.2364.5864l19.1753-8.957,17.9993-8.4077,8.676-4.0526a1.664,1.664,0,0,0,.5864-2.2364q-5.1876-10.6187-10.3754-21.2374l-3.1052-6.3558a1.6786,1.6786,0,0,0-1.8459-.7511c-11.1353,1.5336-21.97,5.6557-32.202,10.1583C158.0821,491.1718,159.7439,493.9893,161.6535,493.149Z"></path>
                <line class="cls-3" x1="165.2548" y1="425.9008" x2="148.6343" y2="392.2579" fill="#FFFFFF"></line>
                <path d="M166.6662,425.0758l-14.54-29.4314-2.0806-4.2115c-.9318-1.8861-3.7524-.2317-2.8228,1.65l14.54,29.4314,2.0806,4.2115c.9318,1.8862,3.7524.2317,2.8228-1.65Z"></path>
                <path class="cls-4" d="M189.3491,515.6014l25.209-9.908a22.8461,22.8461,0,0,1,23.433,4.3425l14.3668,12.9071a21.5257,21.5257,0,0,1,5.7635,23.5869s-1.9349,6.8109-9.6426,5.179c-6.2015,4.9305-6.986,5.2169-11.3753,4.1519-2.3849,4.4265-9.3395,6.0758-11.73,5.6149-1.6,4.14-5.3521,6.9252-9.97,4.7913l-5.4835-7.4118a13.742,13.742,0,0,0-18.0188-3.6695h0a16.57,16.57,0,0,1-21.762-6.7258l-12.0146-21.3148" fill="#FC7272"></path>
                <path d="M189.7836,517.1775l16.8225-6.6117,7.8605-3.09a21.8306,21.8306,0,0,1,14.0261-.857c3.96,1.1168,7.0618,3.4217,10.0569,6.1125l8.3661,7.5161a62.5735,62.5735,0,0,1,6.405,6.0434,19.9532,19.9532,0,0,1,4.0933,16.8816,30.0291,30.0291,0,0,1-.9266,3.1c-.1709.5066.08-.1-.1175.2982-.149.301-.2995.5984-.475.8852a5.93,5.93,0,0,1-4.4127,2.8417,8.9285,8.9285,0,0,1-2.2-.0928c-1.2645-.1881-1.7283.1692-2.7064.94a34.5182,34.5182,0,0,1-3.8731,2.7894c-1.794,1.0481-3.1551.8322-5.1642.35a1.6745,1.6745,0,0,0-1.846.7512,9.5028,9.5028,0,0,1-5.0261,3.9421,15.3505,15.3505,0,0,1-2.9718.82,8.4889,8.4889,0,0,1-1.0735.1112c-.2263.0085-.9943-.04-.8129-.0092a1.7019,1.7019,0,0,0-2.0107,1.1416,7.0654,7.0654,0,0,1-3.5518,3.9949,4.7008,4.7008,0,0,1-2.5093.2734,5.7248,5.7248,0,0,0-.8212-.2035l-.1776-.0593q-.4664-.2223.0724.3883c-.0066.0032-.1591-.2172-.17-.23-1.595-1.8466-2.9435-3.9787-4.3949-5.9406a18.1337,18.1337,0,0,0-6.58-6.0284,15.4883,15.4883,0,0,0-12.2678-.5694,40.09,40.09,0,0,1-5.5359,2.2308,14.6441,14.6441,0,0,1-5.6451.1828,15.0472,15.0472,0,0,1-9.72-5.9573,42.029,42.029,0,0,1-2.3227-3.932l-3.7742-6.6956L159.5358,526.32c-1.0331-1.8328-3.8582-.1869-2.8228,1.65l6.1912,10.9836c2.0783,3.6871,4.0085,7.517,6.2795,11.091a18.3708,18.3708,0,0,0,22.5751,6.9919c1.9323-.8277,3.6322-1.8312,5.78-2.0529a12.3621,12.3621,0,0,1,6.0458.88c2.8507,1.2,4.6188,3.4033,6.39,5.7968l2.931,3.9618c.8409,1.1366,1.3717,2.0169,2.7857,2.5171,5.1069,1.8064,9.4126-1.6563,11.2588-6.2294l-2.0106,1.1416c4.8825.8239,11.1477-2.0775,13.5761-6.3661l-1.8459.7511a10.2462,10.2462,0,0,0,5.8771.1724c2.6622-.9378,4.9172-3.021,7.0885-4.7446l-1.59.42c4.337.8526,8.5875-.4692,10.8329-4.45A21.1241,21.1241,0,0,0,261,536.5687a23.46,23.46,0,0,0-7.499-14.7929c-1.8852-1.7189-3.7961-3.41-5.6939-5.1154-5.5785-5.0118-11.01-11.09-18.4453-13.1934a24.5382,24.5382,0,0,0-15.4145.72c-2.24.8658-4.4706,1.7571-6.7057,2.6356l-18.327,7.2031c-1.9359.7609-1.093,3.9235.869,3.1523Z"></path>
                <path class="cls-4" d="M313,267.58a39.435,39.435,0,1,1-76.5379,19.0373Z" fill="#FC7272"></path>
                <path d="M311.4233,268.0143a37.8005,37.8005,0,1,1-73.3855,18.1683l-1.1417,2.0107,25.8763-6.4362,41.2248-10.2539,9.4368-2.3473c2.04-.5075,1.1761-3.661-.869-3.1523L286.6888,272.44l-41.2249,10.2539-9.4368,2.3473a1.6605,1.6605,0,0,0-1.1416,2.0107,41.0694,41.0694,0,0,0,79.69-19.9065C314.0772,265.1024,310.924,265.9675,311.4233,268.0143Z"></path>
                <polyline class="cls-4" points="256.709 287.41 249.499 246.156 286.981 252.757 293.347 279.522" fill="#FC7272"></polyline>
                <path d="M258.2847,286.9756l-6.329-36.217-.88-5.0376-2.0107,2.0107,32.9018,5.7945,4.58.8067-1.1416-1.1416,5.5778,23.4517.7881,3.3134c.4865,2.0458,3.64,1.18,3.1523-.8691l-5.5778-23.4517-.7881-3.3134a1.5976,1.5976,0,0,0-1.1416-1.1416L254.514,245.386l-4.58-.8067a1.6614,1.6614,0,0,0-2.0107,2.0107l6.329,36.217.88,5.0377c.3615,2.0686,3.5124,1.1918,3.1523-.8691Z"></path>
                <path class="cls-4" d="M251.9747,260.4018c-23.11-11.5863-20.0215-28.4476-23.3435-39.5893-1.929-6.47,3.9607-22.4893,3.9607-22.4893L299.97,187.6283s41.8035,69.4385-24.8875,71.1476" fill="#FC7272"></path>
                <path d="M252.8,258.99c-5.5751-2.821-10.8759-6.5081-14.5275-11.6664a34.71,34.71,0,0,1-5.3657-12.8205c-.8638-3.9458-1.2525-7.979-2.1319-11.9206a22.0686,22.0686,0,0,1-.8932-5.3809,36.9525,36.9525,0,0,1,1.0332-7.3359,88.1951,88.1951,0,0,1,3.2535-11.1084l-1.1416,1.1417,22.7746-3.615,36.2892-5.76,8.3146-1.32-1.8459-.7512c1.3039,2.1679,2.4549,4.438,3.5607,6.7112a102.8625,102.8625,0,0,1,6.3362,16.1152c1.9309,6.5016,3.1556,12.9409,2.74,19.7092-.3873,6.3095-2.6112,12.5247-7.2921,17.0208-6.306,6.057-15.6271,8.2086-24.1639,8.89-1.55.1237-3.103.1987-4.6572.2414-2.0995.0577-2.1079,3.327,0,3.2691,9.7934-.2689,20.5114-1.8318,28.5441-7.9073A27.2257,27.2257,0,0,0,314.06,234.69c1.0814-7.0238.1776-14.202-1.56-21.0468a104.0964,104.0964,0,0,0-6.5709-18.0513,69.66,69.66,0,0,0-4.4756-8.6687c-.0253-.039-.0474-.08-.0714-.12a1.7008,1.7008,0,0,0-1.8459-.7511l-22.7746,3.6149-36.2892,5.76-8.3147,1.32a1.6375,1.6375,0,0,0-1.1416,1.1416,90.6224,90.6224,0,0,0-2.9161,9.6675c-1.1605,4.746-2.1049,9.6773-.8229,14.4773,1.0724,4.0149,1.4338,8.186,2.25,12.2543a39.155,39.155,0,0,0,5.1089,13.4762c3.9821,6.2338,9.982,10.744,16.514,14.0492,1.8728.9477,3.53-1.8717,1.65-2.8228Z"></path>
                <path d="M283.0268,205.9556a13.0568,13.0568,0,0,0-4.8186-.6738,14.764,14.764,0,0,0-9.7086,4.0771c-1.542,1.4379.7735,3.7458,2.3116,2.3116a11.8839,11.8839,0,0,1,3.934-2.4656,14.4687,14.4687,0,0,1,2.1484-.5476c.5044-.0948-.3058.0218.1936-.0282.1527-.0153.3049-.0317.458-.0436q.4729-.0367.9477-.04a15.0212,15.0212,0,0,1,1.6164.0852c.0964.01.4827.0875.0146-.0005.1034.02.2085.0317.3123.0494q.3006.0511.5986.1163a8.2375,8.2375,0,0,1,1.123.3115,1.6484,1.6484,0,0,0,2.0107-1.1416,1.67,1.67,0,0,0-1.1417-2.0107Z"></path>
                <path d="M305.9113,200.13c-5.0806-1.0408-11.8015.45-14.2306,5.4563-2.823,5.8184,1.0907,11.854,5.4651,15.6329a10.7264,10.7264,0,0,0,2.5859,2.003c.386.1405.11.1314.0234-.0951a1.6414,1.6414,0,0,1,.1256.4545c.0064.1582.0214.14-.0056.2337-.0524.1825-.3572.385-.7324.5491a8.8337,8.8337,0,0,1-2.4981.5431c-2.0671.2329-2.0907,3.5047,0,3.2691,2.3913-.2695,5.7131-.8043,6.4068-3.5829a4.26,4.26,0,0,0-.7562-3.54,20.7463,20.7463,0,0,0-2.191-1.6055,23.9877,23.9877,0,0,1-2.0926-1.8953c-1.7523-1.7875-3.5709-4.1662-3.9993-6.7031a6.3119,6.3119,0,0,1,3.3219-6.5664,12.704,12.704,0,0,1,5.3618-1.1242,18.345,18.345,0,0,1,1.8433.0551,1.3721,1.3721,0,0,1,.503.0682c2.0535.4207,2.9319-2.73.869-3.1524Z"></path>
                <circle cx="304.6798" cy="212.8114" r="2.3872"></circle>
                <path d="M307.7941,212.0578a3.206,3.206,0,1,0-1.7594,3.6529,3.229,3.229,0,0,0,1.7594-3.6529.8233.8233,0,0,0-1.0054-.5708.8363.8363,0,0,0-.5708,1.0053c.008.0371.0382.2551.0161.0437.0045.0433.009.0865.0117.13.0067.1077.0022.2136-.0018.3211-.0077.21.0439-.17-.0028.0339-.0094.0409-.0161.0823-.0258.1232-.0144.0609-.0314.1213-.0506.1809-.0145.0451-.0893.2208-.0064.0377a2.544,2.544,0,0,1-.1438.2754c-.0214.0353-.0462.069-.0672.1045-.1035.1748.1125-.12-.0225.0326a2.9022,2.9022,0,0,1-.2163.2246c-.031.0282-.063.0547-.0948.082.1516-.13-.0258.0137-.0645.0384-.0906.0576-.1854.1037-.28.1529-.11.0568.1818-.0522-.0155.0029-.0528.0148-.1044.0343-.1575.0489s-.1087.0242-.1622.0388c-.2018.055.1154-.0025-.0109.0053a3.2818,3.2818,0,0,1-.3548.01c-.0422-.0019-.25-.0327-.0354.0038-.0415-.007-.0828-.0139-.124-.0225-.1029-.0215-.2014-.0532-.3014-.0843-.1913-.0593.1038.057-.0069.0006-.0462-.0235-.0935-.0444-.1392-.0691s-.09-.0507-.1342-.0782c-.0384-.024-.2193-.1636-.0627-.0338a2.689,2.689,0,0,1-.23-.21c-.0289-.03-.0554-.0625-.0843-.0925-.1407-.1457.0811.1394-.0264-.0333-.0563-.09-.1148-.1776-.1634-.2727-.02-.0382-.0374-.0772-.0554-.1162.084.1823-.0071-.0378-.02-.08-.0292-.096-.0485-.1932-.0694-.2912.0429.2012.0012.0005-.0014-.0429s-.0042-.0861-.0045-.1292c-.0006-.0689.0338-.369-.0014-.1636a2.6251,2.6251,0,0,1,.0869-.3663c.0021-.0067.0676-.2017.0239-.0778-.0428.1213.031-.0631.0357-.0724.0472-.0933.1045-.1779.1578-.2674.1008-.1695-.0784.0819.0028-.0086.0346-.0386.0669-.0792.1025-.1171.0285-.03.0578-.06.0878-.0888s.2436-.1939.0745-.074a2.69,2.69,0,0,1,.2674-.17c.0376-.02.0761-.039.1142-.0584.1815-.0924-.1073.0275.0141-.0053.1067-.0287.2091-.0683.3178-.0918.0481-.01.2-.03.011-.009.0646-.0073.13-.0125.1945-.0148s.1286-.002.1927.0011c.0427.002.2429.0355.0355-.0039a2.97,2.97,0,0,1,.3662.0869c.04.0129.0783.028.1178.0414-.2008-.068.0451.0242.0875.047.0916.0494.1769.107.2633.1646-.166-.1107-.0019,0,.0287.0278q.07.0622.1348.13c.0436.0453.0837.093.1247.1405-.0894-.1037-.0227-.0295.0214.0378a2.45,2.45,0,0,1,.1834.3364c-.0132-.0293-.0533-.1557-.01-.0138.0256.0849.0524.1682.0735.2544a.8252.8252,0,0,0,1.0054.5709A.8342.8342,0,0,0,307.7941,212.0578Z"></path>
                <circle cx="282.5479" cy="216.984" r="2.3872"></circle>
                <path d="M285.6622,216.23a3.206,3.206,0,1,0-1.7594,3.6529,3.2289,3.2289,0,0,0,1.7594-3.6529.8232.8232,0,0,0-1.0053-.5708.8363.8363,0,0,0-.5708,1.0053c.008.0371.0381.255.0161.0437.0045.0433.0089.0865.0116.13.0067.1076.0022.2136-.0017.321-.0077.21.0438-.17-.0028.034-.0094.0409-.0162.0822-.0259.1231q-.0216.0915-.05.181c-.0146.045-.0894.2207-.0065.0377a2.5526,2.5526,0,0,1-.1437.2754c-.0215.0352-.0462.069-.0673.1045-.1035.1748.1125-.1195-.0225.0326a2.9009,2.9009,0,0,1-.2162.2246c-.0311.0282-.0631.0546-.0949.0819.1517-.13-.0258.0138-.0645.0384-.0906.0577-.1853.1037-.28.1529-.11.0568.1818-.0522-.0154.003-.0529.0148-.1045.0343-.1575.0488s-.1087.0243-.1623.0389c-.2017.0549.1155-.0026-.0109.0053a3.3065,3.3065,0,0,1-.3547.01c-.0423-.0019-.25-.0327-.0355.0038-.0415-.007-.0827-.014-.124-.0226-.1029-.0214-.2013-.0532-.3014-.0842-.1912-.0593.1038.057-.0069.0006-.0461-.0236-.0935-.0445-.1392-.0691s-.09-.0507-.1342-.0782c-.0384-.024-.2193-.1636-.0627-.0338a2.7041,2.7041,0,0,1-.23-.21c-.0289-.03-.0554-.0625-.0843-.0925-.1406-.1458.0811.1394-.0264-.0333-.0562-.09-.1147-.1777-.1633-.2727-.02-.0383-.0375-.0772-.0555-.1162.0841.1823-.0071-.0379-.02-.08-.0292-.0961-.0486-.1933-.07-.2912.0429.2012.0013,0-.0014-.043s-.0042-.0861-.0045-.1291c-.0005-.0689.0338-.369-.0014-.1637a2.6413,2.6413,0,0,1,.0869-.3662c.0022-.0068.0676-.2017.0239-.0778-.0427.1213.0311-.0632.0358-.0724.0472-.0934.1044-.1779.1577-.2675.1009-.1694-.0784.0819.0028-.0085.0347-.0387.067-.0792.1026-.1171.0285-.03.0577-.06.0877-.0888s.2437-.1939.0745-.074a2.7109,2.7109,0,0,1,.2675-.17c.0375-.02.076-.0389.1142-.0583.1815-.0924-.1074.0274.014-.0053.1067-.0288.2091-.0683.3178-.0918.0481-.01.2-.03.011-.009.0647-.0073.13-.0126.1946-.0148s.1285-.002.1927.001c.0426.0021.2428.0355.0354-.0038a2.9539,2.9539,0,0,1,.3663.0869c.04.0128.0783.028.1177.0414-.2007-.068.0451.0241.0876.047.0915.0493.1769.107.2632.1646-.1659-.1108-.0019,0,.0288.0277q.07.0624.1348.13c.0435.0453.0837.093.1247.14-.09-.1037-.0228-.0295.0213.0378a2.4446,2.4446,0,0,1,.1834.3364c-.0132-.0293-.0533-.1558-.0105-.0138.0256.0848.0524.1682.0736.2544a.825.825,0,0,0,1.0053.5708A.8341.8341,0,0,0,285.6622,216.23Z"></path>
                <path d="M225.7054,187.1325s-15.7589.9782-13.9013,24.0447c.45,5.59,3.3986,12.0193,7.13,18.1067a87.7019,87.7019,0,0,0,33.0275,31.1107l.0134.0072-2.4423-22.458c-3.6261-1.8742-9.9428-10.4552-10.9635-15.8693-1.5421-8.1792,2.4859-10.9315,8.1988-12.0085,2.08-.3923,4.51.6359,6.8314,2.4813,5.4821,4.6985,5.7422,15.5755,5.7422,15.5755s6.61,53.559,39.4174,47.872c32.3262-5.5963,14.4768-50.0611,14.4768-50.0611s-2.7691,5.84-13.94.9159c-12.5839-2.3986-19.9906,12.0252-24.6562,12.0675-11.7162,4.9262-12.3168-37.2643-12.3168-37.2643a161.1582,161.1582,0,0,0,32.3643-6.4312c12.8691-4.201,14.3268-21.8288,2.401-28.2348C280.88,158.2809,254.6393,153.8265,225.7054,187.1325Z"></path>
                <path d="M225.7054,185.498c-6.6674.4334-11.986,5.8805-14.132,11.8765-2.6038,7.275-1.96,15.8315.9057,22.9a79.0184,79.0184,0,0,0,15.338,23.428A89.6662,89.6662,0,0,0,251.15,261.8132c.9871.5308,2.6012-.1081,2.4595-1.4114l-2.09-19.223c-.1119-1.0283-.2148-2.058-.3356-3.0852a2.219,2.219,0,0,0-1.263-1.8121,12.89,12.89,0,0,1-2.4363-2.112c-3.7041-3.86-7.3688-9.2322-7.5989-14.7421-.0927-2.2185.3915-4.4576,2.24-5.8689a9.3813,9.3813,0,0,1,6.2686-1.882c5.713.9786,7.95,7.3525,8.8467,12.2831.3054,1.6787.3475,3.372.5862,5.0549.2226,1.5685.502,3.1293.8109,4.6829a99.5111,99.5111,0,0,0,5.442,18.401c2.9153,7.0966,6.8059,14.1459,12.6614,19.248a26.5744,26.5744,0,0,0,22.452,6.2245,25.9494,25.9494,0,0,0,12.1105-5.2812,22.0015,22.0015,0,0,0,6.4515-9.2391c2.6876-6.9862,2.3493-14.882,1.1757-22.1454A78.516,78.516,0,0,0,315.1,226.2575c-.0937-.2537-.1879-.5073-.2884-.7584-.467-1.1655-2.31-1.79-2.9876-.39a2.5063,2.5063,0,0,1-.1911.3166c-.2129.312.278-.28-.032.0433-.146.1523-.2876.3052-.4382.4536a3.5635,3.5635,0,0,1-.2809.2412c.05-.04.2639-.188.0061-.0128a7.3111,7.3111,0,0,1-.6444.3913,6.3532,6.3532,0,0,1-1.9519.5888,13.7829,13.7829,0,0,1-6.07-.8842,18.8472,18.8472,0,0,0-4.22-1.222,15.1622,15.1622,0,0,0-3.3709.0414c-4.2678.517-7.9558,2.673-11.26,5.3164-2.5368,2.03-4.8137,4.7511-7.5142,6.3983a2.7411,2.7411,0,0,1-1.1547.505c-.4075.1012.2518-.0513-.0012-.0053-.2127.0388-.4219.0592-.6289.1148-.2609.07-.5167.17-.7789.2407-.4538.1227.1477.0425-.3106.0426-.1162,0-.7106-.0357-.4942-.0048a2.7663,2.7663,0,0,1-.8255-.3015,2.6715,2.6715,0,0,1-.7685-.5827,4.6591,4.6591,0,0,1-.8315-.9717,17.6978,17.6978,0,0,1-1.6124-3.0553c-2.2958-5.7517-3.1006-12.1422-3.7095-18.2643-.4242-4.2639-.7209-8.5591-.7835-12.8453l-1.6345,1.6346a138.4932,138.4932,0,0,0,14.6854-2.04c3.2856-.6022,6.556-1.2916,9.7991-2.0922a66.1818,66.1818,0,0,0,9.7379-2.8957,17.2,17.2,0,0,0,8.6847-23.03c-1.9448-4.2107-5.5131-6.8452-9.58-8.8074a54.9261,54.9261,0,0,0-10.5944-3.882,48.3181,48.3181,0,0,0-25.959.7516c-13.7826,4.28-25.2082,13.9774-34.5469,24.6851-1.3774,1.5793.9256,3.9008,2.3116,2.3116,13.381-15.3426,32.113-28.8991,53.5448-25.3762a50.0574,50.0574,0,0,1,10.3676,2.9062c3.4078,1.3556,7.04,2.9525,9.5089,5.7446,5.3978,6.1042,3.9889,16.2952-2.9285,20.6241-2.6636,1.6669-5.8942,2.3661-8.8969,3.1687-3.55.949-7.14,1.75-10.7481,2.4444a134.186,134.186,0,0,1-15.3865,2.2182,1.6656,1.6656,0,0,0-1.6345,1.6345c.0557,3.8215.3069,7.6489.6513,11.4538.5947,6.571,1.3671,13.3984,3.6221,19.6381.8618,2.3846,1.982,4.9782,3.96,6.6615a6.1329,6.1329,0,0,0,2.9144,1.4506,5.68,5.68,0,0,0,1.9494-.0011,5.9735,5.9735,0,0,0,.6326-.132c.1324-.0367.26-.0859.3909-.1262q.2865-.0817-.0468-.05.28-.0216.5581-.0692c2.9-.4847,5.2914-3.3174,7.3574-5.1915,2.968-2.6923,6.1834-5.3928,10.1042-6.5309a13.1754,13.1754,0,0,1,3.6536-.54,11.7648,11.7648,0,0,1,4.322.9742,16.9209,16.9209,0,0,0,8.18,1.1257c2.1426-.3192,4.7042-1.4812,5.71-3.5564l-2.9876-.3905a68.1745,68.1745,0,0,1,2.6455,8.3962,60.8466,60.8466,0,0,1,2.1724,17.7642c-.2615,6.1667-2.0131,12.5184-6.7377,16.8059-5.1593,4.682-13.39,6.4058-20.1276,5.0282-13.1188-2.6822-20.2258-16.3867-24.1872-27.9486a105.1186,105.1186,0,0,1-3.8945-14.9395c-.2155-1.1652-.3993-2.334-.5755-3.5055.0537.3575.0305.3041.01-.1238a36.5458,36.5458,0,0,0-.4656-4.1419c-.6942-4.2423-2.1347-8.8571-5.3109-11.9177-2.0553-1.98-5.1561-3.6719-8.0891-3.4045a14.732,14.732,0,0,0-5.9533,1.92c-4.37,2.5917-5.0656,7.57-4.153,12.2081.9386,4.77,4.0933,9.3253,7.2275,12.9282a16.8909,16.8909,0,0,0,4.4872,3.9179l-.81-1.4113,2.1383,19.6618.3041,2.7962L252.8,258.99a85.1881,85.1881,0,0,1-35.24-35.4519c-1.9438-3.7681-3.7117-7.9082-4.1043-12.1743a33.5146,33.5146,0,0,1,.5181-10.5364c.9447-4.1,3.144-7.9375,6.5-10.0832a11.27,11.27,0,0,1,3.8233-1.6935c.4258-.1131.8571-.18,1.2861-.2744.4178-.0918-.461.0511-.0087.002.0434-.0047.087-.0088.1306-.0116C227.7942,188.6313,227.8094,185.3612,225.7054,185.498Z"></path>
                <path class="cls-3" d="M292.8823,235.89l3.5232.2068.5072.03a1.6346,1.6346,0,0,0,1.6346-1.6345,1.6721,1.6721,0,0,0-1.6346-1.6346l-3.5233-.2068-.5071-.03a1.6347,1.6347,0,0,0-1.6346,1.6346,1.672,1.672,0,0,0,1.6346,1.6345Z" fill="#FFFFFF"></path>
                <path d="M244.3363,219.5647c.0457-.03.0941-.0553.1423-.0808.0522-.0275.1094-.0482.16-.0776.1974-.1141-.406.1467-.2618.11.0454-.0116.0892-.0366.1338-.0514a5.2037,5.2037,0,0,1,.6265-.1749c.06-.012.1232-.017.1821-.0325.166-.0436-.508.04-.1916.027.16-.0068.3179-.0239.4784-.0234.1562,0,.3106.0135.4662.0246.3517.0249-.3225-.07-.1249-.0167.0941.0254.1947.0356.29.0573q.2559.0584.5052.1419c.0943.0315.186.07.28.1019.23.0784-.1685-.0654-.1759-.0754a1.085,1.085,0,0,0,.2182.101,6.7661,6.7661,0,0,1,.5986.3305q.1563.0966.3078.2009c.0678.0466.4143.3276.2266.16-.2069-.1846.1514.13.1933.1659q.165.1422.3234.2916c.2437.2293.4764.47.6994.7195q.215.24.418.4907.0852.1047.1683.211c-.1445-.1846-.0416-.0521.04.0594.2857.3884.5546.7889.81,1.1978a27.9841,27.9841,0,0,1,1.6327,3.0644,1.6415,1.6415,0,0,0,2.2363.5864,1.68,1.68,0,0,0,.5864-2.2364c-1.3929-3.0033-3.3184-6.2953-6.3322-7.931a6.7075,6.7075,0,0,0-5.1645-.6509,4.6171,4.6171,0,0,0-1.1234.4868,1.6348,1.6348,0,0,0,1.65,2.8228Z"></path>
                <circle class="cls-8" cx="203.7894" cy="183.7624" r="28.2953" stroke="#000000" stroke-width="1.0897px"></circle>
                <path d="M323.6793,270.8648a42.5379,42.5379,0,0,1-2.18,27.6388,45.8021,45.8021,0,0,1-18.2828,20.1316,52.6642,52.6642,0,0,1-28.5463,7.6942,47.8561,47.8561,0,0,1-44.8048-36.3328c-.5147-2.0386-3.6684-1.1748-3.1523.869A51.1442,51.1442,0,0,0,270.91,329.33c20.1877,2.2143,42.1943-8.3332,52.0009-26.3434a45.8957,45.8957,0,0,0,3.92-32.9912c-.5-2.0424-3.6536-1.1774-3.1524.8691Z"></path>
                <path d="M819.6624,374.028A25.14,25.14,0,1,0,780.79,395.081l-5.7007,47.7456a12.4645,12.4645,0,0,0,12.3765,13.9421H801.58a12.4644,12.4644,0,0,0,12.3765-13.9421L808.256,395.081A25.1124,25.1124,0,0,0,819.6624,374.028Z"></path>
                <path d="M821.297,374.028a26.7736,26.7736,0,1,0-41.332,22.4643l-.81-1.4113-3.2192,26.9627-1.9587,16.4049c-.16,1.343-.324,2.6857-.4811,4.0291a14.3665,14.3665,0,0,0,1.5821,8.5633,14.14,14.14,0,0,0,10.2352,7.187,47.2375,47.2375,0,0,0,6.8824.1752h8.4945a15.0051,15.0051,0,0,0,9.1465-2.6789,14.2353,14.2353,0,0,0,5.8423-11.3486,28.5993,28.5993,0,0,0-.3189-3.48l-1.7025-14.259-3.6968-30.9634-.0707-.5919-.81,1.4113A27.1691,27.1691,0,0,0,821.297,374.028a1.6355,1.6355,0,0,0-3.2691,0A23.7646,23.7646,0,0,1,807.431,393.67a1.6211,1.6211,0,0,0-.81,1.4114l3.072,25.73,1.9739,16.5324c.4,3.35,1.2652,7.0731.2033,10.3565a10.9315,10.9315,0,0,1-8.6726,7.3255,43.2018,43.2018,0,0,1-6.3483.109h-8.3613a11.7169,11.7169,0,0,1-8.05-2.5822,11.1042,11.1042,0,0,1-3.7117-9.7525c.0977-.9026.2154-1.8035.323-2.705l1.7488-14.6472,3.5549-29.7743.0707-.5919a1.621,1.621,0,0,0-.8095-1.4114,23.508,23.508,0,1,1,36.4129-19.6416A1.6355,1.6355,0,0,0,821.297,374.028Z"></path>
                <path d="M749.9794,281.3273V220.6645c0-9.8446-.2072-19.5992,1.9139-29.297a83.7638,83.7638,0,0,1,165.5274,14.0358c.1319,2.9631.0857,5.9362.0857,8.9017v67.0223a1.6355,1.6355,0,0,0,3.2691,0v-71.5a89.9479,89.9479,0,0,0-2.4087-20.9787,87.0366,87.0366,0,0,0-171.4525,14.4669c-.2362,3.4418-.204,6.8855-.204,10.3323v67.6792a1.6355,1.6355,0,0,0,3.2691,0Z"></path>
            </svg>