<svg width="23" height="23" viewBox="0 0 23 23" fill="none" xmlns="http://www.w3.org/2000/svg">
<path d="M7.63929 18.3123H7.12857C3.04286 18.3123 1 17.294 1 12.2021V7.11024C1 3.03675 3.04286 1 7.12857 1H15.3C19.3857 1 21.4286 3.03675 21.4286 7.11024V12.2021C21.4286 16.2756 19.3857 18.3123 15.3 18.3123H14.7893C14.4726 18.3123 14.1662 18.4651 13.9721 18.7197L12.44 20.7564C11.7659 21.6526 10.6627 21.6526 9.98857 20.7564L8.45643 18.7197C8.293 18.4957 7.91507 18.3123 7.63929 18.3123Z" stroke="#296EFF" stroke-width="1.5" stroke-miterlimit="10" stroke-linecap="round" stroke-linejoin="round"/>
<path d="M16.192 9.64307H16.2031M11.7385 9.64307H11.7496M7.28613 9.64307H7.29504" stroke="#296EFF" stroke-width="2" stroke-linecap="round" stroke-linejoin="round"/>
</svg>
