<svg width="62" height="62" viewBox="0 0 62 62" fill="none" xmlns="http://www.w3.org/2000/svg">
<path d="M20.6423 41.2303C21.7366 41.2303 22.6293 40.3472 22.6197 39.253V12.3194C22.6197 12.1178 22.7828 11.9546 22.9844 11.9546H36.6624C37.7566 11.9546 38.6397 11.0715 38.6397 9.97731C38.6397 8.88307 37.7566 8 36.6624 8H22.9844C20.604 8 18.665 9.93891 18.665 12.3194V39.253C18.665 40.3472 19.5481 41.2303 20.6423 41.2303Z" fill="#296EFF"/>
<path d="M23.4571 46.8934L19.9536 49.1586C19.8576 49.2066 19.7616 49.197 19.7041 49.1778C19.6369 49.1586 19.5409 49.1202 19.4833 49.0146L6.01647 25.6901C5.94928 25.5845 5.95888 25.4789 5.97808 25.4117C5.99728 25.3446 6.03567 25.2486 6.14126 25.191L14.444 20.2381C15.3847 19.6718 15.6918 18.4624 15.1351 17.5217C14.5688 16.5811 13.3594 16.2739 12.4187 16.8306L4.14475 21.7643C3.1561 22.3402 2.4458 23.2713 2.14824 24.3847C1.85069 25.5077 2.00427 26.6692 2.58018 27.6674L16.0374 50.9824C16.6133 51.9806 17.554 52.7005 18.6674 52.9981C19.0418 53.1036 19.4257 53.1516 19.8 53.1516C20.5487 53.1516 21.2878 52.9597 21.9597 52.5757L22.0077 52.5469L25.6072 50.2145C26.5286 49.6194 26.7878 48.4003 26.1927 47.4789C25.5976 46.5574 24.3786 46.2983 23.4571 46.8934Z" fill="#296EFF"/>
<path d="M59.8514 23.348C59.5443 22.2249 58.834 21.2939 57.8357 20.718L45.8183 13.7782C45.1656 13.4038 44.4265 13.2023 43.6682 13.2023C42.1228 13.2023 40.683 14.0277 39.9152 15.3619L26.4483 38.6865C25.8724 39.6847 25.7189 40.8558 26.0164 41.9692C26.3236 43.0922 27.0339 44.0233 28.0321 44.5992L40.0591 51.539C40.7118 51.9133 41.4509 52.1149 42.2092 52.1149C43.7546 52.1149 45.1848 51.2798 45.9527 49.9552L59.4195 26.6307C59.9954 25.6324 60.149 24.4614 59.8514 23.348ZM55.9832 24.6534L42.5164 47.9779C42.4492 48.1123 42.3052 48.1603 42.1996 48.1603C42.142 48.1603 42.0844 48.1411 42.0268 48.1123L30.0094 41.1725C29.9038 41.1149 29.8654 41.0189 29.8462 40.9518C29.8366 40.8846 29.827 40.779 29.8846 40.6734L43.3515 17.3489C43.4186 17.2145 43.5626 17.1665 43.6682 17.1665C43.7258 17.1665 43.7834 17.1761 43.8314 17.2145L55.8488 24.1542C55.9544 24.2118 55.9928 24.3078 56.012 24.375C56.0312 24.4422 56.0408 24.5478 55.9832 24.6534Z" fill="#296EFF"/>
</svg>