<svg width="43" height="35" viewBox="0 0 43 35" fill="none" xmlns="http://www.w3.org/2000/svg">
<path d="M30.4587 33.625V30.0417C30.4587 28.1409 29.7036 26.3181 28.3596 24.9741C27.0156 23.6301 25.1927 22.875 23.292 22.875H8.95866C7.05794 22.875 5.23507 23.6301 3.89106 24.9741C2.54705 26.3181 1.79199 28.1409 1.79199 30.0417V33.625" stroke="black" stroke-width="2.5" stroke-linecap="round" stroke-linejoin="round"/>
<path d="M16.1247 15.7083C20.0827 15.7083 23.2913 12.4997 23.2913 8.54167C23.2913 4.58363 20.0827 1.375 16.1247 1.375C12.1666 1.375 8.95801 4.58363 8.95801 8.54167C8.95801 12.4997 12.1666 15.7083 16.1247 15.7083Z" stroke="black" stroke-width="2.5" stroke-linecap="round" stroke-linejoin="round"/>
<path d="M41.208 33.625V30.0417C41.2068 28.4538 40.6783 26.9112 39.7055 25.6562C38.7326 24.4012 37.3705 23.5049 35.833 23.1079" stroke="black" stroke-width="2.5" stroke-linecap="round" stroke-linejoin="round"/>
<path d="M28.667 1.60791C30.2086 2.00262 31.5749 2.89917 32.5507 4.15622C33.5264 5.41327 34.056 6.95931 34.056 8.55062C34.056 10.1419 33.5264 11.688 32.5507 12.945C31.5749 14.2021 30.2086 15.0986 28.667 15.4933" stroke="black" stroke-width="2.5" stroke-linecap="round" stroke-linejoin="round"/>
</svg>
