<svg width="26" height="28" viewBox="0 0 26 28" fill="none" xmlns="http://www.w3.org/2000/svg">
<g clip-path="url(#clip0_293_126)">
<path fill-rule="evenodd" clip-rule="evenodd" d="M16.8726 3.27659C16.562 3.32161 16.2483 3.21821 16.0254 2.99733L13.7038 0.697285C13.314 0.31114 12.686 0.311139 12.2962 0.697284L9.97464 2.99733C9.75169 3.21821 9.43797 3.32161 9.12738 3.27659L5.93031 2.81319C5.39368 2.73541 4.89284 3.09947 4.80124 3.63391L4.23495 6.93758C4.18321 7.23942 3.99601 7.50091 3.72696 7.64719L0.833455 9.22027C0.366218 9.47429 0.179539 10.0496 0.408603 10.5295L1.85928 13.5692C1.98931 13.8416 1.98929 14.1583 1.85922 14.4307L0.408766 17.4689C0.179618 17.9488 0.366274 18.5242 0.833548 18.7782L3.72697 20.3513C3.99602 20.4976 4.18321 20.7591 4.23495 21.0609L4.80129 24.3649C4.89287 24.8992 5.39353 25.2633 5.93005 25.1857L9.12755 24.7232C9.43805 24.6783 9.75163 24.7817 9.9745 25.0025L12.2962 27.3027C12.686 27.6889 13.314 27.6889 13.7038 27.3027L16.0255 25.0025C16.2484 24.7817 16.562 24.6783 16.8724 24.7232L20.07 25.1857C20.6065 25.2633 21.1071 24.8992 21.1987 24.3649L21.7651 21.0609C21.8168 20.7591 22.004 20.4976 22.273 20.3513L25.1664 18.7783C25.6337 18.5242 25.8204 17.9488 25.5912 17.4689L24.1408 14.4307C24.0107 14.1583 24.0107 13.8416 24.1407 13.5692L25.5914 10.5295C25.8205 10.0496 25.6338 9.47429 25.1665 9.22027L22.273 7.64719C22.004 7.50091 21.8168 7.23942 21.7651 6.93758L21.1988 3.63391C21.1072 3.09947 20.6063 2.73541 20.0697 2.81319L16.8726 3.27659ZM6.74632 13.9315C6.36956 14.3204 6.37075 14.9385 6.74902 15.3259L10.3067 18.9698C10.7112 19.384 11.3818 19.3693 11.7677 18.9377L18.6709 11.2165C19.0314 10.8133 19.006 10.1965 18.6135 9.82434L18.1059 9.3431C17.6971 8.95549 17.049 8.98189 16.6731 9.40148L11.6747 14.9805C11.2886 15.4114 10.6186 15.4258 10.2144 15.0118L8.66658 13.4266C8.27315 13.0236 7.62472 13.0248 7.23286 13.4293L6.74632 13.9315Z" fill="#008FF0"/>
<path fill-rule="evenodd" clip-rule="evenodd" d="M16.5928 4.09534C16.2806 4.14094 15.9652 4.03653 15.7419 3.81365L13.7061 1.78189C13.3157 1.39231 12.6837 1.39231 12.2933 1.78188L10.2574 3.81366C10.0341 4.03653 9.71869 4.14094 9.4065 4.09534L6.60169 3.68565C6.06421 3.60714 5.56235 3.97204 5.47131 4.50754L4.97178 7.44576C4.92052 7.74725 4.73413 8.00871 4.46584 8.15547L1.91085 9.55312C1.44608 9.80736 1.26024 10.38 1.48711 10.8587L2.77281 13.5717C2.90126 13.8428 2.90126 14.1572 2.77281 14.4282L1.4871 17.1413C1.26023 17.62 1.44607 18.1926 1.91083 18.4468L4.46585 19.8445C4.73414 19.9913 4.92052 20.2527 4.97178 20.5542L5.47131 23.4924C5.56235 24.0279 6.06421 24.3928 6.60169 24.3143L9.4065 23.9046C9.71869 23.859 10.0341 23.9634 10.2574 24.1863L12.2933 26.2181C12.6837 26.6077 13.3157 26.6077 13.7061 26.2181L15.7419 24.1863C15.9652 23.9634 16.2806 23.859 16.5928 23.9046L19.3976 24.3143C19.9351 24.3928 20.437 24.0279 20.528 23.4924L21.0276 20.5542C21.0788 20.2527 21.2652 19.9913 21.5335 19.8445L24.0885 18.4468C24.5533 18.1926 24.7391 17.62 24.5122 17.1413L23.2265 14.4282C23.0981 14.1572 23.0981 13.8428 23.2265 13.5717L24.5122 10.8587C24.7391 10.38 24.5533 9.80736 24.0885 9.55312L21.5335 8.15547C21.2652 8.00871 21.0788 7.74725 21.0276 7.44577L20.528 4.50754C20.437 3.97204 19.9351 3.60714 19.3976 3.68565L16.5928 4.09534Z" fill="url(#paint0_linear_293_126)"/>
<path d="M11.6641 18.1081C11.4712 18.3209 11.1391 18.3278 10.9375 18.1232L7.34577 14.4779C7.15398 14.2833 7.15398 13.9707 7.34577 13.7761L8.28021 12.8277C8.47527 12.6297 8.79433 12.6288 8.99052 12.8256L10.8792 14.7206C11.0807 14.9229 11.4103 14.9156 11.6027 14.7046L16.4667 9.37217C16.6538 9.16707 16.9721 9.15364 17.1758 9.34223L18.1369 10.2321C18.3381 10.4183 18.3518 10.7318 18.1677 10.9348L11.6641 18.1081Z" fill="white" stroke="white"/>
</g>
<defs>
<linearGradient id="paint0_linear_293_126" x1="5.49951" y1="3.5" x2="20.2495" y2="21.5" gradientUnits="userSpaceOnUse">
<stop stop-color="#1D9BF0"/>
<stop offset="1" stop-color="#41AEF8"/>
</linearGradient>
<clipPath id="clip0_293_126">
<rect width="26" height="28" fill="white"/>
</clipPath>
</defs>
</svg>
