<svg width="20" height="22" viewBox="0 0 20 22" fill="none" xmlns="http://www.w3.org/2000/svg">
<path d="M10 18C13.31 18 16 15.31 16 12V7C16 3.69 13.31 1 10 1C6.69 1 4 3.69 4 7V12C4 15.31 6.69 18 10 18Z" stroke="black" stroke-linecap="round" stroke-linejoin="round"/>
<path d="M1 10.0002V12.0002C1 14.3871 1.94821 16.6763 3.63604 18.3641C5.32387 20.052 7.61305 21.0002 10 21.0002C12.3869 21.0002 14.6761 20.052 16.364 18.3641C18.0518 16.6763 19 14.3871 19 12.0002V10.0002M7.11 6.48019C8.88572 5.83017 10.8343 5.83017 12.61 6.48019M8.03 9.48019C9.23 9.15019 10.5 9.15019 11.7 9.48019" stroke="black" stroke-linecap="round" stroke-linejoin="round"/>
</svg>
