<svg width="40" height="40" viewBox="0 0 40 40" fill="none" xmlns="http://www.w3.org/2000/svg">
<mask id="mask0_722_329" style="mask-type:alpha" maskUnits="userSpaceOnUse" x="0" y="0" width="40" height="40">
<rect width="40" height="40" fill="#D9D9D9"/>
</mask>
<g mask="url(#mask0_722_329)">
<path d="M31.7795 33.2948L21.8532 23.3685C21.0199 24.001 20.1061 24.4908 19.1119 24.8381C18.1177 25.1853 17.0918 25.3589 16.0342 25.3589C13.4346 25.3589 11.2247 24.449 9.40433 22.6291C7.58399 20.8093 6.67383 18.6005 6.67383 16.0026C6.67383 13.4047 7.58375 11.195 9.40358 9.37339C11.2234 7.55183 13.4323 6.64105 16.0302 6.64105C18.628 6.64105 20.8377 7.55122 22.6593 9.37155C24.4809 11.1919 25.3917 13.4018 25.3917 16.0014C25.3917 17.0911 25.2127 18.133 24.8548 19.1272C24.4969 20.1214 24.0124 21.0192 23.4013 21.8205L33.3276 31.7468L31.7795 33.2948ZM16.0327 23.1923C18.0413 23.1923 19.7422 22.4957 21.1353 21.1026C22.5285 19.7094 23.2251 18.0085 23.2251 16C23.2251 13.9914 22.5285 12.2906 21.1353 10.8974C19.7422 9.50422 18.0413 8.80764 16.0327 8.80764C14.0242 8.80764 12.3233 9.50422 10.9302 10.8974C9.53702 12.2906 8.84045 13.9914 8.84045 16C8.84045 18.0085 9.53702 19.7094 10.9302 21.1026C12.3233 22.4957 14.0242 23.1923 16.0327 23.1923Z" fill="#1C1B1F"/>
</g>
</svg>
