<svg width="48" height="48" viewBox="0 0 48 48" fill="none" xmlns="http://www.w3.org/2000/svg">
<path d="M20.0342 42.9999L19.1303 36.9884C18.4457 36.755 17.7086 36.4159 16.9188 35.9711C16.1291 35.5262 15.4483 35.055 14.8765 34.5576L9.28419 37.1037L5.28809 30.0384L10.3419 26.3192C10.2753 25.9679 10.2272 25.5846 10.1977 25.1692C10.1682 24.7538 10.1534 24.3705 10.1534 24.0192C10.1534 23.6807 10.1682 23.3038 10.1977 22.8884C10.2272 22.473 10.2753 22.0704 10.3419 21.6807L5.28809 17.9423L9.28419 10.9347L14.8572 13.4424C15.4675 12.9449 16.1547 12.4769 16.9188 12.0385C17.6829 11.6 18.4137 11.2744 19.1111 11.0616L20.0342 5H27.9649L28.8687 11.0308C29.6046 11.3026 30.3405 11.6397 31.0764 12.0423C31.8123 12.4449 32.4752 12.9116 33.0649 13.4424L38.7341 10.9347L42.711 17.9423L37.5802 21.6577C37.6725 22.0551 37.7302 22.4551 37.7533 22.8577C37.7764 23.2602 37.7879 23.641 37.7879 24C37.7879 24.3461 37.7732 24.7154 37.7437 25.1077C37.7142 25.5 37.6597 25.9077 37.5802 26.3308L42.6917 30.0384L38.6956 37.1037L33.0649 34.5384C32.4418 35.0614 31.7694 35.5441 31.0476 35.9865C30.3258 36.4288 29.5995 36.7563 28.8687 36.9692L27.9649 42.9999H20.0342ZM23.9418 29.6345C25.511 29.6345 26.8424 29.0877 27.936 27.9942C29.0296 26.9006 29.5764 25.5692 29.5764 24C29.5764 22.4308 29.0296 21.0994 27.936 20.0058C26.8424 18.9122 25.511 18.3654 23.9418 18.3654C22.3854 18.3654 21.0573 18.9122 19.9573 20.0058C18.8573 21.0994 18.3073 22.4308 18.3073 24C18.3073 25.5692 18.8573 26.9006 19.9573 27.9942C21.0573 29.0877 22.3854 29.6345 23.9418 29.6345ZM23.9418 27.3653C23.0136 27.3653 22.2207 27.0365 21.563 26.3788C20.9053 25.7211 20.5765 24.9282 20.5765 24C20.5765 23.0718 20.9053 22.2788 21.563 21.6211C22.2207 20.9634 23.0136 20.6346 23.9418 20.6346C24.8829 20.6346 25.679 20.9634 26.3303 21.6211C26.9816 22.2788 27.3072 23.0718 27.3072 24C27.3072 24.9282 26.9816 25.7211 26.3303 26.3788C25.679 27.0365 24.8829 27.3653 23.9418 27.3653ZM21.8572 40.7307H26.1226L26.8418 35.15C27.9034 34.8833 28.8938 34.4859 29.813 33.9577C30.7322 33.4294 31.6111 32.7589 32.4495 31.9461L37.6726 34.2077L39.6726 30.6653L35.0495 27.2538C35.1829 26.6615 35.288 26.1031 35.3649 25.5788C35.4418 25.0544 35.4803 24.5282 35.4803 24C35.4803 23.4461 35.447 22.9134 35.3803 22.4019C35.3136 21.8904 35.2034 21.3513 35.0495 20.7846L39.711 17.3346L37.711 13.7923L32.4303 16.0538C31.7277 15.2641 30.8803 14.5679 29.888 13.9654C28.8957 13.3628 27.8739 12.991 26.8226 12.85L26.1418 7.2692H21.8572L21.1957 12.8308C20.088 13.0513 19.0682 13.4288 18.1361 13.9634C17.2041 14.498 16.3355 15.1884 15.5303 16.0346L10.288 13.7923L8.28804 17.3346L12.9111 20.7269C12.7649 21.2551 12.6534 21.791 12.5765 22.3346C12.4996 22.8782 12.4611 23.4397 12.4611 24.0192C12.4611 24.573 12.4996 25.1153 12.5765 25.6461C12.6534 26.1769 12.7585 26.7128 12.8918 27.2538L8.28804 30.6653L10.288 34.2077L15.5111 31.9653C16.3111 32.7781 17.1803 33.4487 18.1188 33.9769C19.0573 34.5051 20.0765 34.9025 21.1765 35.1692L21.8572 40.7307Z" fill="black"/>
</svg>
