<svg width="50" height="51" viewBox="0 0 50 51" fill="none" xmlns="http://www.w3.org/2000/svg">
<path d="M37 18.25C40.3137 18.25 43 15.5077 43 12.125C43 8.74226 40.3137 6 37 6C33.6863 6 31 8.74226 31 12.125C31 15.5077 33.6863 18.25 37 18.25Z" stroke="black" stroke-width="2.6" stroke-linecap="round" stroke-linejoin="round"/>
<path d="M13 32.5415C16.3137 32.5415 19 29.7992 19 26.4165C19 23.0338 16.3137 20.2915 13 20.2915C9.68629 20.2915 7 23.0338 7 26.4165C7 29.7992 9.68629 32.5415 13 32.5415Z" stroke="black" stroke-width="2.6" stroke-linecap="round" stroke-linejoin="round"/>
<path d="M37 46.833C40.3137 46.833 43 44.0908 43 40.708C43 37.3253 40.3137 34.583 37 34.583C33.6863 34.583 31 37.3253 31 40.708C31 44.0908 33.6863 46.833 37 46.833Z" stroke="black" stroke-width="2.6" stroke-linecap="round" stroke-linejoin="round"/>
<path d="M18.1797 29.4995L31.8397 37.6253" stroke="black" stroke-width="2.6" stroke-linecap="round" stroke-linejoin="round"/>
<path d="M31.8197 15.2075L18.1797 23.3334" stroke="black" stroke-width="2.6" stroke-linecap="round" stroke-linejoin="round"/>
</svg>
