<svg width="43" height="43" viewBox="0 0 43 43" fill="none" xmlns="http://www.w3.org/2000/svg">
<path d="M31.5 13.8001C34.5376 13.8001 37 11.3824 37 8.40005C37 5.41768 34.5376 3 31.5 3C28.4624 3 26 5.41768 26 8.40005C26 11.3824 28.4624 13.8001 31.5 13.8001Z" stroke="black" stroke-width="2.5" stroke-linecap="round" stroke-linejoin="round"/>
<path d="M9.5 26.4002C12.5376 26.4002 15 23.9825 15 21.0001C15 18.0178 12.5376 15.6001 9.5 15.6001C6.46243 15.6001 4 18.0178 4 21.0001C4 23.9825 6.46243 26.4002 9.5 26.4002Z" stroke="black" stroke-width="2.5" stroke-linecap="round" stroke-linejoin="round"/>
<path d="M31.5 38.9998C34.5376 38.9998 37 36.5821 37 33.5998C37 30.6174 34.5376 28.1997 31.5 28.1997C28.4624 28.1997 26 30.6174 26 33.5998C26 36.5821 28.4624 38.9998 31.5 38.9998Z" stroke="black" stroke-width="2.5" stroke-linecap="round" stroke-linejoin="round"/>
<path d="M14.249 23.7183L26.7707 30.8823" stroke="black" stroke-width="2.5" stroke-linecap="round" stroke-linejoin="round"/>
<path d="M26.7524 11.1177L14.249 18.2817" stroke="black" stroke-width="2.5" stroke-linecap="round" stroke-linejoin="round"/>
</svg>
