<svg width="21" height="23" viewBox="0 0 21 23" fill="none" xmlns="http://www.w3.org/2000/svg">
<path d="M2 6L10.529 11.7699L19 6.03387M10.529 22V11.7586" stroke="white" stroke-linecap="round" stroke-linejoin="round"/>
<path d="M8.44982 1.50394L3.17369 4.62205C1.97816 5.32546 1 7.08924 1 8.53806V14.4698C1 15.9186 1.97816 17.6824 3.17369 18.3858L8.44982 21.5039C9.57618 22.1654 11.4238 22.1654 12.5502 21.5039L17.8263 18.3858C19.0218 17.6824 20 15.9186 20 14.4698V8.53806C20 7.08924 19.0218 5.32546 17.8263 4.62205L12.5502 1.50394C11.4139 0.832021 9.57618 0.832021 8.44982 1.50394Z" stroke="white" stroke-linecap="round" stroke-linejoin="round"/>
<path d="M15 13V8.99562L6 3" stroke="white" stroke-linecap="round" stroke-linejoin="round"/>
</svg>
