<svg width="22" height="22" viewBox="0 0 22 22" fill="none" xmlns="http://www.w3.org/2000/svg">
<path d="M9 12C9.42945 12.5741 9.97736 13.0491 10.6066 13.3929C11.2357 13.7367 11.9315 13.9411 12.6467 13.9923C13.3618 14.0435 14.0796 13.9403 14.7513 13.6897C15.4231 13.4392 16.0331 13.047 16.54 12.54L19.54 9.53997C20.4508 8.59695 20.9548 7.33394 20.9434 6.02296C20.932 4.71198 20.4061 3.45791 19.4791 2.53087C18.5521 1.60383 17.298 1.07799 15.987 1.0666C14.676 1.0552 13.413 1.55918 12.47 2.46997L10.75 4.17997" stroke="#7C7C7C" stroke-width="2" stroke-linecap="round" stroke-linejoin="round"/>
<path d="M13.0002 10.0002C12.5707 9.4261 12.0228 8.95104 11.3936 8.60729C10.7645 8.26353 10.0687 8.05911 9.35355 8.00789C8.63841 7.95667 7.92061 8.05986 7.24885 8.31044C6.5771 8.56103 5.96709 8.95316 5.4602 9.46022L2.4602 12.4602C1.54941 13.4032 1.04544 14.6662 1.05683 15.9772C1.06822 17.2882 1.59407 18.5423 2.52111 19.4693C3.44815 20.3964 4.70221 20.9222 6.01319 20.9336C7.32418 20.945 8.58719 20.441 9.5302 19.5302L11.2402 17.8202" stroke="#7C7C7C" stroke-width="2" stroke-linecap="round" stroke-linejoin="round"/>
</svg>
