<svg width="55" height="55" viewBox="0 0 55 55" fill="none" xmlns="http://www.w3.org/2000/svg">
<g clip-path="url(#clip0_2215_222)">
<mask id="mask0_2215_222" style="mask-type:luminance" maskUnits="userSpaceOnUse" x="0" y="0" width="55" height="55">
<path d="M55 0H0V55H55V0Z" fill="white"/>
</mask>
<g mask="url(#mask0_2215_222)">
<path d="M27.5 55C42.6878 55 55 42.6878 55 27.5C55 12.3122 42.6878 0 27.5 0C12.3122 0 0 12.3122 0 27.5C0 42.6878 12.3122 55 27.5 55Z" fill="url(#paint0_linear_2215_222)"/>
</g>
<path d="M41.441 18.6187L25.4955 40.1006L13.75 31.218L17.2068 26.4977L24.1201 31.8125L36.7204 15.125L41.441 18.6187Z" fill="url(#paint1_linear_2215_222)"/>
</g>
<defs>
<linearGradient id="paint0_linear_2215_222" x1="0" y1="0" x2="0" y2="55" gradientUnits="userSpaceOnUse">
<stop stop-color="#FCFCFE"/>
</linearGradient>
<linearGradient id="paint1_linear_2215_222" x1="13.75" y1="15.125" x2="41.441" y2="15.125" gradientUnits="userSpaceOnUse">
<stop stop-color="#5E92FF"/>
</linearGradient>
<clipPath id="clip0_2215_222">
<rect width="55" height="55" fill="white"/>
</clipPath>
</defs>
</svg>
