<svg width="19" height="22" viewBox="0 0 19 22" fill="none" xmlns="http://www.w3.org/2000/svg">
<path d="M15.9998 6V6.5C15.8998 8 15.1998 9.3 14.2998 10.2C13.1998 11.3 11.6998 12 9.99982 12H6.89982C6.39982 12 5.99982 12.4 5.89982 12.9L5.09982 18.2C4.99982 18.6 4.79982 18.9 4.39982 19H2.19982C1.59982 19 1.09982 18.5 1.19982 17.8L3.59982 3.5C3.79982 2.1 5.09982 1 6.49982 1H10.9998C13.7998 1 15.9998 3.2 15.9998 6Z" stroke="#FF6B00" stroke-miterlimit="10"/>
<path d="M17.9998 10C17.9998 11.4 17.3998 12.6 16.4998 13.5C15.5998 14.4 14.3998 15 12.9998 15H10.8998C10.3998 15 9.99982 15.3 9.89982 15.8L9.19982 20.1C9.09982 20.6 8.69982 20.9 8.19982 20.9H5.19982C4.59982 20.9 4.09982 20.3 4.19982 19.7L4.39982 19C4.79982 18.9 5.09982 18.6 5.09982 18.2L5.89982 12.9C5.99982 12.4 6.39982 12 6.89982 12H9.99982C11.6998 12 13.1998 11.3 14.1998 10.2C15.1998 9.2 15.7998 7.9 15.8998 6.5C17.1998 7.2 17.9998 8.5 17.9998 10Z" stroke="#FF6B00" stroke-miterlimit="10"/>
</svg>
