<svg width="17" height="19" viewBox="0 0 17 19" fill="none" xmlns="http://www.w3.org/2000/svg">
<path d="M16 4.383C13.225 4.1025 10.4333 3.958 7.65 3.958C6 3.958 4.35 4.043 2.7 4.213L1 4.383M5.58333 3.5245L5.76667 2.411C5.9 1.6035 6 1 7.40833 1H9.59167C11 1 11.1083 1.6375 11.2333 2.4195L11.4167 3.5245M14.2083 7.069L13.6667 15.6285C13.575 16.963 13.5 18 11.175 18H5.825C3.5 18 3.425 16.963 3.33333 15.6285L2.79167 7.069M7.10833 13.325H9.88333M6.41667 9.925H10.5833" stroke="#FF0C0C" stroke-linecap="round" stroke-linejoin="round"/>
</svg>
