<svg width="28" height="27" viewBox="0 0 28 27" fill="none" xmlns="http://www.w3.org/2000/svg">
<path d="M19.7422 16.5481C21.4577 16.8355 23.3485 16.5356 24.6758 15.6482C26.4414 14.4733 26.4414 12.5486 24.6758 11.3737C23.336 10.4863 21.4201 10.1864 19.7046 10.4863M7.25783 16.5481C5.54232 16.8355 3.65152 16.5356 2.32419 15.6482C0.558603 14.4733 0.558603 12.5486 2.32419 11.3737C3.66404 10.4863 5.57989 10.1864 7.29539 10.4863M21.0319 7.44919C20.9531 7.43669 20.8728 7.43669 20.794 7.44919C19.9583 7.41903 19.1672 7.06575 18.5877 6.46402C18.0082 5.86229 17.6858 5.05924 17.6886 4.2246C17.6886 2.43732 19.1286 1 20.9192 1C21.7761 1 22.5978 1.33973 23.2036 1.94446C23.8095 2.54919 24.1499 3.36938 24.1499 4.2246C24.1476 5.05984 23.8218 5.86184 23.2407 6.46283C22.6596 7.06383 21.8681 7.41726 21.0319 7.44919ZM5.96807 7.44919C6.0432 7.43669 6.13085 7.43669 6.20599 7.44919C7.04166 7.41903 7.83284 7.06575 8.41234 6.46402C8.99184 5.86229 9.31424 5.05924 9.31142 4.2246C9.31142 2.43732 7.8714 1 6.08077 1C5.22394 1 4.40221 1.33973 3.79635 1.94446C3.19048 2.54919 2.85011 3.36938 2.85011 4.2246C2.86263 5.97438 4.24004 7.3867 5.96807 7.44919ZM13.5188 16.7855C13.44 16.773 13.3597 16.773 13.2809 16.7855C12.4452 16.7554 11.654 16.4021 11.0745 15.8004C10.495 15.1986 10.1726 14.3956 10.1754 13.5609C10.1754 11.7737 11.6155 10.3363 13.4061 10.3363C14.2629 10.3363 15.0846 10.6761 15.6905 11.2808C16.2964 11.8855 16.6367 12.7057 16.6367 13.5609C16.6242 15.3107 15.2468 16.7355 13.5188 16.7855ZM9.87491 20.7225C8.10932 21.8974 8.10932 23.8221 9.87491 24.997C11.8784 26.3343 15.1592 26.3343 17.1627 24.997C18.9282 23.8221 18.9282 21.8974 17.1627 20.7225C15.1717 19.3977 11.8784 19.3977 9.87491 20.7225Z" stroke="#6A6A6A" stroke-width="1.7" stroke-linecap="round" stroke-linejoin="round"/>
</svg>
