<svg width="14" height="17" viewBox="0 0 14 17" fill="none" xmlns="http://www.w3.org/2000/svg">
<path d="M7 11V13.1429M7 13.1429C7.44203 13.1429 7.86595 13.2934 8.17851 13.5613C8.49107 13.8292 8.66667 14.1925 8.66667 14.5714M7 13.1429C6.55797 13.1429 6.13405 13.2934 5.82149 13.5613C5.50893 13.8292 5.33333 14.1925 5.33333 14.5714M8.66667 14.5714C8.66667 14.9503 8.49107 15.3137 8.17851 15.5816C7.86595 15.8495 7.44203 16 7 16C6.55797 16 6.13405 15.8495 5.82149 15.5816C5.50893 15.3137 5.33333 14.9503 5.33333 14.5714M8.66667 14.5714H12M5.33333 14.5714H2" stroke="white" stroke-width="0.7" stroke-miterlimit="10" stroke-linecap="round" stroke-linejoin="round"/>
<path d="M13 5.5V8.5C13 10.5 12.4 11 10 11H4C1.6 11 1 10.5 1 8.5V3.5C1 1.5 1.6 1 4 1H4.9C5.8 1 5.99714 1.22143 6.34 1.6L7.24 2.6C7.47143 2.85 7.6 3 8.2 3H10C12.4 3 13 3.5 13 5.5Z" stroke="white" stroke-width="0.7" stroke-miterlimit="10"/>
</svg>
