<svg width="29" height="29" viewBox="0 0 29 29" fill="none" xmlns="http://www.w3.org/2000/svg">
<path d="M14.6619 15.553C14.5543 15.5394 14.4455 15.5394 14.3379 15.553C13.193 15.5144 12.1079 15.0324 11.3119 14.2086C10.5159 13.3849 10.0712 12.284 10.0719 11.1385C10.0719 8.69496 12.0429 6.71046 14.4999 6.71046C15.6601 6.70844 16.7747 7.16245 17.6033 7.9746C18.4319 8.78675 18.9082 9.89199 18.9294 11.052C18.9507 12.2121 18.5152 13.334 17.7169 14.176C16.9186 15.0179 15.8214 15.5125 14.6619 15.553ZM23.5989 24.463C21.1179 26.7432 17.8695 28.0059 14.4999 28C10.9899 28 7.80388 26.6635 5.40088 24.463C5.53588 23.194 6.34588 21.952 7.79038 20.98C11.4894 18.523 17.5374 18.523 21.2094 20.98C22.6539 21.952 23.4639 23.194 23.5989 24.463Z" stroke="#6A6A6A" stroke-width="1.5" stroke-linecap="round" stroke-linejoin="round"/>
<path d="M14.5 28C21.9561 28 28 21.9561 28 14.5C28 7.04395 21.9561 1 14.5 1C7.04395 1 1 7.04395 1 14.5C1 21.9561 7.04395 28 14.5 28Z" stroke="#6A6A6A" stroke-width="1.5" stroke-linecap="round" stroke-linejoin="round"/>
</svg>
