<svg width="21" height="21" viewBox="0 0 21 21" fill="none" xmlns="http://www.w3.org/2000/svg">
<path d="M10.6157 11.2302C10.5389 11.2207 10.4611 11.2207 10.3843 11.2302C9.56642 11.203 8.79129 10.8634 8.22264 10.283C7.65398 9.70262 7.33633 8.92695 7.3368 8.11985C7.3368 6.39823 8.74481 5 10.5 5C11.3288 4.99859 12.125 5.31847 12.717 5.89068C13.3089 6.4629 13.6491 7.24162 13.6643 8.05896C13.6795 8.8763 13.3684 9.66679 12.7981 10.26C12.2279 10.8532 11.4441 11.2017 10.6157 11.2302ZM17 17.5079C15.2277 19.1145 12.9072 20.0042 10.5 20C7.99258 20 5.71662 19.0583 4 17.5079C4.09644 16.6138 4.67507 15.7387 5.70697 15.0539C8.34941 13.3228 12.6699 13.3228 15.293 15.0539C16.3249 15.7387 16.9036 16.6138 17 17.5079Z" stroke="#979797" stroke-linecap="round" stroke-linejoin="round"/>
<path d="M10.5 20C15.7468 20 20 15.7468 20 10.5C20 5.25315 15.7468 1 10.5 1C5.25315 1 1 5.25315 1 10.5C1 15.7468 5.25315 20 10.5 20Z" stroke="#979797" stroke-linecap="round" stroke-linejoin="round"/>
</svg>
