<svg width="14" height="16" viewBox="0 0 14 16" fill="none" xmlns="http://www.w3.org/2000/svg">
<path d="M13 15C13 12.291 10.3108 10.1 7 10.1C3.68917 10.1 1 12.291 1 15M7 8C7.92625 8 8.81457 7.63125 9.46952 6.97487C10.1245 6.3185 10.4924 5.42826 10.4924 4.5C10.4924 3.57174 10.1245 2.6815 9.46952 2.02513C8.81457 1.36875 7.92625 1 7 1C6.07375 1 5.18544 1.36875 4.53048 2.02513C3.87552 2.6815 3.50757 3.57174 3.50757 4.5C3.50757 5.42826 3.87552 6.3185 4.53048 6.97487C5.18544 7.63125 6.07375 8 7 8Z" stroke="white" stroke-width="0.7" stroke-linecap="round" stroke-linejoin="round"/>
</svg>
