<svg width="29" height="29" viewBox="0 0 29 29" fill="none" xmlns="http://www.w3.org/2000/svg">
<path d="M14.5017 9.28401V15.8192M12.8131 1.59872C13.7587 0.800426 15.2852 0.800426 16.2038 1.59872L18.3381 3.42533C18.7433 3.76359 19.5133 4.04773 20.0537 4.04773H22.3501C23.782 4.04773 24.9572 5.22488 24.9572 6.65911V8.95928C24.9572 9.5005 25.2409 10.2582 25.5786 10.6641L27.4023 12.8019C28.1993 13.7491 28.1993 15.278 27.4023 16.1981L25.5786 18.3359C25.2409 18.7418 24.9572 19.4995 24.9572 20.0407V22.3409C24.9572 23.7751 23.782 24.9523 22.3501 24.9523H20.0537C19.5133 24.9523 18.7568 25.2364 18.3516 25.5747L16.2173 27.4013C15.2717 28.1996 13.7452 28.1996 12.8266 27.4013L10.6923 25.5747C10.2871 25.2364 9.51707 24.9523 8.99024 24.9523H6.62627C5.19437 24.9523 4.01914 23.7751 4.01914 22.3409V20.0272C4.01914 19.4995 3.74897 18.7283 3.41126 18.3359L1.58762 16.1845C0.804128 15.2509 0.804128 13.7355 1.58762 12.8019L3.41126 10.6506C3.74897 10.2447 4.01914 9.48697 4.01914 8.95928V6.67264C4.01914 5.23841 5.19437 4.06126 6.62627 4.06126H8.96323C9.50357 4.06126 10.26 3.77712 10.6653 3.43886L12.8131 1.59872Z" stroke="white" stroke-width="1.5" stroke-linecap="round" stroke-linejoin="round"/>
<path d="M14.4949 19.9324H14.5071" stroke="white" stroke-width="2" stroke-linecap="round" stroke-linejoin="round"/>
</svg>
