<svg width="19" height="19" viewBox="0 0 19 19" fill="none" xmlns="http://www.w3.org/2000/svg">
<path d="M8.55514 1.2109H6.87622C2.67892 1.2109 1 2.88981 1 7.08708V12.1238C1 16.3211 2.67892 18 6.87622 18H11.913C16.1103 18 17.7892 16.3211 17.7892 12.1238V10.4449" stroke="white" stroke-linecap="round" stroke-linejoin="round"/>
<path d="M12.7859 2.06714L6.17096 8.68205C5.91913 8.93388 5.66729 9.42916 5.61692 9.79013L5.25595 12.3169C5.12164 13.2319 5.76802 13.8699 6.68304 13.744L9.20981 13.383C9.56238 13.3326 10.0577 13.0808 10.3179 12.829L16.9328 6.21405C18.0745 5.07239 18.6118 3.74605 16.9328 2.06714C15.2539 0.38823 13.9276 0.925481 12.7859 2.06714Z" stroke="white" stroke-miterlimit="10" stroke-linecap="round" stroke-linejoin="round"/>
<path d="M11.8374 3.01572C12.1158 4.00416 12.6433 4.90455 13.3694 5.63066C14.0955 6.35678 14.9959 6.88428 15.9843 7.16263" stroke="white" stroke-miterlimit="10" stroke-linecap="round" stroke-linejoin="round"/>
</svg>
