<svg width="22" height="18" viewBox="0 0 22 18" fill="none" xmlns="http://www.w3.org/2000/svg">
<path d="M14.58 8.99998C14.58 10.98 12.98 12.58 11 12.58C9.01998 12.58 7.41998 10.98 7.41998 8.99998C7.41998 7.01998 9.01998 5.41998 11 5.41998C12.98 5.41998 14.58 7.01998 14.58 8.99998Z" stroke="white" stroke-linecap="round" stroke-linejoin="round"/>
<path d="M11 17.27C14.53 17.27 17.82 15.19 20.11 11.59C21.01 10.18 21.01 7.80997 20.11 6.39997C17.82 2.79997 14.53 0.719971 11 0.719971C7.47003 0.719971 4.18003 2.79997 1.89003 6.39997C0.990027 7.80997 0.990027 10.18 1.89003 11.59C4.18003 15.19 7.47003 17.27 11 17.27Z" stroke="white" stroke-linecap="round" stroke-linejoin="round"/>
</svg>
