<svg width="22" height="20" viewBox="0 0 22 20" fill="none" xmlns="http://www.w3.org/2000/svg">
<path d="M11 13C11.7956 13 12.5587 12.6839 13.1213 12.1213C13.6839 11.5587 14 10.7956 14 10C14 9.20435 13.6839 8.44129 13.1213 7.87868C12.5587 7.31607 11.7956 7 11 7C10.2044 7 9.44129 7.31607 8.87868 7.87868C8.31607 8.44129 8 9.20435 8 10C8 10.7956 8.31607 11.5587 8.87868 12.1213C9.44129 12.6839 10.2044 13 11 13Z" stroke="white" stroke-miterlimit="10" stroke-linecap="round" stroke-linejoin="round"/>
<path d="M1 10.8804V9.12042C1 8.08042 1.85 7.22043 2.9 7.22043C4.71 7.22043 5.45 5.94042 4.54 4.37042C4.02 3.47042 4.33 2.30042 5.24 1.78042L6.97 0.790425C7.76 0.320425 8.78 0.600425 9.25 1.39042L9.36 1.58042C10.26 3.15042 11.74 3.15042 12.65 1.58042L12.76 1.39042C13.23 0.600425 14.25 0.320425 15.04 0.790425L16.77 1.78042C17.68 2.30042 17.99 3.47042 17.47 4.37042C16.56 5.94042 17.3 7.22043 19.11 7.22043C20.15 7.22043 21.01 8.07042 21.01 9.12042V10.8804C21.01 11.9204 20.16 12.7804 19.11 12.7804C17.3 12.7804 16.56 14.0604 17.47 15.6304C17.99 16.5404 17.68 17.7004 16.77 18.2204L15.04 19.2104C14.25 19.6804 13.23 19.4004 12.76 18.6104L12.65 18.4204C11.75 16.8504 10.27 16.8504 9.36 18.4204L9.25 18.6104C8.78 19.4004 7.76 19.6804 6.97 19.2104L5.24 18.2204C4.8041 17.9694 4.48558 17.5558 4.35435 17.0702C4.22311 16.5846 4.28988 16.0668 4.54 15.6304C5.45 14.0604 4.71 12.7804 2.9 12.7804C1.85 12.7804 1 11.9204 1 10.8804Z" stroke="white" stroke-miterlimit="10" stroke-linecap="round" stroke-linejoin="round"/>
</svg>
