<svg width="22" height="22" viewBox="0 0 22 22" fill="none" xmlns="http://www.w3.org/2000/svg">
<path d="M21 7.27V3.23C21 1.64 20.36 1 18.77 1H14.73C13.14 1 12.5 1.64 12.5 3.23V7.27C12.5 8.86 13.14 9.5 14.73 9.5H18.77C20.36 9.5 21 8.86 21 7.27ZM9.5 7.52V2.98C9.5 1.57 8.86 1 7.27 1H3.23C1.64 1 1 1.57 1 2.98V7.51C1 8.93 1.64 9.49 3.23 9.49H7.27C8.86 9.5 9.5 8.93 9.5 7.52ZM9.5 18.77V14.73C9.5 13.14 8.86 12.5 7.27 12.5H3.23C1.64 12.5 1 13.14 1 14.73V18.77C1 20.36 1.64 21 3.23 21H7.27C8.86 21 9.5 20.36 9.5 18.77Z" stroke="white" stroke-linecap="round" stroke-linejoin="round"/>
<path d="M13.5 16.5H19.5M16.5 19.5V13.5" stroke="white" stroke-linecap="round"/>
</svg>
