<svg width="381" height="346" viewBox="0 0 381 346" fill="none" xmlns="http://www.w3.org/2000/svg">
<path d="M381 20V326C381 337.046 372.046 346 361 346H20.0326C8.97417 346 0.014606 337.026 0.0326041 325.967L0.491573 43.9674C0.50953 32.9345 9.45856 24 20.4915 24H228.029C234.561 24 240.682 20.8101 244.423 15.4556L249.252 8.54438C252.994 3.18992 259.114 0 265.647 0H361C372.046 0 381 8.9543 381 20Z" fill="#FF6B00"/>
<path d="M20.826 66V49.61H31.21V51.59H22.982V56.892H30.44V58.872H22.982V66H20.826ZM41.2693 66.264C40.1107 66.264 39.0253 66.0587 38.0133 65.648C37.0013 65.2227 36.114 64.6287 35.3513 63.866C34.6033 63.1033 34.0167 62.2087 33.5913 61.182C33.166 60.1407 32.9533 59.0113 32.9533 57.794C32.9533 56.562 33.166 55.4327 33.5913 54.406C34.0167 53.3793 34.6033 52.4847 35.3513 51.722C36.114 50.9593 36.994 50.3727 37.9913 49.962C39.0033 49.5513 40.096 49.346 41.2693 49.346C42.4427 49.346 43.528 49.5587 44.5253 49.984C45.5373 50.3947 46.4173 50.9813 47.1653 51.744C47.928 52.492 48.522 53.3793 48.9473 54.406C49.3873 55.4327 49.6073 56.562 49.6073 57.794C49.6073 59.0113 49.3873 60.1407 48.9473 61.182C48.522 62.2087 47.928 63.1033 47.1653 63.866C46.4173 64.6287 45.5373 65.2227 44.5253 65.648C43.528 66.0587 42.4427 66.264 41.2693 66.264ZM41.2693 64.262C42.1787 64.262 43.0073 64.1007 43.7553 63.778C44.5033 63.4407 45.1487 62.9787 45.6913 62.392C46.2487 61.7907 46.674 61.1013 46.9673 60.324C47.2753 59.532 47.4293 58.6887 47.4293 57.794C47.4293 56.8993 47.2753 56.0633 46.9673 55.286C46.674 54.5087 46.2487 53.8267 45.6913 53.24C45.1487 52.6387 44.5033 52.1767 43.7553 51.854C43.0073 51.5167 42.1787 51.348 41.2693 51.348C40.3747 51.348 39.5533 51.5167 38.8053 51.854C38.0573 52.1767 37.4047 52.6387 36.8473 53.24C36.3047 53.8267 35.8793 54.5087 35.5713 55.286C35.2633 56.0633 35.1093 56.8993 35.1093 57.794C35.1093 58.6887 35.2633 59.532 35.5713 60.324C35.8793 61.1013 36.3047 61.7907 36.8473 62.392C37.4047 62.9787 38.0573 63.4407 38.8053 63.778C39.5533 64.1007 40.3747 64.262 41.2693 64.262ZM52.7518 66V49.61H54.5558L63.9718 62.854L63.1578 62.942V49.61H65.3358V66H63.5318L54.1598 52.668L54.9078 52.58V66H52.7518ZM76.54 66.264C75.3813 66.264 74.3106 66.0587 73.328 65.648C72.36 65.2227 71.5093 64.6287 70.776 63.866C70.0573 63.1033 69.5 62.2087 69.104 61.182C68.708 60.1553 68.51 59.0333 68.51 57.816C68.51 56.584 68.708 55.4547 69.104 54.428C69.5 53.4013 70.0573 52.5067 70.776 51.744C71.4946 50.9813 72.3453 50.3947 73.328 49.984C74.3106 49.5587 75.3813 49.346 76.54 49.346C77.6693 49.346 78.6813 49.544 79.576 49.94C80.4853 50.336 81.248 50.8493 81.864 51.48C82.4946 52.1107 82.942 52.7853 83.206 53.504L81.226 54.406C80.8446 53.4967 80.2506 52.7633 79.444 52.206C78.6373 51.634 77.6693 51.348 76.54 51.348C75.396 51.348 74.3766 51.6193 73.482 52.162C72.602 52.7047 71.9126 53.46 71.414 54.428C70.9153 55.396 70.666 56.5253 70.666 57.816C70.666 59.092 70.9153 60.214 71.414 61.182C71.9126 62.15 72.602 62.9053 73.482 63.448C74.3766 63.9907 75.396 64.262 76.54 64.262C77.6693 64.262 78.6373 63.9833 79.444 63.426C80.2506 62.854 80.8446 62.1133 81.226 61.204L83.206 62.106C82.942 62.8247 82.4946 63.4993 81.864 64.13C81.248 64.7607 80.4853 65.274 79.576 65.67C78.6813 66.066 77.6693 66.264 76.54 66.264ZM88.9985 66V51.59H84.5545V49.61H95.5545V51.59H91.1765V66H88.9985ZM97.6326 66V49.61H99.7886V66H97.6326ZM111.265 66.264C110.107 66.264 109.021 66.0587 108.009 65.648C106.997 65.2227 106.11 64.6287 105.347 63.866C104.599 63.1033 104.013 62.2087 103.587 61.182C103.162 60.1407 102.949 59.0113 102.949 57.794C102.949 56.562 103.162 55.4327 103.587 54.406C104.013 53.3793 104.599 52.4847 105.347 51.722C106.11 50.9593 106.99 50.3727 107.987 49.962C108.999 49.5513 110.092 49.346 111.265 49.346C112.439 49.346 113.524 49.5587 114.521 49.984C115.533 50.3947 116.413 50.9813 117.161 51.744C117.924 52.492 118.518 53.3793 118.943 54.406C119.383 55.4327 119.603 56.562 119.603 57.794C119.603 59.0113 119.383 60.1407 118.943 61.182C118.518 62.2087 117.924 63.1033 117.161 63.866C116.413 64.6287 115.533 65.2227 114.521 65.648C113.524 66.0587 112.439 66.264 111.265 66.264ZM111.265 64.262C112.175 64.262 113.003 64.1007 113.751 63.778C114.499 63.4407 115.145 62.9787 115.687 62.392C116.245 61.7907 116.67 61.1013 116.963 60.324C117.271 59.532 117.425 58.6887 117.425 57.794C117.425 56.8993 117.271 56.0633 116.963 55.286C116.67 54.5087 116.245 53.8267 115.687 53.24C115.145 52.6387 114.499 52.1767 113.751 51.854C113.003 51.5167 112.175 51.348 111.265 51.348C110.371 51.348 109.549 51.5167 108.801 51.854C108.053 52.1767 107.401 52.6387 106.843 53.24C106.301 53.8267 105.875 54.5087 105.567 55.286C105.259 56.0633 105.105 56.8993 105.105 57.794C105.105 58.6887 105.259 59.532 105.567 60.324C105.875 61.1013 106.301 61.7907 106.843 62.392C107.401 62.9787 108.053 63.4407 108.801 63.778C109.549 64.1007 110.371 64.262 111.265 64.262ZM122.748 66V49.61H124.552L133.968 62.854L133.154 62.942V49.61H135.332V66H133.528L124.156 52.668L124.904 52.58V66H122.748ZM138.99 66V49.61H140.794L150.21 62.854L149.396 62.942V49.61H151.574V66H149.77L140.398 52.668L141.146 52.58V66H138.99ZM153.648 66L159.522 49.61H162.074L167.948 66H165.638L164.296 62.15H157.3L155.958 66H153.648ZM157.982 60.17H163.614L160.49 51.172H161.106L157.982 60.17ZM170.014 66V49.61H172.17V64.02H179.364V66H170.014ZM181.787 66V49.61H183.943V66H181.787ZM190.448 66V51.59H186.004V49.61H197.004V51.59H192.626V66H190.448ZM199.082 66V49.61H209.752V51.59H201.238V56.782H209.312V58.762H201.238V64.02H209.752V66H199.082ZM218.056 66.264C217.014 66.264 216.061 66.0733 215.196 65.692C214.33 65.296 213.597 64.7607 212.996 64.086C212.394 63.4113 211.962 62.656 211.698 61.82L213.568 61.05C213.964 62.106 214.55 62.92 215.328 63.492C216.12 64.0493 217.044 64.328 218.1 64.328C218.745 64.328 219.31 64.2253 219.794 64.02C220.278 63.8147 220.652 63.5287 220.916 63.162C221.194 62.7807 221.334 62.3407 221.334 61.842C221.334 61.1527 221.136 60.61 220.74 60.214C220.358 59.8033 219.794 59.4953 219.046 59.29L216.032 58.366C214.844 57.9993 213.934 57.42 213.304 56.628C212.673 55.836 212.358 54.9267 212.358 53.9C212.358 53.0053 212.57 52.2207 212.996 51.546C213.436 50.8567 214.037 50.3213 214.8 49.94C215.577 49.544 216.457 49.346 217.44 49.346C218.422 49.346 219.31 49.522 220.102 49.874C220.908 50.226 221.59 50.7027 222.148 51.304C222.705 51.8907 223.116 52.5653 223.38 53.328L221.532 54.098C221.18 53.174 220.652 52.4773 219.948 52.008C219.244 51.524 218.415 51.282 217.462 51.282C216.875 51.282 216.354 51.3847 215.9 51.59C215.46 51.7807 215.115 52.0667 214.866 52.448C214.631 52.8147 214.514 53.2547 214.514 53.768C214.514 54.3693 214.704 54.9047 215.086 55.374C215.467 55.8433 216.046 56.2027 216.824 56.452L219.574 57.266C220.864 57.662 221.84 58.2267 222.5 58.96C223.16 59.6933 223.49 60.6027 223.49 61.688C223.49 62.5827 223.255 63.3747 222.786 64.064C222.331 64.7533 221.693 65.296 220.872 65.692C220.065 66.0733 219.126 66.264 218.056 66.264Z" fill="black"/>
<path fill-rule="evenodd" clip-rule="evenodd" d="M44.2992 261.666C40.6975 261.263 36.969 261.263 33.3673 261.666C32.4921 261.763 31.8019 262.456 31.7034 263.298C31.2733 266.976 31.2733 270.691 31.7034 274.368C31.8019 275.21 32.4921 275.903 33.3673 276.001C36.969 276.403 40.6975 276.403 44.2992 276.001C45.1744 275.903 45.8646 275.21 45.9631 274.368C46.3932 270.691 46.3932 266.976 45.9631 263.298C45.8646 262.456 45.1744 261.763 44.2992 261.666ZM32.8952 257.442C36.8107 257.004 40.8558 257.004 44.7713 257.442C47.5786 257.756 49.8524 259.966 50.1842 262.804C50.6528 266.81 50.6528 270.856 50.1842 274.862C49.8524 277.701 47.5786 279.911 44.7713 280.224C40.8558 280.662 36.8107 280.662 32.8952 280.224C30.0878 279.911 27.8142 277.701 27.4822 274.862C27.0137 270.856 27.0137 266.81 27.4822 262.804C27.8142 259.966 30.0878 257.756 32.8952 257.442Z" fill="black"/>
<path fill-rule="evenodd" clip-rule="evenodd" d="M44.2992 289.999C40.6975 289.597 36.969 289.597 33.3673 289.999C32.4921 290.097 31.8019 290.79 31.7034 291.632C31.2733 295.309 31.2733 299.024 31.7034 302.702C31.8019 303.543 32.4921 304.236 33.3673 304.334C36.969 304.737 40.6975 304.737 44.2992 304.334C45.1744 304.236 45.8646 303.543 45.9631 302.702C46.3932 299.024 46.3932 295.309 45.9631 291.632C45.8646 290.79 45.1744 290.097 44.2992 289.999ZM32.8952 285.776C36.8107 285.338 40.8558 285.338 44.7713 285.776C47.5786 286.089 49.8524 288.299 50.1842 291.138C50.6528 295.143 50.6528 299.19 50.1842 303.195C49.8524 306.034 47.5786 308.244 44.7713 308.558C40.8558 308.996 36.8107 308.996 32.8952 308.558C30.0878 308.244 27.8142 306.034 27.4822 303.195C27.0137 299.19 27.0137 295.143 27.4822 291.138C27.8142 288.299 30.0878 286.089 32.8952 285.776Z" fill="black"/>
<path fill-rule="evenodd" clip-rule="evenodd" d="M72.6324 261.666C69.0304 261.263 65.302 261.263 61.7002 261.666C60.825 261.763 60.1348 262.456 60.0365 263.298C59.6064 266.976 59.6064 270.691 60.0365 274.368C60.1348 275.21 60.825 275.903 61.7002 276.001C65.302 276.403 69.0304 276.403 72.6324 276.001C73.5076 275.903 74.1978 275.21 74.2961 274.368C74.7262 270.691 74.7262 266.976 74.2961 263.298C74.1978 262.456 73.5076 261.763 72.6324 261.666ZM61.2282 257.442C65.1439 257.004 69.1887 257.004 73.1044 257.442C75.9117 257.756 78.1854 259.966 78.5172 262.804C78.9858 266.81 78.9858 270.856 78.5172 274.862C78.1854 277.701 75.9117 279.911 73.1044 280.224C69.1887 280.662 65.1439 280.662 61.2282 280.224C58.4209 279.911 56.1472 277.701 55.8151 274.862C55.3468 270.856 55.3468 266.81 55.8151 262.804C56.1472 259.966 58.4209 257.756 61.2282 257.442Z" fill="black"/>
<path fill-rule="evenodd" clip-rule="evenodd" d="M72.6324 289.999C69.0304 289.597 65.302 289.597 61.7002 289.999C60.825 290.097 60.1348 290.79 60.0365 291.632C59.6064 295.309 59.6064 299.024 60.0365 302.702C60.1348 303.543 60.825 304.236 61.7002 304.334C65.302 304.737 69.0304 304.737 72.6324 304.334C73.5076 304.236 74.1978 303.543 74.2961 302.702C74.7262 299.024 74.7262 295.309 74.2961 291.632C74.1978 290.79 73.5076 290.097 72.6324 289.999ZM61.2282 285.776C65.1439 285.338 69.1887 285.338 73.1044 285.776C75.9117 286.089 78.1854 288.299 78.5172 291.138C78.9858 295.143 78.9858 299.19 78.5172 303.195C78.1854 306.034 75.9117 308.244 73.1044 308.558C69.1887 308.996 65.1439 308.996 61.2282 308.558C58.4209 308.244 56.1472 306.034 55.8151 303.195C55.3468 299.19 55.3468 295.143 55.8151 291.138C56.1472 288.299 58.4209 286.089 61.2282 285.776Z" fill="black"/>
</svg>
