<svg width="20" height="22" viewBox="0 0 20 22" fill="none" xmlns="http://www.w3.org/2000/svg">
<path d="M7.5 18.5V17H2.5C1.95 17 1.45 16.78 1.09 16.41C0.72 16.05 0.5 15.55 0.5 15C0.5 13.97 1.3 13.11 2.31 13.01C2.37 13 2.43 13 2.5 13H17.5C17.57 13 17.63 13 17.69 13.01C18.17 13.05 18.59 13.26 18.91 13.59C19.32 13.99 19.54 14.56 19.49 15.18C19.4 16.23 18.45 17 17.39 17H12.5V18.5C12.5 19.163 12.2366 19.7989 11.7678 20.2678C11.2989 20.7366 10.663 21 10 21C9.33696 21 8.70107 20.7366 8.23223 20.2678C7.76339 19.7989 7.5 19.163 7.5 18.5Z" stroke="white" stroke-linecap="round" stroke-linejoin="round"/>
<path d="M5.98992 1V6M9.99992 1V3M18.1699 4.3L17.6899 13.01C17.6299 13 17.5699 13 17.4999 13H2.49992C2.42992 13 2.36992 13 2.30992 13.01L1.82992 4.3C1.7874 3.88313 1.8328 3.46197 1.96319 3.06374C2.09358 2.66551 2.30606 2.29906 2.5869 1.98806C2.86774 1.67706 3.21069 1.42844 3.59361 1.25824C3.97652 1.08805 4.39088 1.00008 4.80992 1H15.1899C16.9599 1 18.3499 2.53 18.1699 4.3Z" stroke="white" stroke-linecap="round" stroke-linejoin="round"/>
</svg>
