<svg width="22" height="20" viewBox="0 0 22 20" fill="none" xmlns="http://www.w3.org/2000/svg">
<path d="M11 13C11.7956 13 12.5587 12.6839 13.1213 12.1213C13.6839 11.5587 14 10.7956 14 10C14 9.20435 13.6839 8.44129 13.1213 7.87868C12.5587 7.31607 11.7956 7 11 7C10.2044 7 9.44129 7.31607 8.87868 7.87868C8.31607 8.44129 8 9.20435 8 10C8 10.7956 8.31607 11.5587 8.87868 12.1213C9.44129 12.6839 10.2044 13 11 13Z" stroke="white" stroke-miterlimit="10" stroke-linecap="round" stroke-linejoin="round"/>
<path d="M1 10.88V9.12C1 8.08 1.85 7.22 2.9 7.22C4.71 7.22 5.45 5.94 4.54 4.37C4.02 3.47 4.33 2.3 5.24 1.78L6.97 0.789997C7.76 0.319997 8.78 0.599998 9.25 1.39L9.36 1.58C10.26 3.15 11.74 3.15 12.65 1.58L12.76 1.39C13.23 0.599998 14.25 0.319997 15.04 0.789997L16.77 1.78C17.68 2.3 17.99 3.47 17.47 4.37C16.56 5.94 17.3 7.22 19.11 7.22C20.15 7.22 21.01 8.07 21.01 9.12V10.88C21.01 11.92 20.16 12.78 19.11 12.78C17.3 12.78 16.56 14.06 17.47 15.63C17.99 16.54 17.68 17.7 16.77 18.22L15.04 19.21C14.25 19.68 13.23 19.4 12.76 18.61L12.65 18.42C11.75 16.85 10.27 16.85 9.36 18.42L9.25 18.61C8.78 19.4 7.76 19.68 6.97 19.21L5.24 18.22C4.8041 17.969 4.48558 17.5553 4.35435 17.0698C4.22311 16.5842 4.28988 16.0664 4.54 15.63C5.45 14.06 4.71 12.78 2.9 12.78C1.85 12.78 1 11.92 1 10.88Z" stroke="white" stroke-miterlimit="10" stroke-linecap="round" stroke-linejoin="round"/>
</svg>
