<svg width="381" height="346" viewBox="0 0 381 346" fill="none" xmlns="http://www.w3.org/2000/svg">
<path d="M381 20V326C381 337.046 372.046 346 361 346H20.0326C8.97417 346 0.014606 337.026 0.0326041 325.967L0.491573 43.9674C0.50953 32.9345 9.45856 24 20.4915 24H228.029C234.561 24 240.682 20.8101 244.423 15.4556L249.252 8.54438C252.994 3.18992 259.114 0 265.647 0H361C372.046 0 381 8.9543 381 20Z" fill="#FDBF77"/>
<path d="M31.826 68V51.61H33.982V66.02H41.176V68H31.826ZM43.5994 68V51.61H54.2694V53.59H45.7554V58.782H53.8294V60.762H45.7554V66.02H54.2694V68H43.5994ZM60.744 68V51.61H66.53C67.6153 51.61 68.5686 51.8153 69.39 52.226C70.2113 52.6367 70.8493 53.2233 71.304 53.986C71.7733 54.7487 72.008 55.6433 72.008 56.67C72.008 57.6967 71.7733 58.5913 71.304 59.354C70.8493 60.102 70.2113 60.6887 69.39 61.114C68.5833 61.5247 67.63 61.73 66.53 61.73H62.9V68H60.744ZM62.9 59.75H66.596C67.256 59.75 67.828 59.6253 68.312 59.376C68.796 59.1267 69.17 58.7673 69.434 58.298C69.698 57.8287 69.83 57.286 69.83 56.67C69.83 56.0393 69.698 55.4967 69.434 55.042C69.17 54.5727 68.796 54.2133 68.312 53.964C67.828 53.7147 67.256 53.59 66.596 53.59H62.9V59.75ZM74.9237 68V51.61H80.7097C81.795 51.61 82.7483 51.8153 83.5697 52.226C84.391 52.6367 85.029 53.2233 85.4837 53.986C85.953 54.7487 86.1877 55.6433 86.1877 56.67C86.1877 57.8287 85.8943 58.8113 85.3077 59.618C84.721 60.4247 83.929 61.004 82.9317 61.356L86.7377 68H84.2297L80.2257 60.894L81.6557 61.73H77.0797V68H74.9237ZM77.0797 59.75H80.7757C81.421 59.75 81.9857 59.6253 82.4697 59.376C82.9537 59.1267 83.3277 58.7673 83.5917 58.298C83.8703 57.8287 84.0097 57.286 84.0097 56.67C84.0097 56.0393 83.8703 55.4967 83.5917 55.042C83.3277 54.5727 82.9537 54.2133 82.4697 53.964C81.9857 53.7147 81.421 53.59 80.7757 53.59H77.0797V59.75ZM97.0213 68.264C95.8626 68.264 94.7773 68.0587 93.7653 67.648C92.7533 67.2227 91.8659 66.6287 91.1033 65.866C90.3553 65.1033 89.7686 64.2087 89.3433 63.182C88.9179 62.1407 88.7053 61.0113 88.7053 59.794C88.7053 58.562 88.9179 57.4327 89.3433 56.406C89.7686 55.3793 90.3553 54.4847 91.1033 53.722C91.8659 52.9593 92.7459 52.3727 93.7433 51.962C94.7553 51.5513 95.8479 51.346 97.0213 51.346C98.1946 51.346 99.2799 51.5587 100.277 51.984C101.289 52.3947 102.169 52.9813 102.917 53.744C103.68 54.492 104.274 55.3793 104.699 56.406C105.139 57.4327 105.359 58.562 105.359 59.794C105.359 61.0113 105.139 62.1407 104.699 63.182C104.274 64.2087 103.68 65.1033 102.917 65.866C102.169 66.6287 101.289 67.2227 100.277 67.648C99.2799 68.0587 98.1946 68.264 97.0213 68.264ZM97.0213 66.262C97.9306 66.262 98.7593 66.1007 99.5073 65.778C100.255 65.4407 100.901 64.9787 101.443 64.392C102.001 63.7907 102.426 63.1013 102.719 62.324C103.027 61.532 103.181 60.6887 103.181 59.794C103.181 58.8993 103.027 58.0633 102.719 57.286C102.426 56.5087 102.001 55.8267 101.443 55.24C100.901 54.6387 100.255 54.1767 99.5073 53.854C98.7593 53.5167 97.9306 53.348 97.0213 53.348C96.1266 53.348 95.3053 53.5167 94.5573 53.854C93.8093 54.1767 93.1566 54.6387 92.5993 55.24C92.0566 55.8267 91.6313 56.5087 91.3233 57.286C91.0153 58.0633 90.8613 58.8993 90.8613 59.794C90.8613 60.6887 91.0153 61.532 91.3233 62.324C91.6313 63.1013 92.0566 63.7907 92.5993 64.392C93.1566 64.9787 93.8093 65.4407 94.5573 65.778C95.3053 66.1007 96.1266 66.262 97.0213 66.262ZM107.778 68V65.91H108.68C109.457 65.91 110.073 65.6827 110.528 65.228C110.982 64.7587 111.21 64.128 111.21 63.336V51.61H113.388V63.292C113.388 64.2453 113.19 65.074 112.794 65.778C112.412 66.482 111.87 67.032 111.166 67.428C110.462 67.8093 109.633 68 108.68 68H107.778ZM116.99 68V51.61H127.66V53.59H119.146V58.782H127.22V60.762H119.146V66.02H127.66V68H116.99ZM133.192 68V53.59H128.748V51.61H139.748V53.59H135.37V68H133.192ZM144.045 68L149.919 51.61H152.471L158.345 68H156.035L154.693 64.15H147.697L146.355 68H144.045ZM148.379 62.17H154.011L150.887 53.172H151.503L148.379 62.17ZM160.41 68V51.61H162.566V66.02H169.76V68H160.41ZM177.694 68.264C176.506 68.264 175.45 68.0147 174.526 67.516C173.616 67.0173 172.905 66.3353 172.392 65.47C171.893 64.59 171.644 63.5927 171.644 62.478V51.61H173.822V62.434C173.822 63.182 173.983 63.8493 174.306 64.436C174.643 65.008 175.098 65.4553 175.67 65.778C176.256 66.1007 176.931 66.262 177.694 66.262C178.456 66.262 179.124 66.1007 179.696 65.778C180.282 65.4553 180.737 65.008 181.06 64.436C181.397 63.8493 181.566 63.182 181.566 62.434V51.61H183.744V62.478C183.744 63.5927 183.487 64.59 182.974 65.47C182.475 66.3353 181.771 67.0173 180.862 67.516C179.952 68.0147 178.896 68.264 177.694 68.264ZM187.287 68V51.61H189.267L195.405 60.344H194.393L200.487 51.61H202.467V68H200.289V54.338L201.059 54.58L194.965 63.16H194.789L188.761 54.58L189.443 54.338V68H187.287ZM206.107 68V51.61H216.777V53.59H208.263V58.782H216.337V60.762H208.263V66.02H216.777V68H206.107ZM222.309 68V53.59H217.865V51.61H228.865V53.59H224.487V68H222.309Z" fill="black"/>
<path d="M62.8442 242L43.0942 261.75L49.6776 268.333L62.8442 255.167L76.0109 268.333L82.5942 261.75L62.8442 242ZM62.8442 307.833L43.0942 288.083L49.6776 281.5L62.8442 294.667L76.0109 281.5L82.5942 288.083L62.8442 307.833ZM88.4699 267.352L81.0241 274.801L88.4699 282.247L95.9189 274.801L88.4699 267.352ZM37.449 267.352L30 274.801L37.449 282.247L44.8981 274.801L37.449 267.352Z" fill="black" stroke="black" stroke-width="1.5" stroke-miterlimit="10" stroke-linecap="round" stroke-linejoin="round"/>
<path d="M62.6144 266.77L54.4609 274.916L62.6078 283.063L70.758 274.916L62.6111 266.77H62.6144Z" fill="black" stroke="black" stroke-width="1.5" stroke-miterlimit="10" stroke-linecap="round" stroke-linejoin="round"/>
</svg>
